<svg xmlns="http://www.w3.org/2000/svg" width="60.079" height="66.655" viewBox="0 0 60.079 66.655">
    <g>
        <g>
            <path fill="#f6fbfe" d="M1067.838 1421.438c13.311-1.313 23.132 4.682 29.547 4.051s19.523-5.65 16.615-35.159-21.459-32.053-28.515-31.356c-33.04 3.255-41.223 64.789-17.647 62.464zm0 0" transform="translate(-1054.336 -1358.881)"/>
        </g>
        <path fill="#a4aec0" d="M1084.072 1371.842a2.9 2.9 0 1 1 3.866-1.373 2.9 2.9 0 0 1-3.866 1.373zm1.662-3.493a.967.967 0 1 0 .458 1.289.968.968 0 0 0-.458-1.289zm0 0" transform="translate(-1054.336 -1358.881)"/>
        <g>
            <path fill="#081f3b" d="M1102.972 1391.529l-4.42-3.418v-3.835a3.154 3.154 0 0 0-3.15-3.151h-5.875l-3.222-2.49a3.165 3.165 0 0 0-3.861 0l-3.221 2.49h-5.875a3.154 3.154 0 0 0-3.15 3.151v3.835l-4.42 3.418a.787.787 0 0 0-.306.623v20.478a3.158 3.158 0 0 0 3.151 3.151h31.505a3.159 3.159 0 0 0 3.15-3.151v-20.478a.787.787 0 0 0-.306-.623zm-1.41 21.753l-12.545-9.709 12.686-9.816v18.873a1.568 1.568 0 0 1-.141.652zm-.359-21.13l-2.651 2.051v-4.1zm-17.8-12.27a1.571 1.571 0 0 1 1.936 0l1.609 1.244h-5.148zm-10.059 2.818h22.056a1.577 1.577 0 0 1 1.575 1.576v11.146l-11.638 9a1.573 1.573 0 0 1-1.928 0l-11.638-9v-11.146a1.578 1.578 0 0 1 1.577-1.576zm-6.16 30.582a1.575 1.575 0 0 1-.141-.652v-18.873l12.686 9.816zm3.01-19.079l-2.651-2.051 2.651-2.05zm-1.575 20c-.017 0-.033 0-.049-.005l12.446-9.633 1.427 1.1a3.15 3.15 0 0 0 3.856 0l1.427-1.1 12.446 9.633c-.016 0-.032.005-.048.005z" transform="translate(-1054.336 -1358.881)"/>
            <path fill="#e34" d="M1084.264 1399.24h.014a.788.788 0 0 0 .013-1.575 4.726 4.726 0 0 1 .083-9.451h.085a4.732 4.732 0 0 1 4.641 4.809 1.318 1.318 0 0 1-.555 1.248 2.115 2.115 0 0 1-1.7-.092l.056-3.134a.788.788 0 0 0-.418-.709 3.108 3.108 0 0 0-3.9.765 3.687 3.687 0 0 0-.637 2.883 2.383 2.383 0 0 0 1.224 1.632 3.155 3.155 0 0 0 2.848-.085 3.71 3.71 0 0 0 3.264.13 2.785 2.785 0 0 0 1.389-2.61 6.308 6.308 0 0 0-6.188-6.412h-.113a6.3 6.3 0 0 0-.11 12.6zm1.009-5.1a1.529 1.529 0 0 1-1.361.089.829.829 0 0 1-.426-.589 2.143 2.143 0 0 1 .369-1.6 1.352 1.352 0 0 1 1.107-.5 1.761 1.761 0 0 1 .357.036z" transform="translate(-1054.336 -1358.881)"/>
        </g>
    </g>
</svg>
