<svg xmlns="http://www.w3.org/2000/svg" width="63.456" height="68.743" viewBox="0 0 63.456 68.743">
    <defs>
        <style>
            .cls-1{fill:white}.cls-2{fill:#e34}
        </style>
    </defs>
    <g id="Group_122" transform="translate(-2980.148 -4759.749)">
        <g id="Group_120">
            <path id="Path_163" d="M3043.6 4827.426V4774.1a1.005 1.005 0 0 0-2.011 0v50.913l-2.97-2.949v-55.893l2.97-2.949v6.723a1.005 1.005 0 0 0 2.011 0v-9.134c0-1.29-1.681-1.009-2.509-1.009h-24.431c-.864 0-3.126-.41-3.126 1.009v44.613a1.005 1.005 0 1 0 2.011 0v-42.2l2.971 2.949v55.893l-2.971 2.949V4809.8a1.005 1.005 0 1 0-2.011 0v17.622c0 1.3 1.705 1.01 2.537 1.01h24.375c.868 0 3.158.414 3.158-1.01zm-23.078-5.947v-54.719h16.085v54.719zm16.677-56.73h-17.267l-2.956-2.935h23.178zm-17.267 58.741h17.268l2.956 2.935h-23.176zm0 0" class="cls-1"/>
        </g>
        <path id="Path_164" d="M3033.675 4780.434H3024a1 1 0 1 0 0 2.01h9.677a1 1 0 0 0 0-2.01zm0 0" class="cls-2"/>
        <path id="Path_165" d="M3033.675 4811.7H3024a1.006 1.006 0 1 0 0 2.012h9.677a1.006 1.006 0 0 0 0-2.012zm0 0" class="cls-1"/>
        <path id="Path_166" d="M3031.862 4786.083a1 1 0 0 0-1.006-1h-4.04a1.005 1.005 0 1 0 0 2.011h4.04a1 1 0 0 0 1.006-1.006zm0 0" class="cls-2"/>
        <g id="Group_121">
            <path id="Path_167" d="M3027.83 4792.017v10.711a1.005 1.005 0 1 0 2.011 0v-10.711a1.005 1.005 0 1 0-2.011 0zm0 0" class="cls-1"/>
            <path id="Path_168" d="M3010.235 4760.812c0-.944-.882-1.008-1.586-1.008h-17.828c-3.156 0-6.314-.029-9.471 0-1.437.013-1.185 1.456-1.185 2.461v59.386c0 1.846-.01 3.692 0 5.537 0 .646.279 1.2 1.007 1.248.752.052 1.526 0 2.28 0h24.459c.6 0 1.58.175 2.046-.312a1.67 1.67 0 0 0 .278-1.26v-66.052zm-6.4 3.937h-17.267l-2.956-2.935h23.179zm-18.687 1.424v55.893l-2.97 2.949v-61.791zm1.42 57.317h17.267l2.956 2.935h-23.179zm18.687-1.424v-43.206a1.005 1.005 0 0 0-2.011 0v42.619h-16.085v-54.719h16.085v7.923a1.005 1.005 0 0 0 2.011 0v-8.51l2.971-2.949v61.791zm0 0" class="cls-1"/>
        </g>
        <path id="Path_169" d="M3000.306 4780.434h-9.676a1 1 0 1 0 0 2.01h9.676a1 1 0 1 0 0-2.01zm0 0" class="cls-2"/>
        <path id="Path_170" d="M3000.306 4811.7h-9.676a1.006 1.006 0 0 0 0 2.012h9.676a1.006 1.006 0 0 0 0-2.012zm0 0" class="cls-1"/>
        <path id="Path_171" d="M2998.493 4786.083a1 1 0 0 0-1-1h-4.041a1.005 1.005 0 0 0 0 2.011h4.041a1 1 0 0 0 1-1.006zm0 0" class="cls-2"/>
        <path id="Path_172" d="M2994.462 4792.017v10.711a1.005 1.005 0 1 0 2.011 0v-10.711a1.005 1.005 0 1 0-2.011 0zm0 0" class="cls-1"/>
    </g>
</svg>
