<svg xmlns="http://www.w3.org/2000/svg" width="83.433" height="91.515" viewBox="0 0 83.433 91.515">
    <g>
        <g>
            <path fill="#eff4fa" d="M553.159 991.642c18.294-3.546 32.693 3.5 41.509 1.792s26.348-10.364 18.493-50.919-33.916-41.682-43.614-39.8c-45.407 8.794-48.789 95.207-16.388 88.929zm0 0" transform="translate(-531.702 -902.191)"/>
        </g>
        <path fill="#a4aec0" d="M574.894 921.143a4.041 4.041 0 1 1 4.041-4.041 4.046 4.046 0 0 1-4.041 4.041zm0-5.388a1.347 1.347 0 1 0 1.348 1.347 1.349 1.349 0 0 0-1.348-1.347zm0 0" transform="translate(-531.702 -902.191)"/>
        <g>
            <g>
                <path fill="#081f3b" d="M562.841 963.589l-3.117 2.665c.167.072.327.144.484.223 1.8.879 2.913 2.164 2.913 3.638a3.969 3.969 0 0 1-2.206 3.249 12.338 12.338 0 0 1-5.005 1.564.829.829 0 0 1-.182-1.649 10.715 10.715 0 0 0 4.317-1.323c.882-.546 1.414-1.191 1.414-1.841 0-.789-.757-1.552-1.98-2.153a13.1 13.1 0 0 0-5.539-1.111 12.9 12.9 0 0 0-5.54 1.111c-1.222.6-1.979 1.364-1.979 2.153 0 .65.531 1.295 1.413 1.841a10.715 10.715 0 0 0 4.318 1.323.83.83 0 0 1-.182 1.649 12.338 12.338 0 0 1-5.006-1.564 3.968 3.968 0 0 1-2.205-3.249c0-1.474 1.112-2.759 2.912-3.638a14.606 14.606 0 0 1 6.269-1.289 16.546 16.546 0 0 1 3.943.462l3.063-2.624c-.3-.1-.6-.207-.889-.317-3.6-1.379-5.831-3.381-5.831-5.674 0-1.534.952-2.923 2.645-4.082a19.048 19.048 0 0 1 5.97-2.473v-.568a6.559 6.559 0 0 1 5.681-6.482 5.991 5.991 0 0 1-1.41-3.862V934a3.744 3.744 0 0 1 3.738-3.74h4.572a3.744 3.744 0 0 1 3.736 3.74v5.564a6.006 6.006 0 0 1-1.408 3.862 6.551 6.551 0 0 1 5.678 6.482v.568a19.412 19.412 0 0 1 5.964 2.495c1.687 1.16 2.651 2.539 2.651 4.06 0 2.293-2.227 4.3-5.831 5.675-.286.109-.581.216-.886.316l3.064 2.624a16.528 16.528 0 0 1 3.943-.461 14.588 14.588 0 0 1 6.265 1.288c1.8.879 2.913 2.164 2.913 3.638a3.962 3.962 0 0 1-2.206 3.249 12.308 12.308 0 0 1-5 1.564.83.83 0 1 1-.182-1.649 10.7 10.7 0 0 0 4.314-1.323c.886-.547 1.414-1.191 1.414-1.841 0-.789-.754-1.552-1.977-2.153a12.919 12.919 0 0 0-5.539-1.112 13.113 13.113 0 0 0-5.543 1.112c-1.222.6-1.976 1.364-1.976 2.153 0 .65.527 1.295 1.414 1.841a10.7 10.7 0 0 0 4.314 1.323.83.83 0 1 1-.183 1.649 12.3 12.3 0 0 1-5-1.564 3.961 3.961 0 0 1-2.206-3.249c0-1.474 1.112-2.759 2.912-3.638.154-.079.318-.151.481-.224l-3.117-2.664a37.584 37.584 0 0 1-5.26.939c-1.4.151-2.812.233-4.2.258v6.931a14.15 14.15 0 0 1 5.436 1.27c1.8.883 2.913 2.165 2.913 3.638s-1.112 2.756-2.913 3.639a15.888 15.888 0 0 1-12.533 0c-1.8-.883-2.916-2.165-2.916-3.639s1.115-2.755 2.916-3.638a14.113 14.113 0 0 1 5.435-1.27v-6.931a44.811 44.811 0 0 1-6.042-.5c-1.153-.176-2.294-.405-3.422-.694zm15.833 10.884a14.354 14.354 0 0 0-11.079 0c-1.222.6-1.976 1.363-1.976 2.152s.754 1.553 1.976 2.152a14.39 14.39 0 0 0 11.079 0c1.222-.6 1.98-1.363 1.98-2.152s-.758-1.552-1.98-2.152zm-1.174-36.639a6.647 6.647 0 0 1-5.624-1.48 4.915 4.915 0 0 1-3.1.716v2.5a4.361 4.361 0 0 0 8.722 0zm-8.722-2.435a3.24 3.24 0 0 0 2.648-.761.83.83 0 0 1 1.169.085 4.988 4.988 0 0 0 4.9 1.43V934a2.081 2.081 0 0 0-2.074-2.077h-4.571a2.079 2.079 0 0 0-2.076 2.077zm1.828 9.63l-1.225.006a4.893 4.893 0 0 0-4.874 4.877v12.363c.9.189 1.838.353 2.822.485v-9.631a.831.831 0 1 1 1.662 0v9.816c1.329.122 2.718.185 4.148.185s2.818-.063 4.147-.185v-9.816a.831.831 0 1 1 1.662 0v9.631c.984-.132 1.93-.3 2.822-.485v-12.363a4.893 4.893 0 0 0-4.874-4.877h-1.24a5.982 5.982 0 0 1-5.05-.006zm-7.761 16.841v-9.67a16.765 16.765 0 0 0-5.036 2.127c-1.226.842-1.914 1.766-1.914 2.712 0 1.533 1.816 2.994 4.757 4.122.679.261 1.411.5 2.193.713zm20.587 0c.782-.216 1.518-.452 2.193-.713 2.941-1.128 4.76-2.589 4.76-4.122 0-.927-.7-1.848-1.926-2.69a17.078 17.078 0 0 0-5.027-2.146zm0 0" transform="translate(-531.702 -902.191)"/>
            </g>
            <g>
                <path fill="#e34" d="M579.407 972.991a14.056 14.056 0 0 0-5.44-1.27v-6.93h-1.66v6.93a14.065 14.065 0 0 0-5.441 1.27c-1.8.88-2.909 2.16-2.909 3.63s1.11 2.76 2.909 3.64a15.884 15.884 0 0 0 12.541 0c1.8-.88 2.91-2.16 2.91-3.64s-1.11-2.75-2.91-3.63zm-.73 5.79a14.383 14.383 0 0 1-11.081 0c-1.219-.6-1.98-1.37-1.98-2.16s.761-1.55 1.98-2.15a14.383 14.383 0 0 1 11.081 0c1.22.6 1.98 1.37 1.98 2.15s-.757 1.56-1.98 2.16z" transform="translate(-531.702 -902.191)"/>
            </g>
        </g>
    </g>
</svg>
