<svg xmlns="http://www.w3.org/2000/svg" width="55.215" height="37.684" viewBox="0 0 55.215 37.684">
    <defs>
        <style>
            .cls-1{fill:#5b86ba}.cls-2{fill:#f2fafb}
        </style>
    </defs>
    <g id="Group_179" transform="translate(-1311.138 -2908.558)">
        <g id="Group_178">
            <path id="Path_545" d="M1366.344 2918.638v17.384c-.252.014-.5.04-.754.04h-53.689c-.251 0-.5-.026-.754-.04v-17.384c.252-.014.5-.04.754-.04h53.689c.251.002.503.026.754.04zm-11.638 1.531a2.521 2.521 0 0 0-.376-.1h-13.865a.816.816 0 0 0-.583.161c-.694.628-1.485 1.137-2.2 1.737-1.532 1.294-3.143 2.486-4.7 3.75-.146.118-.3.378-.51.248-.182-.111-.1-.379-.1-.579 0-1.563-.013-3.126.019-4.689.011-.523-.127-.735-.687-.732q-4.932.029-9.864 0c-.5 0-.62.188-.616.655q.048 6.655.055 13.311c0 .467.158.585.6.583q4.863-.021 9.727 0c.522 0 .665-.184.661-.686-.021-2.138-.008-4.276 0-6.414 0-.2-.1-.47.1-.568.228-.108.346.166.481.306 2.136 2.224 4.275 4.445 6.392 6.686a1.492 1.492 0 0 0 1.195.524c4.806-.021 9.612-.017 14.418-.024.147 0 .341.107.431-.09.1-.225-.1-.315-.235-.433q-1.227-1.05-2.446-2.108c-1.816-1.573-3.623-3.157-5.45-4.716-.437-.372-.548-.614-.007-1.01 1.4-1.029 2.773-2.106 4.152-3.169 1.102-.848 2.202-1.704 3.408-2.643z" class="cls-1"/>
            <path id="Path_546" d="M1366.344 2936.436c0 3.124-.005 6.249.007 9.373 0 .323-.045.433-.412.433q-27.193-.018-54.387 0c-.367 0-.413-.11-.412-.433.012-3.124.007-6.249.007-9.373.228.015.456.042.684.043h53.829c.228-.001.456-.028.684-.043zm-20.5 6.386c-1.281.081-2.553-.307-3.834.284a3 3 0 0 1-2.9-.254.629.629 0 0 1-.356-.689c.086-.275.4-.146.611-.147 2.067-.011 4.134-.022 6.2 0 .505 0 .593-.2.493-.621a2.74 2.74 0 0 0-1.919-1.994 9.938 9.938 0 0 0-6.746.083 2.747 2.747 0 0 0-1.427 1.037c-.254.391-.656.792-.5 1.294a2.972 2.972 0 0 0 1.845 2.078 10.859 10.859 0 0 0 6.765.127 3.227 3.227 0 0 0 1.767-1.198zm-30.071-.92h.073c0 .764-.3 1.8.08 2.22.424.467 1.475.1 2.25.144.454.026.538-.188.523-.579-.024-.6-.01-1.2-.006-1.792.008-1.083.38-1.535 1.451-1.71a5.543 5.543 0 0 1 1.1-.058c1.3.05 1.73.531 1.76 1.845.016.724-.336 1.737.149 2.1s1.453.1 2.207.131c.379.017.538-.106.523-.508-.028-.734-.038-1.471-.007-2.2a2 2 0 0 0-1.313-2.054 6.489 6.489 0 0 0-5.282-.013c-.253.1-.658.636-.782-.148-.006-.04-.207-.068-.318-.069q-1.068-.007-2.137.005c-.17 0-.316-.037-.291.289.06.79.019 1.595.019 2.395zm44.766 2.4v.016h1.446c.261 0 .633-.059.529-.339s.168-.86-.526-.835c-.446.017-1.03.217-1.323-.113s-.086-.921-.1-1.4c-.014-.5-.159-1.122.075-1.48.268-.409.933-.126 1.422-.15.376-.019.45-.178.461-.51.011-.374-.144-.487-.489-.461-.228.018-.462-.026-.687.006-.562.079-.815-.121-.72-.705.075-.465-.1-.668-.6-.633a17.508 17.508 0 0 1-1.79.008c-.392-.012-.642.085-.565.532.12.7-.21.905-.841.794-.576-.1-.635.228-.61.68.033.594.482.4.767.383.53-.034.734.124.7.68a20.333 20.333 0 0 0 0 2.065 1.343 1.343 0 0 0 1.408 1.452c.476.038.96.008 1.442.008z" class="cls-1"/>
            <path id="Path_547" d="M1311.147 2918.224c0-3.081.007-6.163-.009-9.244 0-.345.078-.423.423-.422q27.184.013 54.369 0c.345 0 .425.077.423.422-.016 3.081-.009 6.163-.009 9.244-.228-.015-.456-.042-.684-.042h-53.829c-.231-.001-.456.027-.684.042zm49.939-7.531c-.126-.573-.277-.844-.792-.836-1.677.025-3.355 0-5.033 0-.156 0-.391-.045-.422.135a1.665 1.665 0 0 0 .085 1.332c.308.405.4 1.061 1.142 1.039 1.149-.035 2.3.02 3.447-.026.6-.024.909.173.966.863-1.195 0-2.393-.091-3.571.024a2.508 2.508 0 0 1-2.732-1.333.862.862 0 0 0-.816-.532c-.78.028-1.563.025-2.344.007-.4-.01-.516.144-.506.528.023.9-.026 1.794.021 2.688.028.541-.17.653-.666.637-1.079-.034-2.16-.007-3.241-.008-1.487 0-1.474 0-1.4-1.477.018-.368.149-.469.495-.463.919.016 1.839 0 2.758 0 1.337 0 1.32 0 1.314-1.357 0-.417-.117-.558-.543-.554q-2.9.029-5.792 0c-.416 0-.563.13-.557.553q.031 2.136 0 4.274c-.007.435.155.538.562.536q4.275-.022 8.55 0c.388 0 .531-.1.517-.5-.025-.744-.007-1.49-.007-2.295.617.193 1 .629 1.6.618 2.3-.039 4.6-.022 6.9-.02.906 0 1.136-.84 1.617-1.337.326-.337-.207-.623-.33-.94a1.255 1.255 0 0 0-1.446-.812c-1.1.065-2.206.024-3.309.01-.239 0-.574.139-.6-.331-.031-.5.323-.42.6-.423 1.147-.007 2.294 0 3.533 0zm-43.04 2.3c.289-.661.549-1.248.8-1.839.511-1.191.509-1.161-.815-1.2a.966.966 0 0 0-1.135.705 9.094 9.094 0 0 1-.781 1.609 1.015 1.015 0 0 0 .147 1.446 7.214 7.214 0 0 1 .909 1.123.882.882 0 0 0 .807.406q8.414-.012 16.826 0c.454 0 .535-.178.524-.57-.023-.78-.009-1.562-.01-2.344 0-.871 0-.843-.864-.84-.424 0-.593.139-.563.549a1.053 1.053 0 0 1-.017.275c-.051.266.065.657-.433.6-.446-.047-.324-.408-.292-.633.1-.726-.26-.807-.869-.811s-.866.167-.753.778c.122.657-.188.791-.793.787-4.023-.024-8.045-.013-12.068-.015-.177.005-.357-.011-.62-.019zm21.082 1.539c1.576 0 1.576 0 1.537-1.575a2.531 2.531 0 0 1-.008-.275c.029-.353-.129-.494-.481-.485-.549.015-1.1 0-1.649 0-.88 0-.88 0-.875.883.009 1.451.009 1.451 1.476 1.454zm-15.782-4.5a1.669 1.669 0 0 1-.273 0c-.289-.049-.462-.011-.468.359-.007.389.212.385.478.379.251-.006.5 0 .751 0s.276-.174.279-.37-.043-.362-.289-.364c-.159-.009-.319-.007-.478-.007zm11.182.789c.205-.216.736.217.748-.4.013-.66-.521-.33-.809-.371-.266-.038-.688-.179-.68.373.013.577.468.231.741.395zm-13.661-.747a1.95 1.95 0 0 1-.277.012c-.276-.016-.525.018-.5.373.024.307.265.319.509.31s.459 0 .689-.005c.129 0 .3.03.327-.158.019-.154.043-.366-.04-.46-.161-.188-.414-.146-.708-.075zm33.5 6.79c.266-.135.757.224.789-.378.027-.508-.382-.389-.631-.356-.3.04-.815-.263-.855.357-.038.584.457.246.696.374zm2.306-.009c.257-.119.76.234.755-.387-.005-.552-.459-.336-.72-.341s-.7-.219-.73.331c-.032.578.429.3.694.394z" class="cls-1"/>
            <path id="Path_548" d="M1311.147 2918.224c.228-.015.456-.043.684-.043h53.829c.228 0 .456.027.684.042v.414c-.251-.014-.5-.04-.754-.04h-53.689c-.251 0-.5.026-.754.04z" class="cls-2"/>
            <path id="Path_549" d="M1366.344 2936.436c-.228.015-.456.042-.684.042h-53.829c-.228 0-.456-.028-.684-.043v-.414c.252.014.5.04.754.04h53.689c.251 0 .5-.026.754-.04z" class="cls-2"/>
            <path id="Path_550" d="M1354.706 2920.169c-1.209.939-2.3 1.8-3.405 2.643-1.379 1.063-2.748 2.14-4.152 3.169-.541.4-.43.638.007 1.01 1.827 1.559 3.634 3.143 5.45 4.716q1.219 1.058 2.446 2.108c.139.118.338.208.235.433-.09.2-.284.089-.431.09-4.806.007-9.612 0-14.418.024a1.492 1.492 0 0 1-1.195-.524c-2.117-2.241-4.256-4.462-6.392-6.686-.135-.14-.253-.414-.481-.306-.206.1-.1.373-.1.568-.009 2.138-.022 4.276 0 6.414 0 .5-.139.689-.661.686q-4.863-.027-9.727 0c-.438 0-.6-.116-.6-.583q0-6.656-.055-13.311c0-.467.12-.657.616-.655q4.932.025 9.864 0c.56 0 .7.209.687.732-.032 1.563-.02 3.126-.019 4.689 0 .2-.077.468.1.579.214.13.364-.13.51-.248 1.554-1.264 3.165-2.456 4.7-3.75.711-.6 1.5-1.109 2.2-1.737a.816.816 0 0 1 .583-.161q6.933-.006 13.865 0a2.521 2.521 0 0 1 .373.1z" class="cls-2"/>
            <path id="Path_551" d="M1345.843 2942.822a3.227 3.227 0 0 1-1.769 1.2 10.859 10.859 0 0 1-6.765-.127 2.972 2.972 0 0 1-1.845-2.078c-.157-.5.245-.9.5-1.294a2.747 2.747 0 0 1 1.427-1.037 9.938 9.938 0 0 1 6.746-.083 2.74 2.74 0 0 1 1.919 1.994c.1.42.012.626-.493.621-2.067-.023-4.134-.012-6.2 0-.211 0-.525-.128-.611.147a.629.629 0 0 0 .356.689 3 3 0 0 0 2.9.254c1.282-.593 2.554-.208 3.835-.286zm-2.91-1.709a1.762 1.762 0 0 0-1.841-1.067 2.241 2.241 0 0 0-2.282 1.067z" class="cls-2"/>
            <path id="Path_552" d="M1315.772 2941.9c0-.8.041-1.607-.02-2.405-.025-.326.121-.287.291-.289q1.07-.014 2.137-.005c.111 0 .312.029.318.069.124.784.529.251.782.148a6.489 6.489 0 0 1 5.282.013 2 2 0 0 1 1.313 2.054c-.031.734-.021 1.471.007 2.2.015.4-.144.525-.523.508-.754-.032-1.712.236-2.207-.131s-.133-1.373-.149-2.1c-.03-1.314-.459-1.795-1.76-1.845a5.543 5.543 0 0 0-1.1.058c-1.071.175-1.443.627-1.451 1.71 0 .6-.018 1.2.006 1.792.015.391-.069.6-.523.579-.775-.046-1.826.323-2.25-.144-.38-.42-.08-1.456-.08-2.22z" class="cls-2"/>
            <path id="Path_553" d="M1360.538 2944.3c-.482 0-.966.026-1.446-.006a1.343 1.343 0 0 1-1.408-1.452 20.333 20.333 0 0 1 0-2.065c.037-.556-.167-.714-.7-.68-.285.019-.734.211-.767-.383-.025-.452.034-.782.61-.68.631.111.961-.1.841-.794-.077-.447.173-.544.565-.532a17.508 17.508 0 0 0 1.79-.008c.5-.035.676.168.6.633-.1.584.158.784.72.705.225-.032.459.012.687-.006.345-.026.5.087.489.461-.011.332-.085.491-.461.51-.489.024-1.154-.259-1.422.15-.234.358-.089.977-.075 1.48.012.475-.205 1.055.1 1.4s.877.13 1.323.113c.694-.025.424.557.526.835s-.268.339-.529.339h-1.446z" class="cls-2"/>
            <path id="Path_554" d="M1361.086 2910.693c-1.239 0-2.387-.007-3.535 0-.274 0-.628-.08-.6.423.028.47.363.328.6.331 1.1.014 2.209.055 3.309-.01a1.255 1.255 0 0 1 1.446.812c.123.317.656.6.33.94-.481.5-.711 1.338-1.617 1.337-2.3 0-4.6-.019-6.9.02-.608.011-.988-.425-1.6-.618 0 .8-.018 1.551.007 2.295.014.4-.129.5-.517.5q-4.275-.022-8.55 0c-.407 0-.569-.1-.562-.536q.031-2.136 0-4.274c-.006-.423.141-.557.557-.553q2.9.024 5.792 0c.426 0 .541.137.543.554.006 1.362.023 1.361-1.314 1.357-.919 0-1.839.012-2.758 0-.346-.006-.477.095-.495.463-.075 1.477-.088 1.477 1.4 1.477 1.081 0 2.162-.026 3.241.008.5.016.694-.1.666-.637-.047-.894 0-1.792-.021-2.688-.01-.384.111-.538.506-.528.781.018 1.564.021 2.344-.007a.862.862 0 0 1 .816.532 2.508 2.508 0 0 0 2.732 1.333c1.178-.115 2.376-.024 3.571-.024-.057-.69-.369-.887-.966-.863-1.147.046-2.3-.009-3.447.026-.746.022-.834-.634-1.142-1.039a1.665 1.665 0 0 1-.085-1.332c.031-.18.266-.135.422-.135 1.678 0 3.356.022 5.033 0 .517-.008.668.263.794.836z" class="cls-2"/>
            <path id="Path_555" d="M1318.046 2913c.263.013.443.029.623.029 4.023 0 8.045-.009 12.068.015.6 0 .915-.13.793-.787-.113-.611.149-.783.753-.778s.972.085.869.811c-.032.225-.154.586.292.633.5.052.382-.339.433-.6a1.053 1.053 0 0 0 .017-.275c-.03-.41.139-.548.563-.549.863 0 .863-.031.864.84 0 .782-.013 1.564.01 2.344.011.392-.07.571-.524.57q-8.412-.021-16.826 0a.882.882 0 0 1-.807-.406 7.214 7.214 0 0 0-.909-1.123 1.015 1.015 0 0 1-.147-1.446 9.094 9.094 0 0 0 .781-1.609.966.966 0 0 1 1.135-.705c1.324.043 1.326.013.815 1.2-.254.583-.514 1.17-.803 1.836z" class="cls-2"/>
            <path id="Path_556" d="M1339.128 2914.534c-1.467 0-1.467 0-1.476-1.449-.005-.88-.005-.88.875-.883.55 0 1.1.012 1.649 0 .352-.009.51.132.481.485a2.531 2.531 0 0 0 .008.275c.035 1.575.035 1.575-1.537 1.572z" class="cls-2"/>
            <path id="Path_557" d="M1323.346 2910.029h.478c.246 0 .292.158.289.364s-.018.371-.279.37-.5 0-.751 0c-.266.006-.485.01-.478-.379.006-.37.179-.408.468-.359a1.669 1.669 0 0 0 .273.004z" class="cls-2"/>
            <path id="Path_558" d="M1334.528 2910.818c-.273-.164-.732.187-.741-.4-.008-.552.414-.411.68-.373.288.041.822-.289.809.371-.012.619-.543.184-.748.402z" class="cls-2"/>
            <path id="Path_559" d="M1320.867 2910.071c.294-.071.547-.113.71.072.083.094.059.306.04.46-.022.188-.2.154-.327.158-.23.008-.46 0-.689.005s-.485 0-.509-.31c-.027-.355.222-.389.5-.373a1.95 1.95 0 0 0 .275-.012z" class="cls-2"/>
            <path id="Path_560" d="M1354.366 2916.861c-.239-.128-.734.21-.7-.377.04-.62.551-.317.855-.357.249-.033.658-.152.631.356-.029.602-.52.243-.786.378z" class="cls-2"/>
            <path id="Path_561" d="M1356.672 2916.852c-.265-.094-.726.184-.695-.4.03-.55.466-.337.73-.331s.715-.211.72.341c.005.624-.498.271-.755.39z" class="cls-2"/>
            <path id="Path_562" d="M1342.933 2941.113h-4.123a2.241 2.241 0 0 1 2.282-1.067 1.762 1.762 0 0 1 1.841 1.067z" class="cls-1"/>
        </g>
    </g>
</svg>
