<svg xmlns="http://www.w3.org/2000/svg" width="88.669" height="79.481" viewBox="0 0 88.669 79.481">
    <defs>
        <style>
            .cls-2{fill:#081f3b}.cls-3{fill:#e34}
        </style>
    </defs>
    <g id="Group_191" transform="translate(-2959.126 -2493.108)">
        <g id="Group_190">
            <g id="Group_187">
                <g id="Group_186">
                    <path id="Path_629" fill="#f6fbfe" d="M2960.959 2523.951c8.274 15.193 6.084 29.913 10.07 37.235s16.57 20.406 50.252 2.066 27.361-41.718 22.974-49.771c-20.533-37.712-97.951-16.439-83.3 10.47zm0 0"/>
                </g>
            </g>
            <g id="Group_189">
                <g id="Group_188">
                    <path id="Path_630" d="M3018.772 2528.015v-.032a1.46 1.46 0 0 0-.032-.158 1.476 1.476 0 0 0-.05-.144c-.005-.014-.012-.027-.018-.04-.015-.035-.032-.068-.05-.1l-.025-.044-.012-.023c-.02-.031-.041-.06-.063-.089l-.011-.016a1.2 1.2 0 0 0-.1-.119l-.022-.021a1.256 1.256 0 0 0-.1-.088l-.026-.02a1.721 1.721 0 0 0-.145-.095l-19.3-10.969 11.111-7 18.628 10.589-7.845 4.939a1.31 1.31 0 1 0 1.4 2.217l9.7-6.1a1.31 1.31 0 0 0-.05-2.247l-21.212-12.058a1.309 1.309 0 0 0-1.345.03l-13.633 8.573h-.008l-6.8 4.285-.01.006-13.627 8.581a1.31 1.31 0 0 0 .051 2.247l21.212 12.057a1.3 1.3 0 0 0 1.345-.03l9.7-6.106a1.31 1.31 0 0 0-1.4-2.217l-9.033 5.688-18.628-10.588 11.111-7 19.868 11.293v14.957a1.308 1.308 0 0 0 2.007 1.108l6.814-4.29a1.31 1.31 0 0 0 .612-1.109V2528.14a.935.935 0 0 0-.009-.13zm-6.8 17.79v-13.346a1.311 1.311 0 0 0-.663-1.139L2992 2520.344l4.3-2.706 18.628 10.588-1.631 1.027a1.31 1.31 0 0 0 1.4 2.217l1.475-.929v12.623zm0 0" class="cls-2"/>
                    <path id="Path_631" d="M3030.4 2523.719l-9.7 6.106a1.31 1.31 0 0 0 1.4 2.217l9.7-6.106a1.31 1.31 0 0 0-1.4-2.217zm0 0" class="cls-3"/>
                    <path id="Path_632" d="M3006.032 2539.065l-9.034 5.688-20.53-11.67a1.31 1.31 0 0 0-1.294 2.278l21.212 12.057a1.31 1.31 0 0 0 1.345-.03l9.7-6.107a1.31 1.31 0 0 0-1.4-2.216zm0 0" class="cls-2"/>
                    <path id="Path_633" d="M3030.4 2528.959l-9.7 6.106a1.31 1.31 0 1 0 1.4 2.216l9.7-6.1a1.31 1.31 0 1 0-1.4-2.217zm0 0" class="cls-3"/>
                    <path id="Path_634" d="M3006.032 2544.3l-9.034 5.688-20.53-11.669a1.31 1.31 0 0 0-1.294 2.277l21.212 12.058a1.307 1.307 0 0 0 1.345-.031l9.7-6.106a1.31 1.31 0 0 0-1.4-2.217zm0 0" class="cls-2"/>
                    <path id="Path_635" d="M3030.4 2534.2l-9.7 6.1a1.31 1.31 0 0 0 1.4 2.217l9.7-6.106a1.309 1.309 0 1 0-1.4-2.216zm0 0" class="cls-3"/>
                    <path id="Path_636" d="M3006.032 2549.544l-9.034 5.688-20.53-11.67a1.31 1.31 0 0 0-1.294 2.278l21.212 12.057a1.3 1.3 0 0 0 1.345-.03l9.7-6.106a1.31 1.31 0 0 0-1.4-2.217zm0 0" class="cls-2"/>
                </g>
            </g>
        </g>
        <path id="Path_637" fill="#a4aec0" d="M2977.108 2506.23a3.752 3.752 0 1 1-3.481 4.005 3.758 3.758 0 0 1 3.481-4.005zm.349 4.99a1.25 1.25 0 1 0-1.335-1.16 1.251 1.251 0 0 0 1.335 1.16zm0 0"/>
    </g>
</svg>
