<svg xmlns="http://www.w3.org/2000/svg" width="87.512" height="96.597" viewBox="0 0 87.512 96.597">
    <defs>
        <style>
            .cls-3{fill:#081f3b}
        </style>
    </defs>
    <g id="Group_65" transform="translate(-1308.885 -901.572)">
        <g id="Group_63">
            <path id="Path_374" fill="#eff4fa" d="M1348.651 995.108c15.009-11.043 31.037-10.849 38.271-16.169s19.365-20.656-5.113-53.932-48.506-23.125-56.463-17.27c-37.257 27.4-3.28 106.93 23.305 87.371zm0 0"/>
        </g>
        <path id="Path_375" fill="#a4aec0" d="M1347.733 919.14a4.041 4.041 0 1 1-3.027-4.848 4.046 4.046 0 0 1 3.027 4.848zm-5.249-1.214a1.347 1.347 0 1 0 1.615-1.009 1.349 1.349 0 0 0-1.615 1.009zm0 0"/>
        <g id="Group_64">
            <path id="Path_376" d="M1371.288 968.94l-3.972-3.246a1.09 1.09 0 0 0-1.379 1.688l1.574 1.286a.014.014 0 0 1-.009.026h-33.586a.041.041 0 0 1-.041-.041v-31.438a.015.015 0 0 1 .026-.01l1.286 1.575a1.089 1.089 0 0 0 1.7-1.356c-.006-.009-.018-.013-.018-.022l-3.245-3.971a1.088 1.088 0 0 0-1.687 0l-3.237 3.969a1.089 1.089 0 1 0 1.687 1.379l1.286-1.574a.016.016 0 0 1 .027.01v32.568a1.091 1.091 0 0 0 1.089 1.09h34.711a.014.014 0 0 1 .009.026l-1.574 1.285a1.09 1.09 0 0 0 1.36 1.7c.007-.005.019-.008.019-.016l3.972-3.246a1.089 1.089 0 0 0 0-1.687z" class="cls-3"/>
            <path id="Path_377" fill="#e34" d="M1360.852 954.723a.944.944 0 0 0-1.88.178l.509 5.372c0 .03-.023.052-.051.064a3.234 3.234 0 1 0 1.969-.194.053.053 0 0 1-.038-.049zm1.209 8.58a1.345 1.345 0 1 1-1.345-1.345 1.347 1.347 0 0 1 1.345 1.342z"/>
            <path id="Path_378" d="M1340.839 948.735a3.232 3.232 0 0 0 2.83-4.8.065.065 0 0 1 0-.075l1.826-1.944a.057.057 0 0 1 .069-.01 3.239 3.239 0 0 0 2.388.155.074.074 0 0 1 .087.012l1.062 1.452a.073.073 0 0 1-.014.084 3.235 3.235 0 1 0 5.521.452.06.06 0 0 1 .009-.07l2.2-2.144a.072.072 0 0 1 .083 0 3.222 3.222 0 0 0 .8.3c.029.006.058.023.061.052l.581 6.142a.945.945 0 0 0 .939.856c.03 0 .06 0 .09-.005a.945.945 0 0 0 .852-1.029l-.582-6.142c0-.029.023-.052.051-.063a3.234 3.234 0 1 0-4.183-1.53.062.062 0 0 1-.008.07l-2.2 2.143a.061.061 0 0 1-.073.005 3.232 3.232 0 0 0-2.516-.218.076.076 0 0 1-.087-.013l-1.061-1.452c-.019-.025-.005-.058.013-.084a3.235 3.235 0 1 0-5.455-.326.064.064 0 0 1 0 .075l-1.825 1.944a.062.062 0 0 1-.07.011 3.234 3.234 0 1 0-1.388 6.154zm17.576-11.092a1.345 1.345 0 1 1-1.346 1.345 1.346 1.346 0 0 1 1.346-1.345zm-6.7 6.513a1.345 1.345 0 1 1-1.345 1.345 1.346 1.346 0 0 1 1.346-1.345zm-4.76-6.513a1.345 1.345 0 1 1-1.345 1.345 1.349 1.349 0 0 1 1.346-1.345zm-6.117 6.513a1.345 1.345 0 1 1-1.345 1.345 1.347 1.347 0 0 1 1.346-1.345z" class="cls-3"/>
            <path id="Path_379" d="M1369.582 952.608h1.017a1.089 1.089 0 0 0 0-2.179h-1.017a1.089 1.089 0 1 0 0 2.179z" class="cls-3"/>
            <path id="Path_380" d="M1364.933 952.608h1.017a1.089 1.089 0 1 0 0-2.179h-1.017a1.089 1.089 0 0 0 0 2.179z" class="cls-3"/>
            <path id="Path_381" d="M1356.653 950.429h-1.017a1.089 1.089 0 1 0 0 2.179h1.017a1.089 1.089 0 0 0 0-2.179z" class="cls-3"/>
            <path id="Path_382" d="M1341.689 950.429a1.089 1.089 0 0 0 0 2.179h1.017a1.089 1.089 0 1 0 0-2.179z" class="cls-3"/>
            <path id="Path_383" d="M1360.285 950.429a1.089 1.089 0 1 0 0 2.179h1.016a1.089 1.089 0 0 0 0-2.179z" class="cls-3"/>
            <path id="Path_384" d="M1337.041 950.429a1.089 1.089 0 1 0 0 2.179h1.016a1.089 1.089 0 1 0 0-2.179z" class="cls-3"/>
            <path id="Path_385" d="M1346.338 950.429a1.089 1.089 0 0 0 0 2.179h1.017a1.089 1.089 0 0 0 0-2.179z" class="cls-3"/>
            <path id="Path_386" d="M1350.987 950.429a1.089 1.089 0 1 0 0 2.179H1352a1.089 1.089 0 0 0 0-2.179z" class="cls-3"/>
        </g>
    </g>
</svg>
