<svg xmlns="http://www.w3.org/2000/svg" width="49.451" height="48.525" viewBox="white">
    <defs>
        <style>
            .cls-1{fill:white}.cls-2{fill:white}
        </style>
    </defs>
    <g id="Group_922" transform="translate(-1037.117 -928.746)">
        <g id="Group_921">
            <g id="Group_920">
                <path id="Path_2313" d="M1084.473 949.042a19.34 19.34 0 0 0-7.3-7.9l1.081-3.283.947.312a1.8 1.8 0 0 0 2.264-1.143l.852-2.585a1.8 1.8 0 0 0-1.144-2.264l-3.468-1.142a.725.725 0 1 0-.453 1.377l3.469 1.141a.349.349 0 0 1 .219.435l-.851 2.586a.349.349 0 0 1-.436.219l-10.167-3.348a.346.346 0 0 1-.217-.435l.851-2.585a.348.348 0 0 1 .435-.22l3.606 1.188a.724.724 0 0 0 .453-1.376l-3.614-1.183a1.8 1.8 0 0 0-2.264 1.143l-.851 2.585a1.8 1.8 0 0 0 1.14 2.264l.948.312-1.082 3.281a19.272 19.272 0 0 0-4.461.1.724.724 0 1 0 .2 1.434 18.022 18.022 0 1 1-14.644 12.215 18.1 18.1 0 0 1 11.486-11.48.724.724 0 1 0-.454-1.376 19.528 19.528 0 0 0-3.544 1.577h-5.8a.724.724 0 1 0 0 1.448h3.612a19.262 19.262 0 0 0-6.432 8.691h-5.064a.725.725 0 1 0 0 1.449h4.589a19.3 19.3 0 0 0-.46 8.689h-7.738a.725.725 0 0 0 0 1.449h8.051a19.684 19.684 0 0 0 4.836 8.692h-6.511a.724.724 0 1 0 0 1.448h8.065a19.468 19.468 0 0 0 29.85-23.717zm-14.117-10.426l1-3.023 5.521 1.818-1 3.024a19.831 19.831 0 0 0-5.522-1.819zm0 0" class="cls-1"/>
            </g>
            <path id="Path_2314" d="M1037.842 942.341h9.007a.724.724 0 0 0 0-1.449h-9.007a.724.724 0 1 0 0 1.449zm0 0" class="cls-2"/>
            <path id="Path_2315" d="M1040.738 945.962a.725.725 0 0 0 0 1.449h6.808a.725.725 0 1 0 0-1.449zm0 0" class="cls-2"/>
            <path id="Path_2316" d="M1043.66 956.824a.724.724 0 0 0-.724-.724h-5.094a.725.725 0 1 0 0 1.449h5.094a.725.725 0 0 0 .724-.725zm0 0" class="cls-2"/>
            <path id="Path_2317" d="M1046.557 966.965a.725.725 0 0 0-.724-.725h-3.548a.725.725 0 0 0 0 1.449h3.548a.724.724 0 0 0 .724-.724zm0 0" class="cls-2"/>
            <path id="Path_2318" d="M1052.539 953.014a15.327 15.327 0 0 0 29.116 9.589l.006-.018.006-.019a15.35 15.35 0 0 0-14.362-20.091 15.149 15.149 0 0 0-4.624.652 15.437 15.437 0 0 0-2.487 1 15.229 15.229 0 0 0-7.655 8.89zm27.956 8.414l-10.265-3.381a3.137 3.137 0 0 0-1.482-2.937l3.373-10.24a13.9 13.9 0 0 1 8.374 16.558zm-12.63-2.141a1.686 1.686 0 1 1-.233-3.108 1.685 1.685 0 0 1 1.073 2.128 1.669 1.669 0 0 1-.842.978zm-.782-15.365a13.87 13.87 0 0 1 3.661.495l-3.372 10.24a3.114 3.114 0 0 0-1.679.325 3.2 3.2 0 0 0-.5.316l-4.832-4.4a.724.724 0 0 0-.976 1.071l4.9 4.462a3.157 3.157 0 0 0-.152.375 3.134 3.134 0 0 0 2 3.958 3.188 3.188 0 0 0 .632.137L1067 963a.724.724 0 0 0 .719.64.827.827 0 0 0 .085-.005.724.724 0 0 0 .635-.8l-.247-2.114a3.391 3.391 0 0 0 .323-.14 3.125 3.125 0 0 0 1.259-1.157l10.268 3.382a13.77 13.77 0 0 1-6.041 7.04l-.809-1.6a.724.724 0 0 0-1.293.652l.81 1.6a13.761 13.761 0 0 1-9.262.7l.564-1.711a.725.725 0 0 0-1.376-.454l-.564 1.712a13.823 13.823 0 0 1-7.028-6.067l1.6-.8a.724.724 0 0 0-.653-1.293l-1.595.8a13.818 13.818 0 0 1-.682-9.25l1.687.557a.724.724 0 0 0 .454-1.376l-1.685-.556a13.77 13.77 0 0 1 6.054-7.008l.794 1.57a.725.725 0 1 0 1.293-.654l-.792-1.566a13.783 13.783 0 0 1 5.564-1.178zm0 0" class="cls-1"/>
        </g>
    </g>
</svg>
