<svg xmlns="http://www.w3.org/2000/svg" width="137.831" height="30.76" viewBox="0 0 137.831 30.76">
    <defs>
        <style>
            .cls-1{fill:white}
        </style>
    </defs>
    <g id="Group_1602" transform="translate(-1067.663 -3746.716)">
        <path id="Path_3755" d="M1093.736 3775.11a9.362 9.362 0 0 1 0-.99v-8.759h-.023v-5.084c0-1.7-.006-3.391 0-5.088a.771.771 0 0 0-.59-.834c-1.025-.347-2.041-.724-3.055-1.1a2.388 2.388 0 0 0-1.372-.095c-3.182.657-6.367 1.285-9.551 1.924q-3.186.636-6.366 1.287c-1.476.3-2.955.593-4.425.914-.6.129-.657.238-.684.875-.006.141 0 .282 0 .424q.009 6.779.015 13.563c0 .189 0 .377.006.563a.577.577 0 0 0 .468.615c.318.077.64.162.961.224 1.2.227 2.41.43 3.611.669q7.964 1.587 15.923 3.194a2.136 2.136 0 0 0 1.244-.051c1.01-.388 2.023-.777 3.049-1.116a.964.964 0 0 0 .789-1.135zm-15.961-14.253a.645.645 0 0 1 .012-.135v-.006a.469.469 0 0 1 .026-.1.048.048 0 0 1 .009-.026.512.512 0 0 1 .047-.094.328.328 0 0 1 .065-.077.492.492 0 0 1 .1-.085.942.942 0 0 1 .094-.048.9.9 0 0 1 .254-.067l.07-.012c.068-.018.136-.041.2-.053 1.49-.215 2.978-.439 4.469-.639.53-.071.689.064.7.6q.03 1.9.015 3.809a.683.683 0 0 1-.142.512.339.339 0 0 1-.091.062.485.485 0 0 1-.089.032 1.116 1.116 0 0 1-.229.036 1.181 1.181 0 0 1-.148.009c-.8.02-1.6.006-2.4.006v.014h-2.4a.9.9 0 0 1-.117-.008.545.545 0 0 1-.106-.024.521.521 0 0 1-.095-.038.339.339 0 0 1-.05-.033.268.268 0 0 1-.029-.023.468.468 0 0 1-.159-.371c-.012-1.076-.012-2.157-.006-3.241zm-5.5 1.417c0-.224.006-.451.012-.675a.646.646 0 0 1 .153-.447.491.491 0 0 1 .185-.133.91.91 0 0 1 .26-.074q.9-.132 1.805-.256t1.809-.238c.424-.054.672.126.678.5q.035 1.542.012 3.088a.472.472 0 0 1-.3.5.71.71 0 0 1-.124.036 1.314 1.314 0 0 1-.226.023c-.607.021-1.217.006-1.827.006h-.147c-.554 0-1.111.012-1.668-.006h-.008a.618.618 0 0 1-.448-.165.384.384 0 0 1-.068-.085.735.735 0 0 1-.091-.371c-.016-.563-.019-1.134-.01-1.703zm4.917 7a.505.505 0 0 1-.649.542c-.874-.118-1.749-.236-2.624-.363l-.872-.132-.159-.027c-.048-.009-.092-.02-.133-.032l-.106-.035a.7.7 0 0 1-.094-.048.317.317 0 0 1-.077-.053.284.284 0 0 1-.085-.1.211.211 0 0 1-.033-.059.764.764 0 0 1-.032-.088 1.523 1.523 0 0 1-.041-.365c-.021-.846-.018-1.694 0-2.543.011-.486.188-.639.718-.657.566-.017 1.132 0 1.7 0v-.014c.516 0 1.037-.012 1.553 0a3.389 3.389 0 0 1 .389.026.894.894 0 0 1 .265.065.385.385 0 0 1 .115.071.064.064 0 0 1 .02.02.07.07 0 0 1 .021.021.308.308 0 0 1 .029.041.532.532 0 0 1 .074.2.792.792 0 0 1 .018.124c.006.044.009.092.011.142a.606.606 0 0 1 0 .076.814.814 0 0 1 0 .086c.018 1.028.012 2.068-.011 3.102zm6.649.883a.619.619 0 0 1-.124.413.41.41 0 0 1-.147.1.741.741 0 0 1-.348.024c-.789-.112-1.579-.221-2.368-.336s-1.577-.236-2.363-.357c-.059-.009-.112-.017-.159-.026s-.094-.021-.133-.033a.715.715 0 0 1-.141-.05.34.34 0 0 1-.1-.065.088.088 0 0 1-.042-.041.977.977 0 0 1-.129-.618c-.018-1.031-.021-2.063 0-3.094 0-.341.032-.536.15-.642a.228.228 0 0 1 .062-.044.423.423 0 0 1 .133-.05.768.768 0 0 1 .1-.021.962.962 0 0 1 .106-.012c.088-.008.188-.011.3-.014.748-.015 1.5 0 2.251 0v.006h1.287c.321 0 .642 0 .964.008.559.015.707.139.71.637.005 1.405.002 2.81-.012 4.215z" class="cls-1"/>
        <path id="Path_3756" d="M1117.707 3764.163q-.627 2.529-1.275 5.053c-.427 1.685-.852 3.37-1.3 5.049-.18.684-.26.719-.987.728-.866.009-.961-.056-1.149-.89q-.742-3.3-1.467-6.6c-.021-.091-.012-.188-.041-.277-.053-.156.005-.412-.286-.374-.156.024-.186.177-.218.309l-1.441 6.028c-.076.321-.138.645-.221.963-.2.781-.291.849-1.034.858-.872.011-.957-.03-1.158-.869q-1.156-4.866-2.294-9.737a2.5 2.5 0 0 1-.065-.415.412.412 0 0 1 .079-.26 1.287 1.287 0 0 1 1.676.363c.133.451.233.91.328 1.37.383 1.888.757 3.776 1.145 5.665.054.256.033.551.28.742.36-.079.36-.4.422-.657q.663-2.81 1.322-5.624c.086-.365.174-.73.283-1.09.089-.3.021-.71.4-.848a2.1 2.1 0 0 1 1.249-.006c.259.062.336.3.389.536.38 1.744.763 3.488 1.137 5.232.135.643.241 1.294.38 1.936.056.259.08.557.4.719.3-1.388.583-2.764.886-4.137q.411-1.856.861-3.706c.141-.589.253-.654.877-.671a3.461 3.461 0 0 1 .422.017c.342.03.493.237.4.593z" class="cls-1"/>
        <path id="Path_3757" d="M1160.179 3767.051a4.149 4.149 0 0 1-.173.824q-.924 3.108-1.859 6.214c-.23.759-.439.886-1.226.827a.717.717 0 0 1-.707-.568c-.377-1.311-.766-2.616-1.143-3.927-.088-.313-.109-.654-.427-.846a1.44 1.44 0 0 0-.424.863c-.366 1.261-.74 2.525-1.129 3.783a1.126 1.126 0 0 1-1.582.625.952.952 0 0 1-.344-.593c-.486-1.67-.975-3.337-1.456-5.008-.194-.677-.388-1.355-.556-2.038a.378.378 0 0 1 .35-.5 3.225 3.225 0 0 1 .563-.03c.536.015.66.086.792.6.289 1.14.545 2.286.819 3.429.109.457.221.911.348 1.361a.349.349 0 0 0 .189.165c.194.086.253-.094.288-.206.392-1.352.775-2.71 1.161-4.065.077-.271.138-.548.239-.81a1.018 1.018 0 0 1 1.434-.342 1.049 1.049 0 0 1 .295.622q.552 2.04 1.1 4.083c.085.318.114.657.462.833a2.718 2.718 0 0 0 .416-1.166c.288-1.238.574-2.472.889-3.7a.989.989 0 0 1 1.47-.755.41.41 0 0 1 .211.325z" class="cls-1"/>
        <path id="Path_3758" d="M1138.827 3769.085v-2.251c0-.8 0-1.6-.009-2.392 0-.33 0-.66-.032-.984a.459.459 0 0 0-.207-.336 1.466 1.466 0 0 0-1.228.018c-.265.147-.186.5-.188.781 0 .468.005.937 0 1.405 0 .424.006.846-.011 1.267-.021.527-.183.607-.719.368-.086-.038-.159-.1-.245-.135a3.027 3.027 0 0 0-3.821 1.154 5.344 5.344 0 0 0-.123 5.624 2.9 2.9 0 0 0 3.388 1.376 3.148 3.148 0 0 0 1.087-.625c.377-.288.388-.273.7.186a.923.923 0 0 0 1.187.351c.3-.157.271-.46.274-.74v-5.067zm-1.765 3.067a1.82 1.82 0 0 1-1.537 1.452 1.774 1.774 0 0 1-1.909-1.146 3.9 3.9 0 0 1 .076-3.411 1.75 1.75 0 0 1 1.7-1.052 1.831 1.831 0 0 1 1.626 1.361 5.694 5.694 0 0 1 .153 1.809 6.089 6.089 0 0 1-.109.987z" class="cls-1"/>
        <path id="Path_3759" d="M1174.986 3774.878a7.845 7.845 0 0 1-.987.109 6.488 6.488 0 0 1-1.947-.236c-.855-.259-.987-.5-.707-1.328.123-.366.253-.436.624-.339.454.118.905.244 1.358.356a2.627 2.627 0 0 0 1.529-.106 1.591 1.591 0 0 0 .666-2.7 4.551 4.551 0 0 0-1.04-.71c-.409-.233-.845-.41-1.267-.622a4.574 4.574 0 0 1-1.113-.854 2.928 2.928 0 0 1 .786-4.669 4.554 4.554 0 0 1 3.83-.212.872.872 0 0 1 .177 1.4.473.473 0 0 1-.528.05 3.768 3.768 0 0 0-1.667-.206 2.4 2.4 0 0 0-.56.059 1.417 1.417 0 0 0-.683 2.427 4.493 4.493 0 0 0 1.432.884 7.1 7.1 0 0 1 1.7.987 2.948 2.948 0 0 1 1.123 2.044 3.2 3.2 0 0 1-2.726 3.666z" class="cls-1"/>
        <path id="Path_3760" d="M1147.971 3769.174a3.51 3.51 0 0 0-1.4-2.057 3.743 3.743 0 0 0-5.474 1.6 4.8 4.8 0 0 0-.424 2.118 4.25 4.25 0 0 0 .351 1.994 3.352 3.352 0 0 0 3.27 2.231 3.453 3.453 0 0 0 3.464-2.166 5.243 5.243 0 0 0 .213-3.72zm-1.976 3.558a1.7 1.7 0 0 1-3.07.053 4.081 4.081 0 0 1-.528-2.062 4.346 4.346 0 0 1 .537-1.971 1.739 1.739 0 0 1 3.025.083 3.779 3.779 0 0 1 .036 3.897z" class="cls-1"/>
        <path id="Path_3761" d="M1191.842 3769.12a3.469 3.469 0 0 0-3.214-2.7 3.7 3.7 0 0 0-3.711 2.262 5.222 5.222 0 0 0-.407 2.148 4.35 4.35 0 0 0 .2 1.293 3.472 3.472 0 0 0 3.524 2.837 3.647 3.647 0 0 0 3.606-2.8 5.374 5.374 0 0 0 .002-3.04zm-2.129 3.724a1.666 1.666 0 0 1-2.758.071 3.914 3.914 0 0 1-.023-4.475 1.725 1.725 0 0 1 2.692.041 3.744 3.744 0 0 1 .716 2.2 3.671 3.671 0 0 1-.627 2.163z" class="cls-1"/>
        <path id="Path_3762" d="M1129.9 3774.268c-.012.6-.139.695-.787.707a2.234 2.234 0 0 1-.424-.009.482.482 0 0 1-.451-.462c-.026-.421-.029-.846-.032-1.267-.009-.943 0-1.882-.018-2.825a5.246 5.246 0 0 0-.1-1.12 1.5 1.5 0 0 0-1.379-1.216 1.7 1.7 0 0 0-1.585.987 2.882 2.882 0 0 0-.226 1.24c.011 1.081.011 2.165.008 3.246 0 .33 0 .66-.026.987a.44.44 0 0 1-.474.419c-.233.008-.472.02-.7.006a.477.477 0 0 1-.469-.439 2.97 2.97 0 0 1-.032-.419q-.031-3.318-.053-6.637c0-.283-.018-.625.341-.672.386-.053.814-.2 1.1.313.28.489.339.477.7.206a3.9 3.9 0 0 1 1.1-.619 2.474 2.474 0 0 1 3.088 1.285 3.821 3.821 0 0 1 .421 1.77c-.018.7-.006 1.411-.006 2.118h.006c-.002.799.017 1.6-.002 2.401z" class="cls-1"/>
        <path id="Path_3763" d="M1200.884 3771.138c.66-.023 1.319 0 1.976 0v-.021h1.414c1.229-.012 1.264-.056 1.2-1.264a4.581 4.581 0 0 0-.43-1.773 2.814 2.814 0 0 0-2.153-1.638 3.506 3.506 0 0 0-3.9 2.336 5.6 5.6 0 0 0-.044 3.874 3.154 3.154 0 0 0 1.508 1.8 5.343 5.343 0 0 0 4.248.147c.3-.091.363-.427.233-.845-.1-.313-.286-.507-.615-.4a4.334 4.334 0 0 1-1.809.2 2.365 2.365 0 0 1-2.118-1.614.528.528 0 0 1 .49-.802zm-.492-1.864a2.2 2.2 0 0 1 .83-1.273 1.688 1.688 0 0 1 2.531.881c.245.61.074.887-.574.913-.33.015-.66 0-.99 0v-.015c-.469 0-.94.012-1.408-.006a.466.466 0 0 1-.389-.5z" class="cls-1"/>
        <path id="Path_3764" d="M1143.16 3751.386a2.3 2.3 0 0 0-3.393-1.626 2 2 0 0 1-.254.126c-.335.136-.53.021-.542-.35-.02-.8-.011-1.6-.044-2.395-.015-.366-.3-.425-.607-.425s-.589.03-.651.383a5.016 5.016 0 0 0-.047.843c-.006 1.172 0 2.348 0 3.523h.012v2.257c0 .61-.024 1.223-.012 1.832a.528.528 0 0 0 .787.489c.044-.017.1-.032.123-.067.339-.513.678-.28 1.052-.03a2.022 2.022 0 0 0 2.38-.085 2.781 2.781 0 0 0 1.1-1.426 4.818 4.818 0 0 0 .096-3.049zm-1.475 2.908a1.384 1.384 0 0 1-1.391.759 1.44 1.44 0 0 1-1.267-1.145 5.687 5.687 0 0 1 .009-2.089 1.46 1.46 0 0 1 1.276-1.14 1.411 1.411 0 0 1 1.375.792 2.376 2.376 0 0 1 .336 1.344 2.535 2.535 0 0 1-.338 1.479z" class="cls-1"/>
        <path id="Path_3765" d="M1111.6 3755.416q-1.136-3.7-2.277-7.394c-.227-.728-.318-.784-1.1-.778-.642 0-.73.059-.948.613-.05.132-.1.265-.139.4q-1.047 3.434-2.085 6.864a3.533 3.533 0 0 0-.121.69.288.288 0 0 0 .241.3.808.808 0 0 0 1.114-.533c.077-.221.115-.457.18-.681.394-1.372.4-1.372 1.817-1.366.186 0 .374-.009.563 0 .686.029.778.094 1.005.748.138.4.244.807.385 1.205.213.592.316.654.92.639.507-.015.607-.159.445-.707zm-4.348-3.146a19.8 19.8 0 0 1 .952-3.353 16.621 16.621 0 0 1 1.051 3.344 3.069 3.069 0 0 1-2.006.009z" class="cls-1"/>
        <path id="Path_3766" d="M1166.425 3772.922a2.288 2.288 0 0 1-1.662 1.9 5.429 5.429 0 0 1-1.676.2 9.543 9.543 0 0 1-1.1-.2c-.689-.194-.78-.468-.465-1.152a.446.446 0 0 1 .551-.3c.227.05.442.168.668.215a3.791 3.791 0 0 0 .834.1 1.188 1.188 0 0 0 1.217-.772 1.16 1.16 0 0 0-.681-1.267c-.524-.306-1.1-.527-1.605-.866a2.272 2.272 0 0 1 .126-3.862 3.377 3.377 0 0 1 3.117-.141.5.5 0 0 1 .286.689c-.127.448-.312.613-.66.563a8.507 8.507 0 0 0-.969-.159 2.04 2.04 0 0 0-.822.132.789.789 0 0 0-.256 1.285 3.915 3.915 0 0 0 .8.556c.41.23.854.4 1.246.651a2.286 2.286 0 0 1 1.051 2.428z" class="cls-1"/>
        <path id="Path_3767" d="M1183.335 3774.28c-.033.421-.186.6-.59.657-.185.026-.374.032-.441.038-1.5 0-2.228-.592-2.366-1.988-.1-1.026-.068-2.065-.091-3.1-.009-.422 0-.846-.021-1.27-.015-.36-.162-.637-.571-.669s-.548-.292-.548-.669.1-.659.524-.686c.51-.029.56-.365.61-.775a1.154 1.154 0 0 1 1.349-1.049.42.42 0 0 1 .265.283c.05.321.041.654.068.981a.526.526 0 0 0 .548.525c.236.011.471 0 .7.026.5.05.636.224.625.737a.531.531 0 0 1-.469.589c-.406.073-.9-.165-1.217.179-.388.419-.188.987-.2 1.488-.026.846-.029 1.694.018 2.537.05.966.253 1.163 1.231 1.411.514.13.614.26.576.755z" class="cls-1"/>
        <path id="Path_3768" d="M1161.808 3751.206a2.587 2.587 0 0 0-2.492-1.756 2.732 2.732 0 0 0-2.737 1.626 3.471 3.471 0 0 0-.386 1.636 9.23 9.23 0 0 0 .065.986 2.875 2.875 0 0 0 5.668.277 4.172 4.172 0 0 0-.118-2.769zm-1.691 3.459a1.205 1.205 0 0 1-1.853.05 2.225 2.225 0 0 1-.539-.807 3.45 3.45 0 0 1 .047-2.343 1.434 1.434 0 0 1 1.385-1.01 1.5 1.5 0 0 1 1.305.928 2.965 2.965 0 0 1 .256 1.376 2.381 2.381 0 0 1-.601 1.806z" class="cls-1"/>
        <path id="Path_3769" d="M1149.191 3753.218c.892-.023 1.788-.038 2.684-.026.548.009.872-.048.819-.819a5.572 5.572 0 0 0-.192-1.252 2.3 2.3 0 0 0-2.351-1.665 2.674 2.674 0 0 0-2.489 1.762 5.339 5.339 0 0 0-.3 1.732c.015.209.027.492.062.772a2.636 2.636 0 0 0 1.4 2.159 3.715 3.715 0 0 0 3.146.1.54.54 0 0 0 .286-.7.421.421 0 0 0-.54-.309 7.369 7.369 0 0 1-.972.168 1.933 1.933 0 0 1-2-1.267.438.438 0 0 1 .447-.655zm-.239-2.024a1.261 1.261 0 0 1 1.291-.657 1.3 1.3 0 0 1 1.146 1.073.394.394 0 0 1-.345.489c-.327.014-.654 0-.981 0v.017c-.233 0-.469.006-.7 0s-.486.015-.572-.271a.744.744 0 0 1 .161-.651z" class="cls-1"/>
        <path id="Path_3770" d="M1123.573 3753.678c-.041-.8-.05-1.594-.133-2.384a1.864 1.864 0 0 0-1.473-1.691 3.54 3.54 0 0 0-2.469.283.48.48 0 0 0 .348.884 5.525 5.525 0 0 1 .966-.188 1.267 1.267 0 0 1 1.22.547c.215.333.136.657-.236.758-.542.15-1.1.253-1.629.43a2.06 2.06 0 0 0-1.44 1.75 1.862 1.862 0 0 0 2.471 2.1 2.886 2.886 0 0 0 .628-.309.471.471 0 0 1 .636.023.829.829 0 0 0 .5.212c.327.033.577-.132.583-.444.015-.657.006-1.314.006-1.971a.06.06 0 0 0 .022 0zm-1.956 1.349a1.028 1.028 0 0 1-1.388-.2 1.06 1.06 0 0 1 .162-1.4 2.016 2.016 0 0 1 1.155-.469c.486-.041.716.141.725.639a1.453 1.453 0 0 1-.654 1.43z" class="cls-1"/>
        <path id="Path_3771" d="M1135.878 3753.8h-.035c0-.563.006-1.129 0-1.691-.042-2.516-1.623-2.811-3.256-2.522a3.66 3.66 0 0 0-.668.221.61.61 0 0 0-.23.15.524.524 0 0 0-.083.524.357.357 0 0 0 .4.307c.324-.05.639-.159.961-.2a1.448 1.448 0 0 1 1.187.322.75.75 0 0 1 .288.609c-.011.327-.274.33-.492.383-.321.074-.645.13-.966.207a3.145 3.145 0 0 0-1.258.6 2.076 2.076 0 0 0 .548 3.476 1.82 1.82 0 0 0 1.494-.139c.389-.2.739-.4 1.143-.029.085.079.268.059.406.071.342.029.557-.142.56-.46.007-.614.001-1.224.001-1.829zm-1.32.2a1.488 1.488 0 0 1-.035.174c-.012.05-.027.1-.041.141s-.039.094-.059.139a1.048 1.048 0 0 1-.1.173.887.887 0 0 1-.08.1.165.165 0 0 1-.023.029c-.039.041-.083.08-.127.118a1.159 1.159 0 0 1-.174.127.763.763 0 0 1-.074.041c-.026.017-.059.032-.088.047a.987.987 0 0 1-1.237-.318 1.086 1.086 0 0 1 .227-1.385 2.116 2.116 0 0 1 1.154-.436.88.88 0 0 1 .2.006.32.32 0 0 1 .076.018h.009a.237.237 0 0 1 .08.029h.006a.1.1 0 0 1 .038.018.243.243 0 0 1 .056.035.289.289 0 0 1 .07.065.3.3 0 0 1 .045.059.156.156 0 0 1 .023.038.325.325 0 0 1 .033.074v.009l.008.029a.679.679 0 0 1 .027.118.864.864 0 0 1 .012.156 2.045 2.045 0 0 1-.026.389z" class="cls-1"/>
        <path id="Path_3772" d="M1168.64 3755.485c0 .406-.212.553-.651.553s-.621-.153-.633-.568c-.027-.846-.015-1.694-.03-2.539a10.68 10.68 0 0 0-.073-1.264 1.08 1.08 0 0 0-.872-.978 1.252 1.252 0 0 0-1.329.586 2.152 2.152 0 0 0-.312 1.211c.012.751.006 1.5.006 2.253 0 .283.006.566-.015.846-.021.315-.221.457-.583.453s-.575-.147-.581-.459c-.014-.94-.006-1.88-.006-2.819h-.047c0-.846-.012-1.691.006-2.537.012-.615.445-.887.913-.489.375.312.6.354.955.074a1.246 1.246 0 0 1 .371-.2 2.15 2.15 0 0 1 2.864 1.929c.014 1.317.026 2.634.017 3.948z" class="cls-1"/>
        <path id="Path_3773" d="M1197.77 3767.428c-.015.536-.053.574-.633.736-1.17.324-1.585.757-1.665 1.944-.065 1.029-.024 2.063-.029 3.1 0 .374 0 .751-.018 1.125a.455.455 0 0 1-.46.439 3.908 3.908 0 0 1-.7 0c-.253-.024-.448-.144-.462-.427-.015-.327-.018-.657-.021-.987l-.029-5.916a4.02 4.02 0 0 1 .023-.559c.033-.21.183-.292.389-.333.707-.136 1.034.244 1.161 1.049.7-.587 1.155-1.082 1.856-1.161.336-.038.554.1.58.427a5.045 5.045 0 0 1 .008.563z" class="cls-1"/>
        <path id="Path_3774" d="M1081.811 3753.281a.417.417 0 0 1-.118.242.344.344 0 0 1-.239.12.274.274 0 0 1-.206-.159 3.185 3.185 0 0 1-.1-.686c-.015-.657.009-1.314-.015-1.971a6.149 6.149 0 0 0-.141-1.258 1.919 1.919 0 0 0-2.009-1.626 6.566 6.566 0 0 0-3.364.9 2.407 2.407 0 0 0-1.179 1.677 8.063 8.063 0 0 0-.118 1.682c0 .751 0 1.505-.011 2.256a1.741 1.741 0 0 1-.121.543.279.279 0 0 1-.215.15c-.13 0-.3-.021-.307-.2-.009-.751-.006-1.5-.006-2.247h-.023c0-.657-.033-1.317.006-1.974a3.257 3.257 0 0 1 2.38-3.149 9.25 9.25 0 0 1 3.17-.6 2.29 2.29 0 0 1 2.277 1.558 3.97 3.97 0 0 1 .28.94 26.934 26.934 0 0 1 .059 3.802z" class="cls-1"/>
        <path id="Path_3775" d="M1117.878 3750.265q-.941 2.66-1.9 5.314c-.165.459-.33.545-.9.533a.663.663 0 0 1-.722-.5c-.622-1.773-1.258-3.544-1.88-5.317-.135-.38.062-.592.516-.6.524-.012.689.071.854.533.192.533.348 1.075.519 1.612.2.627.4 1.258.6 1.882.044.136.144.251.3.215a.3.3 0 0 0 .171-.171c.2-.627.4-1.255.592-1.885.168-.539.362-1.072.486-1.62.112-.5.474-.613.972-.575a.4.4 0 0 1 .392.579z" class="cls-1"/>
        <path id="Path_3776" d="M1120.919 3770.933v3.53a.47.47 0 0 1-.531.512c-.188 0-.374 0-.562-.006a.517.517 0 0 1-.554-.512 4.413 4.413 0 0 1-.027-.563q-.012-3.036-.017-6.072a5.316 5.316 0 0 1 .026-.562.522.522 0 0 1 .563-.5c.188-.009.377-.006.566 0a.462.462 0 0 1 .524.51c.006.751.012 1.5.015 2.256-.003.468-.003.939-.003 1.407z" class="cls-1"/>
        <path id="Path_3777" d="M1146.033 3755.4c-.006.581-.227.74-.79.675a.477.477 0 0 1-.477-.424 5.135 5.135 0 0 1-.041-.7q-.018-3.527-.027-7.056a5.524 5.524 0 0 1 .033-.7c.044-.357.259-.477.73-.469.333.009.548.16.551.5.012 1.364.006 2.728.006 4.092h.018c0 1.353.012 2.717-.003 4.082z" class="cls-1"/>
        <path id="Path_3778" d="M1129.692 3755.06a5.036 5.036 0 0 1-.018.563c-.038.365-.253.495-.716.469a.485.485 0 0 1-.51-.54c-.005-1.411 0-2.825 0-4.236h-.024v-3.391c0-.188-.006-.377.006-.565.032-.472.159-.6.58-.613.5-.015.631.115.666.683.006.095 0 .189 0 .283l.016 7.347z" class="cls-1"/>
        <path id="Path_3779" d="M1126.522 3752.8c0 .94.012 1.879-.006 2.816-.006.371-.233.5-.695.48a.481.481 0 0 1-.525-.524c-.009-1.782-.014-3.568 0-5.353 0-.415.227-.583.637-.565s.583.182.592.612c.015.843 0 1.688 0 2.534z" class="cls-1"/>
        <path id="Path_3780" d="M1085.42 3751.885c-.044.3-.077.577-.136.851-.032.153-.179.2-.327.2a.274.274 0 0 1-.271-.269c-.029-.377-.017-.754-.044-1.128-.074-1.043-.309-1.293-1.335-1.44a2.142 2.142 0 0 1-.418-.053.41.41 0 0 1-.265-.442.362.362 0 0 1 .348-.372 4.572 4.572 0 0 1 .842-.035 1.392 1.392 0 0 1 1.4 1.17c.111.501.141 1.02.206 1.518z" class="cls-1"/>
        <path id="Path_3781" d="M1080.185 3750.374a.58.58 0 0 1-.374.547 2 2 0 0 0-1.1 2.089 5.925 5.925 0 0 1-.094 1.111c-.015.088-.215.209-.324.2a.4.4 0 0 1-.295-.247 5.07 5.07 0 0 1 .135-2.363 2.3 2.3 0 0 1 1.659-1.741c.08-.027.227-.027.259.021a.75.75 0 0 1 .134.383z" class="cls-1"/>
        <path id="Path_3782" d="M1121.054 3764.488a.994.994 0 0 1-.981.978.924.924 0 0 1-.943-.981 1.016 1.016 0 0 1 .958-1.005 1.043 1.043 0 0 1 .966 1.008z" class="cls-1"/>
        <path id="Path_3783" d="M1126.581 3747.931a.74.74 0 0 1-.787.784.828.828 0 0 1-.677-.775.813.813 0 0 1 .813-.781.722.722 0 0 1 .651.772z" class="cls-1"/>
        <path id="Path_3784" d="M1083.564 3770.673a.705.705 0 0 1-.348.024.741.741 0 0 0 .348-.024z" class="cls-1"/>
        <path id="Path_3785" d="M1083.714 3770.57a.3.3 0 0 1-.147.1.41.41 0 0 0 .147-.1z" class="cls-1"/>
        <path id="Path_3786" d="M1079.542 3764.6h1.2z" class="cls-1"/>
        <path id="Path_3787" d="M1073.044 3769.321l.872.132c-.289-.041-.581-.085-.872-.129-.059-.009-.112-.018-.159-.03l.159.027z" class="cls-1"/>
        <path id="Path_3788" d="M1074.561 3764.61c-.554 0-1.114.012-1.668-.006.557.018 1.114.006 1.668.006z" class="cls-1"/>
    </g>
</svg>
