<svg xmlns="http://www.w3.org/2000/svg" width="74.448" height="62.006" viewBox="0 0 74.448 62.006">
    <defs>
        <style>
            .cls-1{fill:white}
        </style>
    </defs>
    <g id="Group_109" transform="translate(-3389.745 -4758.459)">
        <path id="Path_149" d="M3395.757 4796.521a1.3 1.3 0 0 0-1.305 1.3v3.148a2.482 2.482 0 0 0 2.479 2.478h.978v6.942a1.3 1.3 0 1 0 2.607 0v-6.942h.979a2.481 2.481 0 0 0 2.478-2.478v-15.349a2.48 2.48 0 0 0-2.478-2.477h-.979v-2.085a1.3 1.3 0 1 0-2.607 0v2.085h-.978a2.481 2.481 0 0 0-2.479 2.477v6.646a1.3 1.3 0 0 0 2.609 0v-6.515h4.3v15.089h-4.3v-3.019a1.3 1.3 0 0 0-1.3-1.3zm0 0" class="cls-1"/>
        <path id="Path_150" fill="#e34" d="M3441.882 4792.4a1.3 1.3 0 0 0-1.3 1.3v3.148a2.48 2.48 0 0 0 2.478 2.477h.979v10.46a1.3 1.3 0 1 0 2.607 0v-10.46h.978a2.48 2.48 0 0 0 2.478-2.477V4781.5a2.48 2.48 0 0 0-2.478-2.478h-.978v-13.36a1.3 1.3 0 1 0-2.607 0v13.36h-.979a2.481 2.481 0 0 0-2.478 2.478v6.645a1.3 1.3 0 1 0 2.608 0v-6.515h4.3v15.089h-4.3v-3.019a1.3 1.3 0 0 0-1.3-1.3zm0 0"/>
        <path id="Path_151" d="M3418.044 4782.923a1.305 1.305 0 0 0 1.305-1.3v-3.148a2.481 2.481 0 0 0-2.479-2.477h-.978v-5.742a1.3 1.3 0 1 0-2.607 0v5.742h-.979a2.48 2.48 0 0 0-2.478 2.477v15.349a2.481 2.481 0 0 0 2.478 2.478h.979v11.639a1.3 1.3 0 0 0 2.607 0V4796.3h.978a2.481 2.481 0 0 0 2.479-2.478v-6.645a1.3 1.3 0 0 0-2.609 0v6.515h-4.3V4778.6h4.3v3.018a1.3 1.3 0 0 0 1.3 1.3zm0 0" class="cls-1"/>
        <path id="Path_152" d="M3427.681 4793.771h.978v6.942a1.3 1.3 0 1 0 2.608 0v-6.942h.979a2.48 2.48 0 0 0 2.477-2.479v-10.225a1.3 1.3 0 1 0-2.607 0v10.1h-4.3v-23.607h4.3v7.954a1.3 1.3 0 1 0 2.607 0v-8.083a2.479 2.479 0 0 0-2.477-2.478h-.979v-5.187a1.3 1.3 0 0 0-2.608 0v5.187h-.978a2.479 2.479 0 0 0-2.477 2.478v23.865a2.48 2.48 0 0 0 2.477 2.479zm0 0" class="cls-1"/>
        <path id="Path_153" d="M3452.862 4794.2a1.3 1.3 0 0 0 1.767.529l6.005-3.239-.432 1.135a1.3 1.3 0 1 0 2.437.928l1.468-3.853a1.3 1.3 0 0 0-.755-1.682l-4.089-1.559a1.3 1.3 0 0 0-.929 2.437l.949.361-5.892 3.177a1.3 1.3 0 0 0-.529 1.766zm0 0" class="cls-1"/>
        <path id="Path_154" d="M3389.851 4819.675a1.3 1.3 0 0 0 1.711.685l16.823-7.2 1.529 4a1.3 1.3 0 0 0 1.837.683l27.792-14.984a1.3 1.3 0 0 0-1.237-2.3l-26.486 14.28-1.482-3.885a1.3 1.3 0 0 0-1.731-.734l-18.07 7.733a1.3 1.3 0 0 0-.686 1.713zm0 0" class="cls-1"/>
    </g>
</svg>
