<svg xmlns="http://www.w3.org/2000/svg" width="62.538" height="56.062">
    <defs>
        <style>
            .cls-4{fill:#081f3b}
        </style>
    </defs>
    <g id="Group_1745" data-name="Group 1745" transform="translate(-1815.123 -7725.499)">
        <g id="Group_1743" data-name="Group 1743">
            <path id="Path_4224" data-name="Path 4224" d="M1876.673 7761.638c-5.122-11.205-2.833-21.553-5.3-26.953s-10.757-15.322-35.6-3.97-21.514 28.275-18.8 34.215c12.709 27.813 68.767 16.554 59.7-3.292zm0 0" style="fill:#f6fbfe"/>
        </g>
        <path id="Path_4225" data-name="Path 4225" d="M1861.81 7778.165a2.672 2.672 0 1 1 2.672-2.672 2.675 2.675 0 0 1-2.672 2.672zm0-3.562a.89.89 0 1 0 .891.89.891.891 0 0 0-.891-.89zm0 0" style="fill:#a4aec0"/>
        <g id="Group_1744" data-name="Group 1744">
            <path id="Path_4226" data-name="Path 4226" d="M1851.1 7741.764a12.576 12.576 0 1 0 12.574 12.579 12.592 12.592 0 0 0-12.574-12.579zm0 23.528a10.951 10.951 0 1 1 10.954-10.949 10.959 10.959 0 0 1-10.954 10.949z" style="fill:#e34"/>
            <path id="Path_4227" data-name="Path 4227" class="cls-4" d="M1858.807 7753.529h-6.3a1.623 1.623 0 0 0-1.4-.812 1.6 1.6 0 0 0-.419.057l-1.491-1.49a.811.811 0 1 0-1.147 1.148l1.49 1.49a1.622 1.622 0 0 0 2.971 1.231h6.3a.812.812 0 0 0 0-1.624zm0 0"/>
            <path id="Path_4228" data-name="Path 4228" class="cls-4" d="M1851.1 7738.269a16.061 16.061 0 0 0-12.9 6.494h-7.394a.812.812 0 1 0 0 1.623h6.331a16 16 0 0 0-1.249 2.763h-9.465a.812.812 0 0 0 0 1.624h9a15.97 15.97 0 0 0-.38 2.759h-3.1a.812.812 0 0 0 0 1.624h3.1a15.957 15.957 0 0 0 2.09 7.143h-10.714a.812.812 0 1 0 0 1.623h11.781a16.07 16.07 0 1 0 12.9-25.65zm0 30.521a14.449 14.449 0 1 1 14.448-14.449 14.466 14.466 0 0 1-14.448 14.449zm0 0"/>
            <path id="Path_4229" data-name="Path 4229" class="cls-4" d="M1851.1 7761.237a.822.822 0 0 0-.575.238.812.812 0 1 0 .575-.238zm0 0"/>
            <path id="Path_4230" data-name="Path 4230" class="cls-4" d="M1851.1 7747.446a.812.812 0 1 0-.574-.238.819.819 0 0 0 .574.238zm0 0"/>
            <path id="Path_4231" data-name="Path 4231" class="cls-4" d="M1843.393 7753.529a.813.813 0 1 0 .574.238.818.818 0 0 0-.574-.238zm0 0"/>
            <path id="Path_4232" data-name="Path 4232" class="cls-4" d="M1826.424 7759.536h4.383a.812.812 0 1 0 0-1.623h-4.383a.812.812 0 1 0 0 1.623zm0 0"/>
        </g>
    </g>
</svg>
