<svg xmlns="http://www.w3.org/2000/svg" width="92.445" height="83.547" viewBox="0 0 92.445 83.547">
    <defs>
        <style>
            .cls-3,.cls-4{fill:#081f3b}.cls-3{fill-rule:evenodd}.cls-5{fill:#e34}
        </style>
    </defs>
    <g id="Group_80" transform="translate(-915.125 -910.324)">
        <g id="Group_77">
            <path id="Path_406" fill="#eff4fa" d="M919.589 929.984c2.411 18.478-5.507 32.415-4.347 41.319s8.72 26.938 49.682 21.6 43.694-31.281 42.415-41.077c-5.978-45.862-92.019-54.566-87.75-21.839zm0 0"/>
        </g>
        <path id="Path_407" fill="#a4aec0" d="M992.356 952.4a4.041 4.041 0 1 1 2.449 5.163 4.045 4.045 0 0 1-2.449-5.163zm5.075 1.808a1.347 1.347 0 1 0-1.721.818 1.348 1.348 0 0 0 1.721-.818zm0 0"/>
        <g id="Group_79">
            <g id="Group_78">
                <path id="Path_410" d="M979.018 975.213h-41.175V934.04a.909.909 0 0 0-1.818 0v42.082a.908.908 0 0 0 .908.909h42.084a.909.909 0 0 0 0-1.818zm0 0" class="cls-4"/>
                <path id="Path_411" d="M981.65 975.213h-.021a.909.909 0 1 0 0 1.818h.021a.909.909 0 0 0 0-1.818zm0 0" class="cls-4"/>
            </g>
            <path id="Path_412" d="M936.934 932.337a.909.909 0 0 0 .909-.909v-.021a.909.909 0 0 0-1.818 0v.021a.909.909 0 0 0 .909.909zm0 0" class="cls-4"/>
            <path id="Path_413" d="M946.023 966.125v2.726a.909.909 0 1 0 1.817 0v-2.726a2.73 2.73 0 0 0 2.727-2.727v-14.541a2.73 2.73 0 0 0-2.727-2.727v-7.453a.909.909 0 1 0-1.817 0v7.453a2.73 2.73 0 0 0-2.727 2.727V963.4a2.73 2.73 0 0 0 2.727 2.727zm1.817-1.818h-1.817a.91.91 0 0 1-.909-.909v-6.361h3.635v6.363a.91.91 0 0 1-.909.909zm-1.817-16.359h1.817a.91.91 0 0 1 .909.909v6.362h-3.635v-6.362a.91.91 0 0 1 .909-.909zm0 0" class="cls-4"/>
            <path id="Path_414" d="M958.746 961.4v7.453a.909.909 0 0 0 1.818 0V961.4a2.729 2.729 0 0 0 2.726-2.726V944.13a2.73 2.73 0 0 0-2.726-2.727v-2.726a.909.909 0 0 0-1.818 0v2.723a2.73 2.73 0 0 0-2.726 2.727v14.542a2.729 2.729 0 0 0 2.726 2.726zm1.819-1.817h-1.819a.909.909 0 0 1-.908-.909v-6.364h3.635v6.362a.91.91 0 0 1-.908.909zm-1.819-16.36h1.819a.91.91 0 0 1 .908.909v6.362h-3.635v-6.364a.909.909 0 0 1 .908-.909zm0 0" class="cls-4"/>
            <path id="Path_415" d="M971.471 969.76h1.817a2.729 2.729 0 0 0 2.727-2.726v-14.542a2.729 2.729 0 0 0-2.727-2.726v-8.456a.909.909 0 0 0-1.818 0v8.456a2.729 2.729 0 0 0-2.727 2.726v14.542a2.729 2.729 0 0 0 2.727 2.726zm1.817-1.817h-1.817a.91.91 0 0 1-.909-.909v-6.362h3.638v6.362a.91.91 0 0 1-.909.909zm-1.817-16.36h1.817a.91.91 0 0 1 .909.909v6.362h-3.635v-6.362a.91.91 0 0 1 .909-.909zm0 0" class="cls-5"/>
            <path id="Path_416" d="M972.379 939.607a.908.908 0 0 0 .909-.909v-.021a.909.909 0 0 0-1.818 0v.021a.908.908 0 0 0 .909.909zm0 0" class="cls-5"/>
        </g>
    </g>
</svg>
