<svg xmlns="http://www.w3.org/2000/svg" width="48.425" height="48.598" viewBox="0 0 48.425 48.598">
    <defs>
        <style>
            .cls-1{fill:white}.cls-2{fill:white}
        </style>
    </defs>
    <g id="Group_925" transform="translate(-833.318 -928.746)">
        <g id="Group_924">
            <path id="Path_2319" d="M877.219 935.533h-8.7v-2.856a.711.711 0 0 0-1.423 0v2.856h-2.947a.711.711 0 0 0 0 1.423h2.951v3.013h-.534a1.354 1.354 0 0 0-1.352 1.352v8.379a1.354 1.354 0 0 0 1.352 1.352h.534v5.645a.711.711 0 1 0 1.423 0v-5.645h.534a1.353 1.353 0 0 0 1.352-1.352v-8.376a1.353 1.353 0 0 0-1.352-1.352h-.534v-3.013h8.7a3.1 3.1 0 0 1 3.1 3.1v24.352h-45.582v-24.354a3.1 3.1 0 0 1 3.1-3.1h12.472v1.389h-.534a1.354 1.354 0 0 0-1.352 1.352v8.376a1.354 1.354 0 0 0 1.352 1.352h.534v6.287a.712.712 0 1 0 1.424 0v-6.287h.533a1.354 1.354 0 0 0 1.353-1.352V939.7a1.354 1.354 0 0 0-1.353-1.352h-.533v-1.389h2.946a.711.711 0 1 0 0-1.423h-2.946v-.351a.712.712 0 1 0-1.424 0v.351h-12.471a4.529 4.529 0 0 0-4.524 4.524v25.06a4.53 4.53 0 0 0 4.524 4.524h10.831v3.617l-2.293 2.661h-.911a.711.711 0 0 0 0 1.422h24.057a.711.711 0 1 0 0-1.422h-.845l-2.293-2.661v-3.617h10.831a4.53 4.53 0 0 0 4.524-4.524v-25.063a4.53 4.53 0 0 0-4.524-4.524zm-8.236 14.094h-2.35v-8.235h2.35zM852.2 948h-2.35v-8.235h2.35zm25.018 20.219h-14.4a.711.711 0 1 0 0 1.423h2.146v3.17h-1.772a.711.711 0 1 0 0 1.423h2.157l1.452 1.685h-18.542l1.452-1.685h2.157a.711.711 0 0 0 0-1.423H850.1v-3.17h9.691a.711.711 0 0 0 0-1.423h-21.949a3.105 3.105 0 0 1-3.017-2.389h45.411a3.105 3.105 0 0 1-3.017 2.389zm0 0" class="cls-1"/>
            <path id="Path_2320" d="M840.749 949.518a.712.712 0 0 0-.712.712v1.718a1.354 1.354 0 0 0 1.352 1.352h.534v3.789a.712.712 0 1 0 1.423 0V953.3h.534a1.354 1.354 0 0 0 1.353-1.352v-8.377a1.354 1.354 0 0 0-1.353-1.352h-.534v-1.138a.712.712 0 0 0-1.423 0v1.138h-.534a1.354 1.354 0 0 0-1.352 1.352v3.629a.712.712 0 0 0 1.423 0v-3.556h2.35v8.235h-2.35v-1.649a.712.712 0 0 0-.711-.712zm0 0" class="cls-1"/>
            <path id="Path_2321" d="M858.171 948.017h.534v3.789a.711.711 0 1 0 1.423 0v-3.789h.534a1.353 1.353 0 0 0 1.352-1.352v-5.581a.711.711 0 0 0-1.422 0v5.51h-2.35v-12.883h2.35v4.341a.711.711 0 1 0 1.422 0v-4.412a1.353 1.353 0 0 0-1.352-1.352h-.534v-2.831a.711.711 0 0 0-1.423 0v2.831h-.534a1.354 1.354 0 0 0-1.352 1.352v13.025a1.354 1.354 0 0 0 1.352 1.352zm0 0" class="cls-1"/>
            <path id="Path_2322" d="M871.914 948.252a.712.712 0 0 0 .964.289l3.277-1.767-.235.619a.711.711 0 0 0 .411.918.725.725 0 0 0 .253.047.712.712 0 0 0 .665-.459l.8-2.1a.711.711 0 0 0-.412-.918l-2.231-.85a.712.712 0 1 0-.507 1.33l.518.2-3.216 1.734a.711.711 0 0 0-.288.964zm0 0" class="cls-2"/>
            <path id="Path_2323" d="M837.525 962.154a.712.712 0 0 0 .934.375l9.181-3.93.835 2.186a.712.712 0 0 0 1 .373l15.168-8.178a.712.712 0 0 0-.675-1.253l-14.455 7.793-.809-2.12a.712.712 0 0 0-.945-.4l-9.861 4.22a.712.712 0 0 0-.375.934zm0 0" class="cls-2"/>
        </g>
    </g>
</svg>
