<svg xmlns="http://www.w3.org/2000/svg" width="77.587" height="84.956">
    <g data-name="Group 1729">
        <g data-name="Group 1727">
            <g data-name="Group 1726">
                <g data-name="Group 1725">
                    <path data-name="Path 4214" d="M946.749 3625.085c-16.7 4.512-30.507-1.043-38.556 1.13s-23.7 11.368-13.7 48.393 34.207 36.316 43.061 33.923c41.454-11.2 38.777-91.438 9.2-83.446zm0 0" style="fill:#eff4fa" transform="translate(-891.258 -3624.526)"/>
                </g>
                <path data-name="Path 4215" d="M933.753 3699.815a3.752 3.752 0 1 1-3.085-4.317 3.756 3.756 0 0 1 3.085 4.317zm-4.934-.821a1.251 1.251 0 1 0 1.438-1.029 1.253 1.253 0 0 0-1.438 1.029zm0 0" style="fill:#a4aec0" transform="translate(-891.258 -3624.526)"/>
            </g>
        </g>
        <g data-name="Group 1728">
            <path data-name="Path 4216" d="M946.215 3682.322h-5.1v-29.774a.851.851 0 0 0-1.343-.694l-3.269 2.315-.446-1.372 7.591-5.515a.851.851 0 0 0-.5-1.539h-9.388l-2.9-8.923a.851.851 0 0 0-1.617 0l-2.9 8.923h-9.383a.851.851 0 0 0-.5 1.539l7.591 5.515-2.9 8.922a.85.85 0 0 0 1.309.952l7.591-5.515 1.106.8-11.806 8.357a.85.85 0 0 0-.359.694v15.312h-5.1a.851.851 0 0 0-.851.851v4.254a.851.851 0 0 0 .851.85h32.326a.851.851 0 0 0 .851-.85v-4.254a.851.851 0 0 0-.854-.848zm-15.663-26.906a.852.852 0 0 0-1 0l-5.972 4.339 2.281-7.021a.85.85 0 0 0-.309-.951l-5.973-4.339h7.383a.849.849 0 0 0 .808-.588l2.282-7.02 2.282 7.02a.85.85 0 0 0 .808.588h7.383l-5.973 4.339a.85.85 0 0 0-.309.951l2.281 7.021zm-9.858 12.034 11.917-8.436 5.032 3.657a.85.85 0 0 0 1.309-.951l-1.9-5.855 2.361-1.673v28.13h-18.719zm24.67 19.126H914.74v-2.552h30.624z" style="fill:#081f3b" transform="translate(-891.258 -3624.526)"/>
            <path data-name="Path 4217" d="M946.213 3682.318h-32.32a.858.858 0 0 0-.85.86v4.25a.849.849 0 0 0 .85.85h32.32a.849.849 0 0 0 .85-.85v-4.25a.858.858 0 0 0-.85-.86zm-.85 4.26h-30.62v-2.55h30.62z" style="fill:#e34" transform="translate(-891.258 -3624.526)"/>
        </g>
    </g>
</svg>
