<svg xmlns="http://www.w3.org/2000/svg" width="60.997" height="55.209">
    <defs>
        <style>
            .cls-4{fill:#081f3b}
        </style>
    </defs>
    <g id="Group_1752" data-name="Group 1752" transform="translate(-1628.044 -7721.765)">
        <g id="Group_1750" data-name="Group 1750">
            <path id="Path_4238" data-name="Path 4238" d="M1630.651 7735.009c1.756 12.2-3.357 21.478-2.512 27.355s6 17.732 33.035 13.842 28.612-21.063 27.68-27.528c-4.353-30.267-61.312-35.267-58.2-13.669zm0 0" style="fill:#f6fbfe"/>
        </g>
        <path id="Path_4239" data-name="Path 4239" d="M1647.158 7735.009a2.671 2.671 0 1 1 2.672-2.672 2.675 2.675 0 0 1-2.672 2.672zm0-3.562a.891.891 0 1 0 .891.89.892.892 0 0 0-.891-.89zm0 0" style="fill:#a4aec0"/>
        <g id="Group_1751" data-name="Group 1751">
            <path id="Path_4240" data-name="Path 4240" d="M1651.135 7768.63a1.367 1.367 0 0 1-.706.2h-1.413a1.417 1.417 0 0 1-1.413-1.413v-2.557a8.434 8.434 0 0 1-4.112-5.92h-1.54a1.418 1.418 0 0 1-1.413-1.413v-2.827a1.417 1.417 0 0 1 1.413-1.413h2.558a8.4 8.4 0 0 1 3.094-3.094v-5.383a7.927 7.927 0 0 1 2.826.919v4.464a8.4 8.4 0 0 0-3.094 3.094h-2.558a1.416 1.416 0 0 0-1.412 1.413v2.826a1.417 1.417 0 0 0 1.412 1.413h1.54a8.431 8.431 0 0 0 4.112 5.92v2.557a1.388 1.388 0 0 0 .706 1.215zm0 0" style="fill:#d4dae0"/>
            <path id="Path_4241" data-name="Path 4241" class="cls-4" d="M1663.144 7769.888h-1.413a2.475 2.475 0 0 1-2.472-2.473v-.353h-6.359v.353a2.475 2.475 0 0 1-2.472 2.473h-1.413a2.476 2.476 0 0 1-2.473-2.473v-1.967a9.437 9.437 0 0 1-3.906-5.45h-.686a2.476 2.476 0 0 1-2.472-2.473v-2.825a2.475 2.475 0 0 1 2.472-2.472h1.966a9.539 9.539 0 0 1 2.628-2.627v-4.791a1.065 1.065 0 0 1 .368-.8 1.082 1.082 0 0 1 .851-.245c3.771.574 5.195 2.457 5.668 4.227h1.235v2.119h-2.119a1.059 1.059 0 0 1-1.054-.952c-.1-1.011-.528-2.356-2.831-3.033v4.072a1.06 1.06 0 0 1-.539.922 7.372 7.372 0 0 0-2.694 2.694 1.058 1.058 0 0 1-.921.538h-2.558a.357.357 0 0 0-.353.353v2.825a.358.358 0 0 0 .353.354h1.54a1.057 1.057 0 0 1 1.044.884 7.341 7.341 0 0 0 3.595 5.176 1.06 1.06 0 0 1 .533.919v2.558a.357.357 0 0 0 .353.353h1.413a.357.357 0 0 0 .353-.353V7766a1.061 1.061 0 0 1 1.06-1.06h8.477a1.061 1.061 0 0 1 1.06 1.06v1.413a.357.357 0 0 0 .352.353h1.413a.358.358 0 0 0 .354-.353v-2.558a1.057 1.057 0 0 1 .538-.922 7.013 7.013 0 0 0 1.524-1.17 7.274 7.274 0 0 0 2.162-5.113l2.119.027a9.513 9.513 0 0 1-4.225 7.77v1.964a2.474 2.474 0 0 1-2.472 2.473zm0 0"/>
            <path id="Path_4242" data-name="Path 4242" class="cls-4" d="M1665.264 7755.759a1.074 1.074 0 0 1-.413-.083c-.343-.146-8.418-3.636-8.418-10.816v-5.9a1.06 1.06 0 0 1 .721-1l7.771-2.623a1.047 1.047 0 0 1 .678 0l7.771 2.623a1.06 1.06 0 0 1 .72 1v5.9c0 7.18-8.074 10.671-8.418 10.816a1.065 1.065 0 0 1-.412.083zm-6.712-16.042v5.143c0 4.968 5.19 7.914 6.71 8.669 1.519-.76 6.713-3.72 6.713-8.669v-5.143l-6.711-2.266zm0 0"/>
            <path id="Path_4243" data-name="Path 4243" d="M1664.558 7748.695a.556.556 0 0 1-.058 0 1.065 1.065 0 0 1-.771-.4l-2.825-3.531 1.656-1.326 2.087 2.608 4.107-4.107 1.5 1.5-4.945 4.945a1.067 1.067 0 0 1-.75.31zm0 0" style="fill:#e34"/>
        </g>
    </g>
</svg>
