<svg xmlns="http://www.w3.org/2000/svg" width="50.103" height="48.119" viewBox="0 0 50.103 48.119">
    <defs>
        <style>
            .cls-1{fill:white}.cls-2{fill:white}
        </style>
    </defs>
    <g id="Group_935" transform="translate(-1243.528 -928.986)">
        <path id="Rectangle_245" d="M0 0H1.576V1.707H0z" class="cls-1" transform="rotate(-34.28 2177.936 -1537.104)"/>
        <path id="Path_2347" d="M1247.971 958.336l-.962-1.411 9.729-6.644a1.71 1.71 0 0 0 .447-2.373l-4.253-6.226a1.712 1.712 0 0 0-2.373-.448l-6.03 4.119-.964-1.411 6.031-4.118a3.421 3.421 0 0 1 4.746.894l4.253 6.227a3.421 3.421 0 0 1-.894 4.747z" class="cls-1"/>
        <path id="Rectangle_246" d="M0 0H1.599V1.708H0z" class="cls-1" transform="rotate(-34.34 2135.478 -1562.847)"/>
        <path id="Rectangle_247" d="M0 0H7.83V1.708H0z" class="cls-1" transform="rotate(-34.342 2140.567 -1545.94)"/>
        <path id="Rectangle_248" d="M0 0H10.601V1.707H0z" class="cls-1" transform="rotate(-34.293 2175.47 -1570.934)"/>
        <path id="Rectangle_249" d="M0 0H3.4V1.707H0z" class="cls-1" transform="rotate(-34.297 2194.427 -1543.66)"/>
        <path id="Rectangle_250" d="M0 0H7.638V1.707H0z" class="cls-1" transform="rotate(-34.293 2217.445 -1588.325)"/>
        <path id="Rectangle_251" d="M0 0H1.534V1.707H0z" class="cls-1" transform="rotate(-34.373 2215.702 -1576.224)"/>
        <path id="Rectangle_252" d="M0 0H1.576V1.707H0z" class="cls-1" transform="rotate(-34.28 2173.285 -1623.51)"/>
        <path id="Path_2348" d="M1285.643 962.275a3.415 3.415 0 0 1-2.826-1.487l-4.253-6.227a3.421 3.421 0 0 1 .9-4.746l9.73-6.644.962 1.41-9.73 6.644a1.71 1.71 0 0 0-.446 2.373l4.253 6.227a1.71 1.71 0 0 0 2.373.447l6.03-4.119.963 1.411-6.03 4.119a3.408 3.408 0 0 1-1.926.592z" class="cls-1"/>
        <path id="Path_2349" d="M1257.538 947.765v-1.707c3.912 0 6.2-.893 7.907-3.083a8 8 0 0 1 2.325-2.056l4.647-2.655a.854.854 0 1 0-.864-1.474l-6.6 3.564-.811-1.5 6.606-3.564a2.613 2.613 0 0 1 1.251-.327 2.561 2.561 0 0 1 1.269 4.785l-4.646 2.655a6.276 6.276 0 0 0-1.824 1.622c-2.047 2.621-4.815 3.74-9.26 3.74z" class="cls-1"/>
        <path id="Path_2350" d="M1283.091 940.821l-1.131-.39a28.056 28.056 0 0 0-8.489-1.2v-1.707a31.16 31.16 0 0 1 7.913.955v-6.595a10.312 10.312 0 0 0-5.122-1.189c-4.631 0-7.1 2.2-9.445 8.414l-1.6-.6c2.215-5.877 4.835-9.52 11.042-9.52a10.915 10.915 0 0 1 6.505 1.763l.324.256z" class="cls-2"/>
        <path id="Path_2351" d="M1280.531 945.826l-1.354-.979c-.026-.018-3.027-2.087-10.366-2.731l.148-1.7a29.722 29.722 0 0 1 9.864 2.3v-3.759h1.708z" class="cls-2"/>
        <path id="Path_2352" d="M1254.378 941.94l-1.259-1.154 9.111-9.939a5.741 5.741 0 0 1 7.017-1.14l1.834 1.018-.828 1.493-1.835-1.019a4.13 4.13 0 0 0-4.929.8z" class="cls-1"/>
        <path id="Path_2353" d="M1266.873 970.813a2.561 2.561 0 0 1-1.009-4.915l6.525-2.8.671 1.569-6.523 2.8a.854.854 0 0 0-.518.786.878.878 0 0 0 1.189.785l4.653-1.993a9.292 9.292 0 0 1 2.29-.653l2.01-.305a5.147 5.147 0 0 0 3.431-2.133l3.061-4.384 1.4.977-3.062 4.385a6.862 6.862 0 0 1-4.575 2.842l-2.01.3a7.676 7.676 0 0 0-1.873.535l-4.654 1.993a2.537 2.537 0 0 1-1.006.211z" class="cls-1"/>
        <path id="Path_2354" d="M1261.751 966.338h-1.708v-2.518a6.853 6.853 0 0 1 4.368-6.369 51.917 51.917 0 0 1 14.905-3.975l.237 1.69a49.987 49.987 0 0 0-14.509 3.87 5.155 5.155 0 0 0-3.293 4.784z" class="cls-1"/>
        <path id="Path_2355" d="M1254.922 958.863h-1.707v1.707h1.707v-1.707z" class="cls-1"/>
        <path id="Path_2356" d="M1257.483 957.155h-1.707v1.707h1.707v-1.707z" class="cls-1"/>
        <path id="Path_2357" d="M1266.446 976.789a7.256 7.256 0 1 1 4.831-12.67l-1.138 1.273a5.526 5.526 0 1 0 1.619 2.533l1.633-.495a7.257 7.257 0 0 1-6.945 9.359z" class="cls-2"/>
    </g>
</svg>
