<svg xmlns="http://www.w3.org/2000/svg" width="65.823" height="24.241" viewBox="0 0 65.823 24.241">
    <defs>
        <style>
            .cls-1{fill:#5b86ba}
        </style>
    </defs>
    <g id="Group_182" transform="translate(-961.334 -2915.279)">
        <g id="Group_181">
            <path id="Path_572" d="M992.551 2939.52a30.855 30.855 0 0 0-1.177-4.6c-.361-1.436-.768-2.861-1.206-4.275-.165-.533-.144-.717.492-.723 2.068-.021 2.076-.047 2.54 1.957.341 1.471.658 2.948 1.017 4.563.582-2.023 1.191-3.9 1.645-5.818.219-.923.816-.642 1.353-.686s.921-.027 1.089.677c.44 1.838.993 3.649 1.558 5.675.314-1.284.591-2.4.859-3.521.089-.375.146-.757.232-1.132.4-1.746.4-1.722 2.184-1.731.612 0 .766.115.579.743-.745 2.5-1.449 5-2.146 7.514a2.832 2.832 0 0 0-.278 1.359h-2.676c-.364-1.965-1.149-3.8-1.693-5.88-.13.457-.2.746-.293 1.023a48.893 48.893 0 0 1-1.582 4.857z" class="cls-1"/>
            <path id="Path_573" d="M961.867 2937.035c.325-.017.649-.048.974-.048h24.318c1.77 0 1.875.115 1.658 1.87a4.363 4.363 0 0 1-.19.666h-27.293v-2.323l.367-.136c.073.084.125.059.166-.029z" class="cls-1"/>
            <path id="Path_574" d="M1018.77 2939.354a11.738 11.738 0 0 1-2.493-.008l-.2-.176-2.646-3.774-.187 4.124h-2.676l.036-.186c.018-.018.056-.044.052-.053a.667.667 0 0 0-.07-.113v-8.568c.022-.015.064-.034.062-.043a.766.766 0 0 0-.048-.125 8.16 8.16 0 0 1 4.281-.633 6.007 6.007 0 0 1 2.172.412 2.7 2.7 0 0 1 1.868 2.552 2.423 2.423 0 0 1-2.005 2.207c-.854.209-.6.476-.25.934.8 1.06 1.576 2.144 2.361 3.218zm-5.464-6.563c0 .475.01.95 0 1.425-.009.308.064.478.42.534a1.987 1.987 0 0 0 2.3-2.653 1.82 1.82 0 0 0-2.219-1.022c-.89.151-.363.838-.495 1.273a1.6 1.6 0 0 0-.006.443z" class="cls-1"/>
            <path id="Path_575" d="M975.248 2915.279q4.5 2.034 8.993 4.068c.345.157.681.334 1.022.5-.252.38-.645.236-.979.236q-9.4.014-18.8 0c-.316 0-.659.1-.938-.152q4.844-2.136 9.686-4.277c.23-.1.518-.117.659-.378z" class="cls-1"/>
            <path id="Path_576" d="M1027.157 2927.934a3.362 3.362 0 0 0-.88-.041c-1.474.326-2.282-.333-2.824-1.66a12.005 12.005 0 0 0-1.7-2.765c0 1.192-.032 2.385.014 3.576.023.626-.094.889-.81.871-1.666-.042-1.667 0-1.667-1.683 0-2.286.042-4.572-.021-6.856-.024-.888.278-1.182 1.117-1.072.351.046.71.026 1.066.037 0 1.283 0 2.567-.005 3.851 0 .3.074.305.234.074.3.27.339-.077.419-.2.619-.974 1.245-1.944 1.819-2.945a1.025 1.025 0 0 1 1.167-.645 12.786 12.786 0 0 0 1.752.016c-.869 1.276-1.658 2.472-2.492 3.637a.888.888 0 0 0-.034 1.168c.823 1.263 1.594 2.561 2.4 3.835.108.171.131.465.443.45z" class="cls-1"/>
            <path id="Path_577" d="M1020.912 2939.164q-.111-4.456 0-8.912c.024-.015.07-.035.068-.045a.8.8 0 0 0-.05-.13c.144-.3.417-.15.623-.152q2.439-.021 4.877 0c.171 0 .425-.149.515.158-.295.368-.022.884-.326 1.25-.8.017-1.6.049-2.4.043-.374 0-.567.113-.531.505a.521.521 0 0 1 0 .089c-.116 1.9-.116 1.878 1.8 1.916.419.008 1.124-.394 1.123.613 0 .663-.161.946-.837.822a1.055 1.055 0 0 0-.178 0c-1.974 0-1.946 0-1.92 1.985.007.59.232.659.736.673a7.409 7.409 0 0 1 2.52.121h-2.964v.171h2.984v.9c-.4.129-.975-.324-1.218.353h-4.816l.024-.184c.019-.02.058-.049.054-.057a.734.734 0 0 0-.084-.119z" class="cls-1"/>
            <path id="Path_578" d="M1005.4 2939.52c0-2.937.018-5.876-.011-8.813-.006-.6.123-.812.771-.807 2.088.018 2.087-.011 2.088 2.054q0 3.783.006 7.566z" class="cls-1"/>
            <path id="Path_579" d="M1025.73 2939.52c.243-.677.815-.224 1.218-.353l-.147.353z" class="cls-1"/>
            <path id="Path_580" d="M1009.207 2927.571c-.015-2.934-.024-5.867-.05-8.8 0-.347.118-.434.451-.47a2.249 2.249 0 0 1 2.6 1.217 27.934 27.934 0 0 0 2.985 4.3v-5.149l.182-.15c1.821-.095 1.821-.095 1.821 1.72 0 2.224.014 4.448-.015 6.672 0 .323.293.92-.278.945-.617.027-1.368.388-1.863-.382-1.152-1.794-2.322-3.576-3.485-5.364-.056-.087-.108-.177-.285-.47 0 1.934-.038 3.64.017 5.342.024.729-.168 1.061-.916.911-.381-.077-.808.2-1.151-.154h1.655l-.006-.167z" class="cls-1"/>
            <path id="Path_581" d="M990.6 2927.224c-.013-2.669-.014-5.337-.048-8.005a.6.6 0 0 1 .517-.688 9.1 9.1 0 0 1 4.571-.146c.974.244 1.916.667 2.111 1.786.242 1.383-.077 1.844-1.576 2.664.352.213.7.388 1.01.616a2.244 2.244 0 0 1-.1 3.806 7.1 7.1 0 0 1-6.458.134c.018-.019.054-.047.05-.056a.741.741 0 0 0-.077-.111zm2.287-7.128a3.05 3.05 0 0 0 0 2.13c.053.539.483.4.73.309.278-.1.563-.148.841-.234a1.459 1.459 0 0 0 .837-2.2c-.447-.7-1.185-.687-1.906-.675-.452.01-.489.331-.501.674zm0 6.408c.785.8 1.527.223 2.226-.123.614-.305.655-.937.581-1.548a1.437 1.437 0 0 0-1.357-1.3 11.487 11.487 0 0 0-1.414-.051 5.259 5.259 0 0 0-.031 3.018z" class="cls-1"/>
            <path id="Path_582" d="M1004.856 2925.8a7.233 7.233 0 0 1-1.156.01c-1.355-.2-2.357.07-2.515 1.667-.051.523-.481.412-.822.417-1.524.023-1.532.02-1.034-1.37.887-2.478 1.8-4.946 2.666-7.431a.8.8 0 0 1 .935-.62c1.845.04 1.848.018 2.465 1.745.837 2.339 1.65 4.686 2.517 7.014.22.591.05.573-.482.694-1.854.419-2.219-.818-2.576-2.127l.04-.073zm-1.492-5.325l-1.242 4.036h2.433z" class="cls-1"/>
            <path id="Path_583" d="M987.025 2922.391a5.271 5.271 0 0 1-.527.051H963.82c-.176 0-.352-.031-.528-.048l-.247-.144c-.395-1.128-.206-1.441.9-1.441h22.4c1.107 0 1.28.285.9 1.434z" class="cls-1"/>
            <path id="Path_584" d="M987.022 2936.131a5.1 5.1 0 0 1-.611.071h-22.5a5.8 5.8 0 0 1-.613-.064l-.28-.166c-.33-1.157-.156-1.418.98-1.419h22.294c1.126 0 1.3.261.977 1.42z" class="cls-1"/>
            <path id="Path_585" d="M979.531 2928.6c0 1.513-.028 3.026.012 4.537.019.748-.289 1-1 .988-2.461-.028-2.182.207-2.187-2.107-.006-2.639.016-5.279-.014-7.917-.007-.64.15-.934.836-.836a3.484 3.484 0 0 0 1.065-.008c1.269-.217 1.287-.213 1.288 1.073z" class="cls-1"/>
            <path id="Path_586" d="M985.213 2928.634c0 1.512-.022 3.025.01 4.537.014.7-.279.952-.952.948-2.618-.015-2.205.164-2.219-2.154-.015-2.609.009-5.219-.012-7.828-.005-.626.043-1.041.857-.886a2.444 2.444 0 0 0 1.213-.119c.769-.252 1.1.045 1.1.877.01 1.542.003 3.083.003 4.625z" class="cls-1"/>
            <path id="Path_587" d="M968.111 2923.478c.018 3.287.13 6.578.007 9.86-.049 1.305-1.319.464-2.01.643-.447.117-1.065.177-1.06-.641q.029-4.932.043-9.864c.022-.013.064-.027.064-.039a.645.645 0 0 0-.028-.127 3.136 3.136 0 0 1 2.946 0c-.017.021-.052.051-.047.059a.738.738 0 0 0 .085.109z" class="cls-1"/>
            <path id="Path_588" d="M970.789 2933.639a36.461 36.461 0 0 1-.076-4.259c-.025-1.839.007-3.679-.012-5.518-.007-.643.257-.963.9-.888.686.08 1.418-.247 2.059.227l.144.273v9.99c-.022.014-.064.031-.063.042a.683.683 0 0 0 .043.125.336.336 0 0 1-.328.33c-.065-.086-.12-.073-.167.017h-1.97a.34.34 0 0 0-.4-.126l.019.014z" class="cls-1"/>
            <path id="Path_589" d="M964.546 2919.934c.279.253.622.152.938.152q9.4.009 18.8 0c.334 0 .727.144.979-.236.148.3.513.167.868.391h-22.168z" class="cls-1"/>
            <path id="Path_590" d="M1021.681 2922.266c-.16.231-.235.228-.234-.074.005-1.284 0-2.568.005-3.851l.176.021a.136.136 0 0 0 .074.115 29.574 29.574 0 0 1-.021 3.789z" class="cls-1"/>
            <path id="Path_591" d="M1026.948 2938.27h-2.984v-.171h2.964z" class="cls-1"/>
            <path id="Path_592" d="M1009.207 2927.571h1.665l.006.167h-1.655a.137.137 0 0 1-.016-.167z" class="cls-1"/>
            <path id="Path_593" d="M1026.619 2931.333c.3-.366.031-.882.326-1.25-.145.406.471 1.017-.326 1.25z" class="cls-1"/>
            <path id="Path_594" d="M970.922 2933.852a.34.34 0 0 1 .4.126c-.159.031-.311.051-.4-.126z" class="cls-1"/>
            <path id="Path_595" d="M1018.77 2939.354l.257-.228.066.206z" class="cls-1"/>
            <path id="Path_596" d="M990.6 2927.224a.741.741 0 0 1 .076.111c0 .009-.032.037-.05.056z" class="cls-1"/>
            <path id="Path_597" d="M973.8 2923.474l-.144-.273a.248.248 0 0 1 .144.273z" class="cls-1"/>
            <path id="Path_598" d="M968.111 2923.478a.738.738 0 0 1-.085-.11c-.005-.008.03-.038.047-.059z" class="cls-1"/>
            <path id="Path_599" d="M965.127 2923.31a.645.645 0 0 1 .028.127c0 .012-.042.026-.064.039z" class="cls-1"/>
            <path id="Path_600" d="M987.025 2922.391l.22-.148a.191.191 0 0 1-.22.148z" class="cls-1"/>
            <path id="Path_601" d="M1020.93 2930.077a.8.8 0 0 1 .05.13c0 .01-.044.03-.068.045z" class="cls-1"/>
            <path id="Path_602" d="M1010.6 2930.436a.766.766 0 0 1 .048.125c0 .009-.04.028-.062.043a.152.152 0 0 1 .014-.168z" class="cls-1"/>
            <path id="Path_603" d="M963.045 2922.25l.247.144z" class="cls-1"/>
            <path id="Path_604" d="M973.784 2933.631a.683.683 0 0 1-.043-.125c0-.011.041-.028.063-.042a.145.145 0 0 1-.02.167z" class="cls-1"/>
            <path id="Path_605" d="M970.789 2933.639l.152.227a.2.2 0 0 1-.152-.227z" class="cls-1"/>
            <path id="Path_606" d="M973.289 2933.978c.047-.09.1-.1.167-.017l-.081.037z" class="cls-1"/>
            <path id="Path_607" d="M1015.378 2918.518l-.182.15c-.022-.151.065-.168.182-.15z" class="cls-1"/>
            <path id="Path_608" d="M963.017 2935.972l.28.166a.272.272 0 0 1-.28-.166z" class="cls-1"/>
            <path id="Path_609" d="M987.022 2936.131l.246-.158z" class="cls-1"/>
            <path id="Path_610" d="M961.867 2937.035c-.041.088-.093.113-.166.032z" class="cls-1"/>
            <path id="Path_611" d="M1021.7 2918.477a.136.136 0 0 1-.074-.115c.091-.003.158.007.074.115z" class="cls-1"/>
            <path id="Path_612" d="M1010.586 2939.168a.667.667 0 0 1 .07.113c0 .009-.034.035-.052.053a.142.142 0 0 1-.018-.166z" class="cls-1"/>
            <path id="Path_613" d="M1016.077 2939.17l.2.176c-.133.017-.177-.065-.2-.176z" class="cls-1"/>
            <path id="Path_614" d="M1020.912 2939.164a.734.734 0 0 1 .08.115c0 .008-.035.037-.054.057a1.15 1.15 0 0 1-.039-.112c.001-.018.009-.04.013-.06z" class="cls-1"/>
            <path id="Path_615" d="M992.928 2923.483l-.036 3.021a5.259 5.259 0 0 1 .036-3.021z" class="cls-1"/>
            <path id="Path_616" d="M992.888 2920.1v2.13a3.05 3.05 0 0 1 0-2.13z" class="cls-1"/>
            <path id="Path_617" d="M1004.856 2925.8l.038-.074-.04.073z" class="cls-1"/>
        </g>
    </g>
</svg>
