<svg xmlns="http://www.w3.org/2000/svg" width="94.587" height="84.791">
    <g data-name="Group 1735">
        <g data-name="Group 1730">
            <path data-name="Path 4218" d="M1387.932 3679.268c-7.747-16.947-4.285-32.6-8.017-40.766s-16.269-23.173-53.84-6-32.54 42.765-28.432 51.749c19.223 42.067 104.009 25.038 90.289-4.979zm0 0" style="fill:#eff4fa" transform="translate(-1294.839 -3624.609)"/>
        </g>
        <path data-name="Path 4219" d="M1365.569 3644.917a4.041 4.041 0 1 1 4.041-4.041 4.045 4.045 0 0 1-4.041 4.041zm0-5.388a1.348 1.348 0 1 0 1.348 1.347 1.349 1.349 0 0 0-1.348-1.347zm0 0" style="fill:#a4aec0" transform="translate(-1294.839 -3624.609)"/>
        <g data-name="Group 1734">
            <g data-name="Group 1733">
                <g data-name="Group 1731">
                    <path data-name="Path 4220" d="m1353.5 3676.888-.454-.051.293-.363a24.963 24.963 0 0 0 5.584-15.763 15.515 15.515 0 0 0-31.03 0 24.561 24.561 0 0 0 6.089 16.369l.272.313-.4.1a25.879 25.879 0 0 0-14.207 8.926l2.353 1.858a23.028 23.028 0 0 1 15.409-8.432h.08l.071.041a11.67 11.67 0 0 0 12.006-.142l.061-.04h.787a22.72 22.72 0 0 1 8.159 1.5l1.081-2.838a25.2 25.2 0 0 0-6.154-1.478zm-10.077 1.928c-8.331 0-12.764-10.511-12.764-18.1a12.753 12.753 0 0 1 25.507 0c-.004 7.584-4.437 18.1-12.747 18.1z" style="fill:#081f3b" transform="translate(-1294.839 -3624.609)"/>
                </g>
                <g data-name="Group 1732">
                    <path data-name="Path 4221" d="M1372.924 3687.238v3h-7.008v7.008h-3v-7.008h-7v-3h7v-7.008h3v7.008z" style="fill:#e34" transform="translate(-1294.839 -3624.609)"/>
                </g>
            </g>
        </g>
    </g>
</svg>
