<svg xmlns="http://www.w3.org/2000/svg" width="61.579" height="61.579" viewBox="0 0 61.579 61.579">
    <defs>
        <style>
            .cls-1{fill:white}.cls-2{fill:#e34}
        </style>
    </defs>
    <g id="Group_119" transform="translate(-2773.191 -4760.251)">
        <g id="Group_113">
            <g id="Group_110">
                <path id="Path_155" d="M2810.986 4768.558a1.563 1.563 0 0 0-1.223-.51c-.225 0-23.185.7-34.064-7.484a1.578 1.578 0 0 0-2.192.306 1.582 1.582 0 0 0 .306 2.2c9.6 7.219 26.814 8.086 33.768 8.126h.438l-1.692 11.827a1.528 1.528 0 0 0 .3 1.163 1.566 1.566 0 0 0 2.8-.714l1.948-13.642a1.576 1.576 0 0 0-.389-1.272z" class="cls-1"/>
            </g>
            <g id="Group_111">
                <path id="Path_156" d="M2788.709 4793.649a73.9 73.9 0 0 1-13.357-4.058 1.566 1.566 0 0 0-2.039 2.05 1.565 1.565 0 0 0 .846.846 71.647 71.647 0 0 0 14.233 4.262 1.566 1.566 0 0 0 .317-3.1z" class="cls-1"/>
            </g>
            <g id="Group_112">
                <path id="Path_157" d="M2833.2 4812.848a1.559 1.559 0 0 0-.6.122c-11.919 4.925-22.777 5.659-32.749 5.72h-.336l-2.192-17.547c-.816-6.525-1.122-8.921-1.152-9.839l-.021-.03.021-.011c-.021-.5.051-.519.153-.56l.285-.113.061.092c6.536-.01 27.549-.662 37.47-8.136a1.562 1.562 0 1 0-1.877-2.5c-10.878 8.187-37.713 7.484-37.979 7.474h-.05a1.551 1.551 0 0 0-1.153.51 1.573 1.573 0 0 0-.4 1.254l3.894 31.168a1.574 1.574 0 0 0 1.561 1.376c10.267 0 22.328-.459 35.664-5.964a1.569 1.569 0 0 0-.6-3.018z" class="cls-1"/>
            </g>
        </g>
        <g id="Group_114">
            <path id="Path_158" d="M2832.693 4770.943a1.533 1.533 0 0 0-.857-.836 1.565 1.565 0 0 0-1.193.011 1.581 1.581 0 0 0-.846.856l-.826 2.07-.408-.541a30.856 30.856 0 0 0-13.55-10.216 1.567 1.567 0 1 0-1.121 2.926 27.622 27.622 0 0 1 12.459 9.554l.357.5-3.507.592a1.565 1.565 0 0 0 .254 3.109c.286-.02 5.975-.948 6.373-1.07.693-.255.815-.52 1.906-3.314.266-.662.581-1.468.969-2.436a1.544 1.544 0 0 0-.01-1.205z" class="cls-1"/>
        </g>
        <g id="Group_115">
            <path id="Path_159" d="M2790.227 4815.04a28.037 28.037 0 0 1-8.615-7.728l-.367-.5 3.508-.591a1.566 1.566 0 1 0-.51-3.09c-1.183.194-2.141.357-2.926.479-3.324.541-3.436.571-3.824 1-.194.224-.194.224-1.2 2.732l-1.04 2.59a1.566 1.566 0 0 0 .153 1.468 1.587 1.587 0 0 0 1.3.683 1.538 1.538 0 0 0 1.448-.979l.836-2.059.408.53a30.549 30.549 0 0 0 9.268 8.177 1.5 1.5 0 0 0 .774.214 1.57 1.57 0 0 0 .785-2.926z" class="cls-1"/>
        </g>
        <g id="Group_116">
            <path id="Path_160" d="M2791.675 4774.767a5.376 5.376 0 0 0-4.588-2.539c-.1 0-.194.01-.295.01a5.406 5.406 0 0 0-4.619 3.018 4.613 4.613 0 0 0-.112 3.864 4.754 4.754 0 0 0 2.926 2.692 1.65 1.65 0 0 1 1.009.928 1.515 1.515 0 0 1-.03 1.264 2.323 2.323 0 0 1-1.968 1.285 2.348 2.348 0 0 1-2.09-1.081 1.546 1.546 0 0 0-.979-.693 1.944 1.944 0 0 0-.347-.041 1.525 1.525 0 0 0-.835.245 1.567 1.567 0 0 0-.48 2.161 5.463 5.463 0 0 0 9.5-.489 4.613 4.613 0 0 0 .112-3.864 4.756 4.756 0 0 0-2.926-2.692 1.654 1.654 0 0 1-1.01-.928 1.518 1.518 0 0 1 .031-1.264 2.334 2.334 0 0 1 4.058-.2 1.562 1.562 0 1 0 2.64-1.672z" class="cls-2"/>
        </g>
        <g id="Group_117">
            <path id="Path_161" d="M2802.034 4773.89a1.565 1.565 0 1 0 1.56 1.56 1.568 1.568 0 0 0-1.56-1.56z" class="cls-1"/>
        </g>
        <g id="Group_118">
            <path id="Path_162" d="M2825.821 4806.71a1.567 1.567 0 0 0-.836-.856 1.532 1.532 0 0 0-1.2 0 1.5 1.5 0 0 0-.847.846c-.662 1.58-1.886 3.548-3.905 3.9a5.808 5.808 0 0 1-5.342-2.2l-.449-.52 3.233-.571a1.555 1.555 0 0 0 1.264-1.805 1.572 1.572 0 0 0-1.815-1.275l-4.129.734-.092-.336a11.053 11.053 0 0 1-.357-2l-.02-.347 4.129-.724a1.568 1.568 0 1 0-.541-3.089l-3.232.571.245-.632a5.835 5.835 0 0 1 4.262-3.905c2.039-.357 3.844 1.08 5.006 2.345a1.573 1.573 0 0 0 2.212.091 1.544 1.544 0 0 0 .51-1.09 1.569 1.569 0 0 0-.418-1.122c-2.63-2.865-5.73-3.966-8.717-3.11-3.191.908-5.628 3.875-6.372 7.749l-.051.265-1.122.194a1.568 1.568 0 0 0 .54 3.089l.164-.03.3.193.031.255a5.726 5.726 0 0 0 .112.846 7.448 7.448 0 0 0 .184.847l.04.163-.183.377-.194.021a1.558 1.558 0 0 0-1.254 1.814 1.555 1.555 0 0 0 1.815 1.264l1.121-.193.133.224c2.029 3.385 5.332 5.353 8.646 5.108 3.1-.214 5.628-2.314 7.127-5.9a1.517 1.517 0 0 0 .002-1.191z" class="cls-2"/>
        </g>
    </g>
</svg>
