<svg xmlns="http://www.w3.org/2000/svg" width="61.524" height="67.664" viewBox="0 0 61.524 67.664">
    <defs>
        <style>
            .cls-3{fill:#081f3b}.cls-4{fill:#e34}
        </style>
    </defs>
    <g id="Group_3" transform="translate(-1300.352 -1362.549)">
        <g id="Group_1">
            <path id="Path_1" fill="#f6fbfe" d="M1351.144 1371.432c-13.346-.889-22.049-8.415-28.481-8.845s-20.185 2.368-22.16 31.954 15.906 35.141 22.982 35.612c33.125 2.212 51.3-57.145 27.659-58.721zm0 0"/>
        </g>
        <path id="Path_2" fill="#a4aec0" d="M1327.225 1423.586a2.9 2.9 0 1 1 3.866-1.373 2.9 2.9 0 0 1-3.866 1.373zm1.662-3.492a.967.967 0 1 0 .458 1.289.967.967 0 0 0-.458-1.289zm0 0"/>
        <g id="Group_2">
            <path id="Path_3" d="M1329.151 1404.675a8.647 8.647 0 0 1-8.637-8.637v-6.282a8.637 8.637 0 0 1 17.274 0v6.282a8.647 8.647 0 0 1-8.637 8.637zm0-21.986a7.075 7.075 0 0 0-7.067 7.067v6.282a7.067 7.067 0 0 0 14.134 0v-6.282a7.076 7.076 0 0 0-7.067-7.067z" class="cls-3"/>
            <path id="Path_4" d="M1327.58 1391.326h-5.5v-1.57h5.5a3.144 3.144 0 0 0 3.141-3.141h1.571a4.717 4.717 0 0 1-4.712 4.711z" class="cls-3"/>
            <path id="Path_5" d="M1345.64 1415.668h-1.57v-2.356a5.5 5.5 0 0 0-5.5-5.5h-18.845a5.5 5.5 0 0 0-5.5 5.5v2.356h-1.57v-2.356a7.075 7.075 0 0 1 7.066-7.067h18.845a7.075 7.075 0 0 1 7.067 7.067z" class="cls-3"/>
            <path id="Path_6" d="M1340.929 1389.756h-1.571a10.208 10.208 0 1 0-20.415 0h-1.57a11.778 11.778 0 0 1 23.556 0z" class="cls-3"/>
            <path id="Path_7" d="M1341.714 1396.823h-2.356v-7.852h2.356a2.358 2.358 0 0 1 2.356 2.355v3.141a2.359 2.359 0 0 1-2.356 2.356zm-.785-1.571h.785a.786.786 0 0 0 .785-.785v-3.141a.786.786 0 0 0-.785-.785h-.785z" class="cls-4"/>
            <path id="Path_8" d="M1318.943 1396.823h-2.355a2.359 2.359 0 0 1-2.356-2.356v-3.141a2.358 2.358 0 0 1 2.356-2.355h2.355zm-2.355-6.282a.787.787 0 0 0-.786.785v3.141a.787.787 0 0 0 .786.785h.785v-4.711z" class="cls-3"/>
            <path id="Path_9" d="M1337.788 1399.964h-7.067v-1.571h7.067a1.571 1.571 0 0 0 1.57-1.57v-.785h1.571v.785a3.144 3.144 0 0 1-3.141 3.141z" class="cls-4"/>
            <path id="Path_10" d="M1329.151 1401.534a2.356 2.356 0 1 1 2.355-2.356 2.359 2.359 0 0 1-2.355 2.356zm0-3.141a.786.786 0 1 0 .785.785.786.786 0 0 0-.785-.785z" class="cls-4"/>
            <path id="Rectangle_2" d="M0 0H1.57V8.084H0z" class="cls-3" transform="translate(1324.538 1407.412) rotate(-29.055)"/>
            <path id="Rectangle_3" d="M0 0H8.084V1.57H0z" class="cls-3" transform="matrix(0.486, -0.874, 0.874, 0.486, 1328.464, 1413.715)"/>
            <path id="Path_11" d="M1329.151 1415.781l-7.852-4.362v-4.388h1.57v3.464l6.282 3.49 6.282-3.49v-3.464H1337v4.388z" class="cls-3"/>
        </g>
    </g>
</svg>
