<svg xmlns="http://www.w3.org/2000/svg" width="105.907" height="17.251" viewBox="0 0 105.907 17.251">
    <defs>
        <style>
            .cls-1{fill:#5b86ba}
        </style>
    </defs>
    <g id="Group_177" transform="translate(-638.196 -2912.106)">
        <path id="Path_542" d="M672.942 2929.355l2.457-13.293a.313.313 0 0 0-.177-.023h-2.783c-.186 0-.184 0-.219.188q-.292 1.579-.587 3.16-.3 1.653-.607 3.307l-.791 4.293q-.2 1.105-.41 2.21c-.029.157-.028.157-.187.159h-19.894c-.293 0-.221.04-.315-.229l-1.637-4.73q-.54-1.566-1.077-3.132l-.874-2.533c-.012-.034-.028-.067-.053-.127a3.617 3.617 0 0 0-.123.594c-.216 1.182-.424 2.365-.635 3.548l-.672 3.785q-.234 1.326-.464 2.653c-.03.17-.031.171-.2.172h-5.417c-.078 0-.092-.032-.078-.1q.119-.61.23-1.223.291-1.57.579-3.142.208-1.133.419-2.265l.508-2.74.468-2.539q.235-1.28.472-2.558.213-1.151.428-2.3a1.931 1.931 0 0 0 .045-.237c.006-.109.065-.134.16-.123a.623.623 0 0 0 .074 0h5.53c.194 0 .2 0 .263.179l1.092 2.988 1.461 4 1.156 3.162c.014.037.012.09.084.1l.126-.685.546-2.978.508-2.777q.231-1.262.464-2.522l.236-1.3c.032-.174.03-.175.213-.176h33.6a.906.906 0 0 1 .247.013c-.087.485-.171.967-.258 1.448q-.2 1.114-.407 2.229c0 .019 0 .038-.007.056-.034.169-.034.17-.217.17h-5.043c-.239 0-.2-.045-.25.216-.164.864-.32 1.729-.479 2.594l-.015.092c-.013.069.01.108.086.1h4.894c.239 0 .235 0 .192.237q-.255 1.378-.506 2.759c-.018.1-.038.2-.053.292-.011.074-.046.111-.123.107h-5.025c-.084-.006-.121.031-.136.115-.11.621-.224 1.242-.337 1.864l-.18.994a.4.4 0 0 0 .218.023h8.038c.112 0 .225-.007.336 0 .092.008.118-.033.132-.112.052-.292.109-.584.163-.876q.252-1.369.5-2.741l.588-3.178c.2-1.1.413-2.2.617-3.3.168-.907.33-1.816.5-2.722.023-.126-.005-.288.1-.365.086-.065.229-.019.347-.019h5.334a2.677 2.677 0 0 1-.07.464q-.388 2.11-.784 4.219-.4 2.163-.811 4.327l-.6 3.2c-.02.11-.03.222-.054.331-.014.063 0 .095.067.095h3.6c.193 0 .19 0 .223-.185q.247-1.353.5-2.7l.431-2.32c.168-.913.332-1.827.5-2.74q.271-1.48.548-2.959l.3-1.608c.017-.1.057-.126.146-.117h5.604c-.05.274-.1.533-.144.792q-.237 1.278-.477 2.556-.354 1.89-.706 3.781l-.782 4.2c-.074.4-.144.792-.215 1.188-.02.109-.017.114.1.115H707.173c.176 0 .18 0 .212-.173q.216-1.151.428-2.3c.143-.78.283-1.56.427-2.339q.273-1.481.549-2.959l.814-4.383c.024-.128.046-.256.068-.384.011-.062.035-.1.109-.093a1.173 1.173 0 0 0 .131 0h10.5a.541.541 0 0 1 .212.017l-.19 1.056c-.154.847-.312 1.693-.465 2.54-.054.3-.05.3-.362.3H714.7c-.159 0-.157 0-.186.159l-.508 2.721c0 .024 0 .049-.008.1.218.007.432 0 .646 0h4.544a3.261 3.261 0 0 1-.082.531c-.159.9-.324 1.792-.487 2.687a.733.733 0 0 0-.022.09c0 .093-.055.115-.135.111h-4.931c-.17 0-.172 0-.2.165l-.49 2.668c-.009.049-.012.1-.019.149a.507.507 0 0 0 .2.014h8.219a.755.755 0 0 1 .094 0c.082.008.117-.02.133-.109.108-.6.223-1.206.334-1.808q.216-1.159.429-2.32l.46-2.483.4-2.174.547-2.978.239-1.278c.032-.167.035-.166.2-.168h6.631a14.914 14.914 0 0 1 2.816.249 7.825 7.825 0 0 1 2.2.729 4.245 4.245 0 0 1 1.883 1.8 4.362 4.362 0 0 1 .455 1.561 6.574 6.574 0 0 1 .023 1.04 5.437 5.437 0 0 1-.85 2.795 4.709 4.709 0 0 1-2.386 1.825 9.274 9.274 0 0 1-1.241.329l-.037.006c-.166.037-.167.037-.109.19l.2.522q.9 2.394 1.807 4.788l.521 1.384a.369.369 0 0 1-.168.017h-5.324c-.185 0-.186 0-.239-.182l-1.92-6.472c-.163-.546-.327-1.092-.5-1.656a1.982 1.982 0 0 0-.121.508c-.2 1.053-.383 2.108-.576 3.162-.181.986-.366 1.972-.548 2.958q-.14.759-.274 1.518c-.029.162-.028.163-.2.164h-53.178zm-6.365-13.3a.687.687 0 0 0-.231-.017h-8.16a1.071 1.071 0 0 1-.112 0c-.086-.009-.118.027-.132.112-.042.276-.1.549-.143.824-.1.6-.206 1.208-.313 1.812-.04.225-.045.224.185.224h5.061c.051 0 .083.021.074.079-.006.037-.009.074-.016.111-.107.59-.216 1.181-.322 1.772-.078.432-.147.867-.234 1.3-.033.166 0 .171-.2.172h-5.173c-.069 0-.1.027-.107.1-.041.244-.088.487-.134.73l-.386 2.082c-.005.029-.016.062.038.089h8.428c.154 0 .156 0 .187-.159s.062-.341.094-.511q.246-1.352.495-2.7c.145-.791.293-1.582.439-2.373l.472-2.556c.06-.37.124-.729.19-1.091zm61.393 4.132a.154.154 0 0 0 .114.029c.473 0 .946.011 1.419 0a4.545 4.545 0 0 0 1.546-.3 2.159 2.159 0 0 0 1.308-1.294 2.578 2.578 0 0 0 .114-1.407 1.714 1.714 0 0 0-.991-1.27 3.066 3.066 0 0 0-.8-.244 10.634 10.634 0 0 0-1.747-.088c-.1 0-.129.045-.144.129q-.115.639-.234 1.278c-.117.632-.236 1.264-.353 1.9l-.232 1.267z" class="cls-1"/>
        <path id="Path_543" d="M741.542 2929.355a2.543 2.543 0 0 1-2.535-2.584 2.548 2.548 0 1 1 5.094.157 2.532 2.532 0 0 1-2.559 2.427zm-.005-.448a2.088 2.088 0 1 0-2.076-2.094 2.1 2.1 0 0 0 2.076 2.094z" class="cls-1"/>
        <path id="Path_544" d="M742.05 2926.939a4.913 4.913 0 0 1 .972 1.159.8.8 0 0 1-.413.048c-.073 0-.1-.066-.136-.115-.179-.238-.347-.483-.526-.721a.694.694 0 0 0-.747-.293c-.084.017-.189-.027-.248.042s.011.152.009.232c-.008.266.019.531.033.8.007.141 0 .15-.139.145-.073 0-.152.059-.213 0s-.019-.129-.033-.2a1.7 1.7 0 0 1-.014-.277l-.08-1.539-.032-.611c0-.069.022-.1.1-.1.466 0 .929-.057 1.4-.052a.689.689 0 0 1 .7.5.717.717 0 0 1-.487.928zm-1.166-.8c-.011.156.039.308.035.462 0 .09.043.1.115.095.259-.015.519-.023.778-.042a.7.7 0 0 0 .3-.1.411.411 0 0 0-.064-.738.793.793 0 0 0-.348-.044 5.729 5.729 0 0 1-.7.035c-.077 0-.117.021-.111.1s-.005.156-.005.23z" class="cls-1"/>
    </g>
</svg>
