<svg xmlns="http://www.w3.org/2000/svg" width="91.984" height="17.384" viewBox="0 0 91.984 17.384">
    <defs>
        <style>
            .cls-1{fill:#5b86ba}
        </style>
    </defs>
    <g id="Group_180" transform="translate(-1422.071 -2929.578)">
        <path id="Path_563" d="M1501.1 2933.537h4.172c.323 0 .332.246.4.443q.966 2.7 1.925 5.393c.047.131.1.261.2.516.373-1.128.711-2.145 1.046-3.163.3-.906.606-1.81.884-2.722a.555.555 0 0 1 .637-.474c1.2.027 2.393.01 3.681.01l-1.6 3.77-2.666 6.282c-.031.075-.065.149-.093.225a4.524 4.524 0 0 1-4.769 3.144c-4.554-.03-9.108 0-13.662 0-3.268 0-6.535-.011-9.8.008-.512 0-.652-.123-.481-.614.205-.589.069-1.434.534-1.746.425-.285 1.182-.09 1.793-.09h20.218a2.039 2.039 0 0 0 1.839-.752.955.955 0 0 0 .108-1.109c-1.389-2.826-2.74-5.671-4.1-8.511-.081-.182-.154-.364-.266-.61z" class="cls-1"/>
        <path id="Path_564" d="M1443.794 2935.965a2.924 2.924 0 0 1-1.655.167.857.857 0 0 0-.868.495c-1.113 1.986-2.266 3.95-3.383 5.934a.769.769 0 0 1-.863.452c-3.355-.292-6.712-.553-10.068-.83-.485-.04-.968-.111-1.452-.2 2.645 0 5.29-.01 7.934.009a.8.8 0 0 0 .815-.474c.573-1.05 1.182-2.081 1.825-3.2l-14.008-1.512v-.1h.612q6.892 0 13.785.007c.423 0 .708-.079.8-.576l-8.962-1.49.013-.087h7.842c.334 0 .615-.037.733-.393a1.069 1.069 0 0 1 1.319-.753c.257.029.726.191.745-.243.012-.251-.438-.153-.674-.179-3.224-.361-6.449-.7-9.674-1.053-1.152-.125-2.3-.253-3.451-.477h14.503c.386 0 .734-.013.935-.513l-11.159-1.212c6.19.009 12.376-.359 18.732-.028l-1.687 2.156c-.184.234-.419.088-.628.073-1.52-.112-2.121.208-2.658 1.487h.916c1.008 0 .993-.008.529.851a4.989 4.989 0 0 0-.737 1.445l.006-.006q-.227.047-.126.254z" class="cls-1"/>
        <path id="Path_565" d="M1479.3 2933.554c.449-.006.9.011 1.346-.025.418-.034.608.093.551.533a4.64 4.64 0 0 0-.005.621c.168.119.24.025.306-.04a4.5 4.5 0 0 1 5.144-.953c1.829.73 2.506 2.335 2.708 4.17a6.377 6.377 0 0 1-.152 2.178c-.844 3.529-5.017 4.05-7.185 2.543-.468-.325-.555-.216-.668.27-.281 1.2-.633 2.391-.919 3.594a.551.551 0 0 1-.657.507c-1.285-.025-2.571-.021-3.856 0-.428.007-.578-.053-.429-.536.33-1.064.59-2.15.878-3.227.678-1.227 1.37-2.447 2.029-3.685.564-1.058 1.121-2.122 1.624-3.21.618-1.332.406-2.049-.715-2.74zm2.206 4.93a4.479 4.479 0 0 0 .043.578 1.8 1.8 0 0 0 1.776 1.544 1.6 1.6 0 0 0 1.707-1.265 3.917 3.917 0 0 0 .01-1.988 1.708 1.708 0 0 0-2.109-1.271c-.949.206-1.421.951-1.424 2.402z" class="cls-1"/>
        <path id="Path_566" d="M1502.3 2943.155c-1.309 0-2.452-.018-3.594.008-.575.013-.65-.4-.76-.779-.089-.309-.188-.335-.448-.147a6.73 6.73 0 0 1-5.614.917 2.632 2.632 0 0 1-2.275-2.688 2.414 2.414 0 0 1 1.792-2.289 20.9 20.9 0 0 1 3.339-.732 18.22 18.22 0 0 0 2.319-.542c.2-.068.539-.023.529-.389a.918.918 0 0 0-.4-.784 2.706 2.706 0 0 0-3.054.58.56.56 0 0 1-.638.3c-1.035-.109-2.071-.2-3.109-.269-.437-.028-.442-.193-.325-.544a3.137 3.137 0 0 1 2.36-2.1 14.758 14.758 0 0 1 6.676-.078 3.134 3.134 0 0 1 2.637 3.336c.011 1.1 0 2.2 0 3.293a4.543 4.543 0 0 0 .565 2.907zm-4.7-4.029c.111-.435-.067-.569-.581-.372a11.363 11.363 0 0 1-1.123.286 6.413 6.413 0 0 0-1.562.513.869.869 0 0 0 .024 1.6 2.32 2.32 0 0 0 3.237-2.027z" class="cls-1"/>
        <path id="Path_567" d="M1443.906 2935.728c.15.132.212-.028.277-.1a7.609 7.609 0 0 1 5.1-2.312 19.169 19.169 0 0 1 4.633.085c1.586.236 2.132 1.131 1.566 2.636a23.34 23.34 0 0 1-1.6 2.937c-.45.817-.926 1.621-1.382 2.435a1.979 1.979 0 0 0-.36 1.023c.036.6-.282.63-.745.616-.875-.026-1.752-.007-2.629-.008-.724 0-.723 0-.584-.71.016-.079.022-.16.032-.241.022-.027.069-.069.063-.079-.044-.072-.092-.035-.136.007a10.693 10.693 0 0 1-4.067 1.214 6.584 6.584 0 0 1-2.423-.2 1.431 1.431 0 0 1-.975-2.065 4.839 4.839 0 0 1 2.846-2.689 22.527 22.527 0 0 1 4.47-.96c.922-.167 1.839-.348 2.748-.58a.767.767 0 0 0 .622-.845c-.006-.456-.423-.433-.736-.451a3.494 3.494 0 0 0-2.882.888.6.6 0 0 1-.54.2c-1.033-.117-2.068-.217-3.1-.314-.175-.017-.327-.025-.314-.255l-.008.011c.127-.042.25-.087.126-.254zm6.028 2.792c-1.225.328-2.458.473-3.625.9a1.98 1.98 0 0 0-.969.713c-.394.559-.21.982.46 1.073a4.165 4.165 0 0 0 4.134-2.686z" class="cls-1"/>
        <path id="Path_568" d="M1479.3 2933.554c1.118.691 1.33 1.408.715 2.739-.5 1.088-1.06 2.152-1.624 3.21-.659 1.238-1.351 2.458-2.029 3.685a66.286 66.286 0 0 1-7.833.1 11.8 11.8 0 0 1-2-.236 1.475 1.475 0 0 1-1.118-2.332 5.646 5.646 0 0 1 4.311-3.054 42.845 42.845 0 0 1 5.729-.462c.326-.023.654-.043.98-.034a1.485 1.485 0 0 0 1.422-.954c.278-.537.143-.9-.433-1.093a5.728 5.728 0 0 0-2.309-.121c-.75.057-1.495.195-2.24.309a1.582 1.582 0 0 0-1.327 1.044 1 1 0 0 1-1.149.677c-.5-.022-1.153.057-1.405-.4-.223-.405.233-.852.468-1.243a4.567 4.567 0 0 1 3.577-1.949 17.05 17.05 0 0 1 6.265.114zm-7.968 9.091a5.143 5.143 0 0 1 .615 0c.582.078.853-.087.926-.745a3.6 3.6 0 0 1 .917-2.6.611.611 0 0 0-.2-1.023 1.312 1.312 0 0 0-1.331.168c-.42.247-.817.609-.726 1.1a1.286 1.286 0 0 1-.255 1c-.192.31-.386.621-.558.943-.187.352-.674.76-.514 1.03.194.34.783.055 1.129.127z" class="cls-1"/>
        <path id="Path_569" d="M1463.448 2933.2a18.72 18.72 0 0 1 2.448.209 1.8 1.8 0 0 1 1.58 1.987c-.016.3-.115.423-.429.443-1.1.069-2.2.167-3.3.253-.244.019-.5.075-.485-.323a.5.5 0 0 0-.42-.469 2.488 2.488 0 0 0-2.27.328c-.193.147-.4.335-.331.607.062.245.311.307.534.343 1.006.164 2.02.281 3.017.485 2.188.447 2.644 1.837 1.169 3.526a7.951 7.951 0 0 1-5.144 2.545 13.643 13.643 0 0 1-4.751-.118c-1.288-.278-1.888-1.11-1.678-2.194a.5.5 0 0 1 .553-.485c1.181-.063 2.361-.163 3.538-.278.3-.03.409.028.391.334a.7.7 0 0 0 .632.773 3.228 3.228 0 0 0 2.413-.4c.276-.177.56-.407.488-.778-.065-.338-.414-.362-.685-.42-1.075-.231-2.164-.4-3.228-.675-1.488-.378-1.9-1.411-1.1-2.721a6.4 6.4 0 0 1 4.5-2.756 20.812 20.812 0 0 1 2.558-.216z" class="cls-1"/>
        <path id="Path_570" d="M1443.912 2935.722c.124.167 0 .212-.126.254q-.101-.207.126-.254z" class="cls-1"/>
        <path id="Path_571" d="M1448.148 2942.018c.044-.042.092-.079.136-.007.006.01-.041.052-.063.079-.021-.023-.049-.047-.073-.072z" class="cls-1"/>
    </g>
</svg>
