<svg xmlns="http://www.w3.org/2000/svg" width="69.035" height="62.115" viewBox="0 0 69.035 62.115">
    <defs>
        <style>
            .cls-5{fill:#e34}
        </style>
    </defs>
    <g id="Group_14" transform="translate(-556.38 -1362.388)">
        <g id="Group_9">
            <path id="Path_16" fill="#f6fbfe" d="M623.622 1398.339c-7.187-11.281-6.276-22.751-9.738-28.188s-13.862-14.863-38.872 1.065-18.9 33.627-15.087 39.608c17.833 28 76.425 7.5 63.7-12.485zm0 0"/>
        </g>
        <path id="Path_17" fill="#a4aec0" d="M595.575 1420.884a2.9 2.9 0 1 1 3.866-1.373 2.9 2.9 0 0 1-3.866 1.373zm1.662-3.492a.967.967 0 1 0 .458 1.288.967.967 0 0 0-.458-1.288zm0 0"/>
        <g id="Group_13">
            <g id="Group_10">
                <path id="Path_18" fill="#232a30" d="M598.869 1408.258a.852.852 0 0 1-.851.851h-9.341l-7.789 6.174a2.239 2.239 0 0 1-1.392.5 2.088 2.088 0 0 1-1.017-.267 2.215 2.215 0 0 1-1.248-2.012v-4.393h-1.009a5.042 5.042 0 0 1-5.042-5.041v-16.041a5.073 5.073 0 0 1 5.042-5.1h3.978a.858.858 0 0 1 0 1.716h-3.981a3.369 3.369 0 0 0-3.333 3.383v16.041a3.339 3.339 0 0 0 3.333 3.332h1.868a.855.855 0 0 1 .858.858v5.244a.513.513 0 0 0 .332.49.459.459 0 0 0 .548-.058l8.02-6.354a.881.881 0 0 1 .527-.18h9.643a.854.854 0 0 1 .854.857z"/>
            </g>
            <g id="Group_12">
                <g id="Group_11">
                    <path id="Path_19" fill="#081f3b" d="M607.241 1409.329a1.482 1.482 0 0 1-.912-.322l-7.978-6.368-9.616.025a4.328 4.328 0 0 1-4.351-4.294v-16.041a4.409 4.409 0 0 1 4.351-4.351h21.789a4.331 4.331 0 0 1 4.3 4.351v16.041a4.3 4.3 0 0 1-4.3 4.294h-1.757v5.14a1.531 1.531 0 0 1-.883 1.372 1.426 1.426 0 0 1-.643.153zm-18.506-29.413a2.445 2.445 0 0 0-2.413 2.413v16.041a2.387 2.387 0 0 0 2.413 2.356h9.679a1.838 1.838 0 0 1 1.135.391l7.28 5.811v-4.375a1.83 1.83 0 0 1 1.827-1.827h1.868a2.362 2.362 0 0 0 2.364-2.356v-16.041a2.391 2.391 0 0 0-2.364-2.413z"/>
                    <path id="Path_20" d="M599.626 1396.683h-8.121a1.342 1.342 0 1 1 0-2.685h8.121a1.342 1.342 0 1 1 0 2.685zm-8.121-1.716a.373.373 0 1 0 0 .747h8.121a.373.373 0 1 0 0-.747z" class="cls-5"/>
                    <path id="Path_21" d="M607.748 1391.692h-16.243a1.343 1.343 0 1 1 0-2.685h16.243a1.343 1.343 0 0 1 0 2.685zm-16.243-1.716a.374.374 0 1 0 0 .747h16.243a.374.374 0 0 0 0-.747z" class="cls-5"/>
                    <path id="Path_22" d="M607.748 1386.643h-16.243a1.342 1.342 0 1 1 0-2.685h16.243a1.342 1.342 0 0 1 0 2.685zm-16.243-1.716a.373.373 0 1 0 0 .747h16.243a.373.373 0 0 0 0-.747z" class="cls-5"/>
                </g>
                <path id="Path_23" fill="#081f3b" fill-rule="evenodd" d="M598.018 1407.4h-9.643a.881.881 0 0 0-.527.18l-8.02 6.354a.459.459 0 0 1-.548.058.513.513 0 0 1-.332-.49v-5.244a.855.855 0 0 0-.858-.858h-1.868a3.339 3.339 0 0 1-3.333-3.332v-16.041a3.369 3.369 0 0 1 3.333-3.383h3.978a.858.858 0 0 0 0-1.716h-3.981a5.073 5.073 0 0 0-5.042 5.1v16.041a5.042 5.042 0 0 0 5.042 5.041h1.009v4.393a2.215 2.215 0 0 0 1.248 2.012 2.088 2.088 0 0 0 1.017.267 2.239 2.239 0 0 0 1.392-.5l7.789-6.174h9.341a.854.854 0 0 0 0-1.709z"/>
            </g>
        </g>
    </g>
</svg>
