<svg xmlns="http://www.w3.org/2000/svg" width="79.27" height="87.062" viewBox="0 0 79.27 87.062">
    <defs>
        <style>
            .cls-3{fill:#081f3b}
        </style>
    </defs>
    <g id="Group_200" transform="translate(-2551.088 -2489.317)">
        <g id="Group_198">
            <g id="Group_197">
                <path id="Path_647" fill="#f6fbfe" d="M2571.256 2574.143c17.406-3.238 31.035 3.558 39.423 2s25.106-9.658 17.934-48.244-31.923-39.843-41.15-38.126c-43.2 8.029-47.035 90.1-16.207 84.37zm0 0"/>
            </g>
            <path id="Path_648" fill="#a4aec0" d="M2576.881 2501.524a3.839 3.839 0 1 1-2.367 4.887 3.842 3.842 0 0 1 2.367-4.887zm1.68 4.835a1.28 1.28 0 1 0-1.63-.788 1.28 1.28 0 0 0 1.63.788zm0 0"/>
        </g>
        <g id="Group_199">
            <path id="Path_649" d="M2612.205 2542.9a1.022 1.022 0 0 0-1.32.592 21.483 21.483 0 0 1-3 5.4c-.338-.422-.688-.834-1.047-1.229a20.106 20.106 0 0 0 3.884-11.827 19.85 19.85 0 0 0-5.99-14.261 1.014 1.014 0 0 0-.717-.294h-.008a1.01 1.01 0 0 0-.721.306 1.025 1.025 0 0 0 .013 1.447 17.822 17.822 0 0 1 5.378 12.8 18.068 18.068 0 0 1-3.3 10.35 25.4 25.4 0 0 0-7.618-4.921l.308-.3a10.587 10.587 0 0 0 2.206-3.072 1.023 1.023 0 0 0-1.849-.875 8.51 8.51 0 0 1-1.78 2.479l-.769.745a1.629 1.629 0 0 0 .544 2.687 23.5 23.5 0 0 1 10.117 7.56 21.849 21.849 0 0 1-3.444 3 21.553 21.553 0 0 1-28.191-3.014 23.5 23.5 0 0 1 10.109-7.55 1.628 1.628 0 0 0 .544-2.687l-.769-.745a8.52 8.52 0 0 1 2-13.677 8.521 8.521 0 0 1 12.413 8.32 1.022 1.022 0 1 0 2.037.178 10.565 10.565 0 0 0-20.976-2.469 10.446 10.446 0 0 0 3.1 9.116l.307.3a25.382 25.382 0 0 0-7.619 4.922 17.916 17.916 0 0 1 .79-21.743 1.024 1.024 0 0 0-.139-1.439 1.026 1.026 0 0 0-1.44.14 19.96 19.96 0 0 0-.667 24.518c-.359.4-.707.8-1.038 1.218a21.312 21.312 0 0 1-4.406-13.046 21.579 21.579 0 0 1 25.531-21.2 1.022 1.022 0 0 0 .374-2.01 23.834 23.834 0 0 0-4.341-.4 23.607 23.607 0 1 0 22.074 31.993 1.022 1.022 0 0 0-.592-1.318z" class="cls-3"/>
            <path id="Path_650" d="M2608.811 2520.663a1.023 1.023 0 1 0-1.566 1.316 21.586 21.586 0 0 1 4.539 18.5 1.021 1.021 0 0 0 .778 1.218 1.023 1.023 0 0 0 1.219-.779 23.631 23.631 0 0 0-4.97-20.254z" class="cls-3"/>
            <path id="Path_651" d="M2577.7 2520.664a1.01 1.01 0 0 0-.353.7 1.024 1.024 0 0 0 1.02 1.1 1.01 1.01 0 0 0 .666-.249 17.945 17.945 0 0 1 16.668-3.635 1.023 1.023 0 1 0 .567-1.965 19.987 19.987 0 0 0-18.568 4.051z" class="cls-3"/>
            <path id="Path_652" fill="#e34" d="M2603.926 2520.236a6.991 6.991 0 1 0-6.99-6.991 7 7 0 0 0 6.99 6.991zm-4.945-6.991a4.946 4.946 0 1 1 4.945 4.946 4.951 4.951 0 0 1-4.945-4.946z"/>
        </g>
    </g>
</svg>
