<?xml version="1.0" encoding="utf-8"?>
<!-- Generator: Adobe Illustrator 16.0.0, SVG Export Plug-In . SVG Version: 6.00 Build 0)  -->
<!DOCTYPE svg PUBLIC "-//W3C//DTD SVG 1.1//EN" "http://www.w3.org/Graphics/SVG/1.1/DTD/svg11.dtd">
<svg version="1.1" id="Layer_1" xmlns="http://www.w3.org/2000/svg" xmlns:xlink="http://www.w3.org/1999/xlink" x="0px" y="0px"
	 width="153.68px" height="47.273px" viewBox="0 0 153.68 47.273" enable-background="new white" xml:space="preserve">
<g id="Group_72" transform="translate(-2597.477 -5238.83)">
	<g id="Group_70">
		<path id="Path_87" d="M2597.477,5281.694v-30.766h10.632l5.43,22.441l5.43-22.441h10.632v30.766h-6.244v-23.8h-0.679
			l-6.017,22.441h-6.243l-6.018-22.437h-0.679v23.8L2597.477,5281.694z"/>
		<path id="Path_88" d="M2633.534,5256.449v-5.521h22.622v5.521h-8.144v25.246h-6.243v-25.246H2633.534z"/>
	</g>
	<path id="Rectangle_82" d="M2697.37,5250.929h1.251v30.764h-1.251V5250.929z"/>
	<g id="Group_71">
		<path id="Path_90" fill="white" d="M2739.374,5263.959h-11.51c-0.269-0.023-0.3-0.061-0.3-0.334
			c0.005-2.029,0.013-4.063,0.013-6.093c0-3.267-0.002-6.533-0.006-9.8c0-0.323,0.012-0.352,0.342-0.4
			c1.534-0.22,3.067-0.437,4.601-0.648c2.219-0.313,4.437-0.621,6.655-0.926c1.923-0.265,3.846-0.519,5.769-0.778
			c1.639-0.221,3.276-0.445,4.914-0.674c0.314-0.041,0.624-0.094,0.938-0.134c0.333-0.044,0.353-0.02,0.353,0.327
			c0,1.4-0.012,2.8-0.011,4.2c0.005,4.889,0.011,9.779,0.019,14.671v0.138c-0.007,0.34-0.022,0.357-0.357,0.358
			c-1.083,0.005-2.167,0.007-3.25,0.008h-8.172L2739.374,5263.959z"/>
		<path id="Path_91" fill="white" d="M2739.54,5266.435c3.643,0.069,7.42,0.04,11.199,0.063c0.4,0,0.412,0.01,0.412,0.399
			c0,5.313,0.003,10.624,0.007,15.936v2.933c0,0.356-0.02,0.374-0.354,0.323c-2.214-0.329-4.435-0.623-6.652-0.942
			c-2.559-0.369-5.117-0.746-7.685-1.062c-1.775-0.218-3.544-0.5-5.316-0.744c-1.043-0.146-2.085-0.293-3.13-0.423
			c-0.372-0.048-0.399-0.121-0.393-0.438c0.027-0.753-0.006-1.5-0.008-2.257l-0.024-13.4c0-0.412,0-0.416,0.441-0.414
			c3.369,0.012,6.74,0.024,10.11,0.038h1.4"/>
		<path id="Path_92" fill="white" d="M2716.447,5264.059h-8.527c-0.345,0-0.374-0.029-0.369-0.344
			c0.017-1.007,0.014-2.014,0.029-3.021c0.032-2.376,0.015-4.754,0.021-7.13c0-0.993-0.021-1.984-0.035-2.978
			c0-0.4,0-0.432,0.412-0.491c0.995-0.148,1.994-0.272,2.992-0.412c2.054-0.288,4.106-0.584,6.161-0.869
			c1.891-0.263,3.784-0.513,5.675-0.771c0.714-0.1,1.427-0.205,2.139-0.308c0.357-0.051,0.385-0.027,0.385,0.334
			c0,3.144,0.002,6.288,0.008,9.433c0,1.939,0.019,3.876,0.027,5.817v0.27c-0.009,0.366-0.023,0.38-0.39,0.382
			c-1.199,0-2.403,0.003-3.61,0.01h-4.918V5264.059z"/>
		<path id="Path_93" fill="white" d="M2716.464,5266.306h8.483c0.362,0,0.378,0.019,0.376,0.377
			c0,5.088-0.002,10.174-0.006,15.258c0,0.601,0,0.601-0.588,0.515c-2.65-0.365-5.301-0.729-7.953-1.091
			c-1.788-0.247-3.571-0.506-5.359-0.753c-1.176-0.162-2.354-0.313-3.531-0.472c-0.323-0.041-0.354-0.073-0.354-0.399
			c0.01-2.826,0.024-5.654,0.028-8.483c0-1.563-0.011-3.129-0.019-4.692c0-0.269,0.053-0.338,0.346-0.347
			c0.405-0.011,0.812,0,1.219,0l7.131,0.057h0.227V5266.306z"/>
	</g>
</g>
<g>
	<path fill="white" d="M67.736,35.12l6.347-0.658c0.182,1.437,0.718,2.573,1.609,3.412s1.919,1.258,3.083,1.258
		c1.33,0,2.457-0.54,3.379-1.62c0.921-1.081,1.383-2.709,1.383-4.886c0-2.04-0.458-3.57-1.372-4.59
		c-0.915-1.021-2.104-1.53-3.57-1.53c-1.829,0-3.468,0.809-4.919,2.425l-5.168-0.748l3.265-17.296h16.843v5.962H76.599l-0.997,5.645
		c1.42-0.71,2.871-1.065,4.353-1.065c2.826,0,5.221,1.028,7.186,3.083c1.965,2.056,2.947,4.723,2.947,8.002
		c0,2.735-0.793,5.177-2.381,7.322c-2.16,2.932-5.16,4.397-8.999,4.397c-3.068,0-5.569-0.823-7.503-2.471
		C69.27,40.115,68.114,37.9,67.736,35.12z"/>
</g>
</svg>
