<svg xmlns="http://www.w3.org/2000/svg" width="63.972" height="59.224">
    <defs>
        <style>
            .cls-4{fill:#081f3b}
        </style>
    </defs>
    <g id="Group_1749" data-name="Group 1749" transform="translate(-1438.708 -7719.758)">
        <g id="Group_1746" data-name="Group 1746">
            <path id="Path_4233" data-name="Path 4233" d="M1499.808 7748.026c-8.58-8.842-9.891-19.359-14.024-23.62s-15.268-10.833-34.87 8.186-10.8 33.848-6.249 38.535c21.292 21.948 70.339-7.441 55.143-23.1zm0 0" style="fill:#f6fbfe"/>
        </g>
        <path id="Path_4234" data-name="Path 4234" d="M1470.694 7730.962a2.672 2.672 0 1 1 2.671-2.672 2.675 2.675 0 0 1-2.671 2.672zm0-3.562a.891.891 0 1 0 .891.89.892.892 0 0 0-.891-.89zm0 0" style="fill:#a4aec0"/>
        <g id="Group_1748" data-name="Group 1748">
            <path id="Path_4235" data-name="Path 4235" d="m1475.18 7754.456-.989-7.656a4.5 4.5 0 0 0-8.935 1.154l.992 7.659a4.5 4.5 0 1 0 8.932-1.157zm-5.741.742-.993-7.656a1.288 1.288 0 0 1 2.555-.331l.988 7.656a1.286 1.286 0 1 1-2.55.331z" style="fill:#e34"/>
            <g id="Group_1747" data-name="Group 1747">
                <path id="Path_4236" data-name="Path 4236" class="cls-4" d="M1483.2 7734.869a.44.44 0 0 0-.492-.382l-28.831 3.734a.438.438 0 0 0-.378.489l3.73 28.834a.445.445 0 0 0 .493.379l28.83-3.735a.433.433 0 0 0 .379-.489zM1458.048 7767l-3.62-27.963 27.963-3.616 3.617 27.959z"/>
                <path id="Path_4237" data-name="Path 4237" class="cls-4" d="m1459.24 7765.956 25.351-3.281a.438.438 0 0 0 .378-.492l-3.281-25.35a.438.438 0 0 0-.491-.379l-25.351 3.281a.44.44 0 0 0-.378.492l.337 2.61a.439.439 0 0 0 .871-.112l-.282-2.176 24.48-3.168 3.169 24.48-24.48 3.169-2.662-20.565a.439.439 0 1 0-.87.113l2.718 21a.438.438 0 0 0 .491.378z"/>
            </g>
        </g>
    </g>
</svg>
