<svg xmlns="http://www.w3.org/2000/svg" width="69.746" height="58.189" viewBox="0 0 69.746 58.189">
    <defs>
        <style>
            .cls-1{fill:white}
        </style>
    </defs>
    <g id="Group_126" transform="translate(-3184.454 -4767.118)">
        <g id="Group_125">
            <g id="Group_123">
                <path id="Path_173" d="M3253.048 4809.8a9.39 9.39 0 0 1-5.69-8.649 9.63 9.63 0 0 1 4.645-8.138l1.167-.717-.771-1.137a12.541 12.541 0 0 0-9.908-5.408 15.751 15.751 0 0 0-7.063 1.5 8.744 8.744 0 0 1-2.349.732 8.939 8.939 0 0 1-2.532-.77 18.371 18.371 0 0 0-4.234-1.266v2.654a16.286 16.286 0 0 1 3.265 1.045 10.275 10.275 0 0 0 3.5.953 9.759 9.759 0 0 0 3.31-.915 14.7 14.7 0 0 1 5.34-1.35c.183 0 .373.008.564.023a10.2 10.2 0 0 1 7.154 3.257 12.026 12.026 0 0 0-4.706 9.564 11.865 11.865 0 0 0 6.24 10.511 25.955 25.955 0 0 1-2.845 5.515c-2.152 3.142-3.86 5.377-6.4 5.423a7.075 7.075 0 0 1-3.226-.809 11 11 0 0 0-4.79-1.129 11.611 11.611 0 0 0-4.988 1.16 7.992 7.992 0 0 1-3.044.839c-2.4.084-4.569-2.716-6.56-5.606-3.706-5.355-7.1-16.086-3.028-23.142a10.793 10.793 0 0 1 7.3-5.278v-2.654a13.359 13.359 0 0 0-9.565 6.62c-4.37 7.582-1.647 19.023 3.143 25.941 1.861 2.692 4.652 6.735 8.6 6.735a2.036 2.036 0 0 0 .221-.008 10.356 10.356 0 0 0 3.966-1.037 9.079 9.079 0 0 1 3.959-.953 8.481 8.481 0 0 1 3.752.915 9.51 9.51 0 0 0 4.31 1.014c4.081-.068 6.536-3.669 8.512-6.552a28.327 28.327 0 0 0 3.539-7.261l.367-1.182z" class="cls-1"/>
            </g>
            <g id="Group_124">
                <path id="Path_174" fill="#e34" d="M3244.459 4771.183l-.13-1.213-1.22.046a12.264 12.264 0 0 0-8.115 4.142 11.479 11.479 0 0 0-2.884 8.565l.138 1.045 1.06.084c.183.015.374.023.564.023a10.515 10.515 0 0 0 7.765-3.943 12.016 12.016 0 0 0 2.822-8.749zm-4.836 7.086h-.007a8.4 8.4 0 0 1-4.951 2.936 9.624 9.624 0 0 1 2.312-5.339 10.178 10.178 0 0 1 4.9-3.036 9.841 9.841 0 0 1-2.254 5.439z"/>
            </g>
        </g>
        <path id="Path_175" d="M3210.533 4794.119l-.016-10.847-8.169 1.068-.5-3.852c-.237-1.83-.092-2.669 2.357-2.99l5.568-.724-1.259-9.649-1.144-.007h-.015a57.325 57.325 0 0 0-6.423.511 11.717 11.717 0 0 0-8.008 4.21 12.21 12.21 0 0 0-2.1 9.275l.6 4.652-6.964.908 1.389 10.663 6.971-.907.885 6.773 2.593-.336-1.228-9.374-6.964.915-.717-5.476 6.972-.908-.946-7.253a9.643 9.643 0 0 1 1.579-7.323 9.2 9.2 0 0 1 6.277-3.226c1.968-.259 3.776-.4 4.958-.45l.618 4.744-2.975.389c-4.752.618-4.912 3.677-4.614 5.919l.838 6.445 7.811-1.014.007 5.568-7.1.923 2.7 20.708-5.735.747-1.106-8.443-2.593.336 1.441 11.036 10.923-1.426-2.7-20.7z" class="cls-1"/>
    </g>
</svg>
