<svg xmlns="http://www.w3.org/2000/svg" width="91.184" height="83.521" viewBox="0 0 91.184 83.521">
    <defs>
        <style>
            .cls-3{fill:#e34}
        </style>
    </defs>
    <g id="Group_76" transform="translate(-916.406 -1114.998)">
        <g id="Group_74">
            <path id="Path_400" fill="#eff4fa" d="M916.947 1138.313c4.6 18.057-1.593 32.841.623 41.543s11.877 25.7 51.907 15.5 39.642-36.28 37.2-45.852c-11.417-44.819-97.881-43.176-89.731-11.194zm0 0"/>
        </g>
        <path id="Path_401" fill="#a4aec0" d="M992.715 1151.36a4.041 4.041 0 1 1 2.45 5.164 4.047 4.047 0 0 1-2.45-5.164zm5.075 1.809a1.347 1.347 0 1 0-1.721.818 1.347 1.347 0 0 0 1.721-.818zm0 0"/>
        <g id="Group_75">
            <path id="Path_402" d="M972.394 1160.558a.987.987 0 0 0-.292-.7 1 1 0 0 0-1.412 0l-9.051 9.051a1 1 0 1 0 1.412 1.411l9.05-9.05a.993.993 0 0 0 .293-.712z" class="cls-3"/>
            <path id="Path_403" d="M967.673 1165.887a3.637 3.637 0 1 0 2.57-1.063 3.611 3.611 0 0 0-2.57 1.063zm.932 2.569a1.637 1.637 0 1 1 2.8 1.158 1.679 1.679 0 0 1-2.315 0 1.627 1.627 0 0 1-.49-1.158z" class="cls-3"/>
            <path id="Path_404" d="M966.068 1164.281a3.637 3.637 0 1 0-2.57 1.063 3.608 3.608 0 0 0 2.57-1.063zm-3.727-1.411a1.637 1.637 0 1 1 2.315 0 1.639 1.639 0 0 1-2.315 0z" class="cls-3"/>
            <path id="Path_405" fill="#081f3b" d="M980.259 1162.145l-.424.264.423-.266a6.046 6.046 0 0 1-.646-1.2 6.4 6.4 0 0 1-.2-1.421 4.345 4.345 0 0 0-3.4-4.66 3.944 3.944 0 0 1-2.23-1.621 5.583 5.583 0 0 0-2.429-1.956 3.254 3.254 0 0 0-.624-.136l-.813-1.213c-5.76-8.565-9.564-14.224-5.621-25.326a1.176 1.176 0 0 0-1.376-1.54 21.384 21.384 0 0 0-7.978 4.1c-3.477 2.886-7.235 8.192-5.395 17.084a7.265 7.265 0 0 0 .415 1.143c.72 1.752 2.219 5.4 1.129 7.8a3.91 3.91 0 0 1-2.494 2.048c-1.49.509-2.665.389-3.492-.356-1.523-1.372-1.771-4.621-1.231-6.982a1.177 1.177 0 0 0-1.87-1.191 20.037 20.037 0 0 0 24.382 31.8 4.793 4.793 0 0 1 1.929.211 5.431 5.431 0 0 0 3.039.15 5.59 5.59 0 0 0 2.432-1.959 6.161 6.161 0 0 1 .958-1 6.274 6.274 0 0 1 1.273-.618 4.346 4.346 0 0 0 3.4-4.664 6.325 6.325 0 0 1 .2-1.414 6.015 6.015 0 0 1 .648-1.2 4.431 4.431 0 0 0 0-5.878zm-27.026-7.974c1.51-3.326-.25-7.608-1.095-9.665-.121-.293-.259-.622-.287-.726-1.284-6.2.25-11.17 4.558-14.767a19.283 19.283 0 0 1 4.946-2.933c-3.064 10.785 1.019 16.859 6.607 25.17l.158.236a5.584 5.584 0 0 1-1.249.206 6.529 6.529 0 0 1-1.447-.255 5.45 5.45 0 0 0-3.036-.15 5.588 5.588 0 0 0-2.429 1.956 6.167 6.167 0 0 1-.961 1.006 6.273 6.273 0 0 1-1.273.616 4.347 4.347 0 0 0-3.4 4.664 6.343 6.343 0 0 1-.2 1.416 6.011 6.011 0 0 1-.647 1.2 4.435 4.435 0 0 0 .005 5.889 6.013 6.013 0 0 1 .642 1.191 6.4 6.4 0 0 1 .2 1.421 4.342 4.342 0 0 0 3.4 4.659 3.965 3.965 0 0 1 2.234 1.624 6.888 6.888 0 0 0 1.779 1.664 17.424 17.424 0 0 1-7.435 1.629 17.7 17.7 0 0 1-17.685-17.686 17.476 17.476 0 0 1 4.624-11.931 8.153 8.153 0 0 0 2.285 6.036c1.036.934 2.89 1.836 5.828.834a6.217 6.217 0 0 0 3.878-3.304zm8.534 21.247a7.983 7.983 0 0 0-1.385-1.4 8.093 8.093 0 0 0-1.778-.9 2.185 2.185 0 0 1-1.928-2.644 8.218 8.218 0 0 0-.307-1.979 7.842 7.842 0 0 0-.9-1.728 2.262 2.262 0 0 1 0-3.37 7.794 7.794 0 0 0 .894-1.727 8.152 8.152 0 0 0 .307-1.979 2.184 2.184 0 0 1 1.93-2.643 8.07 8.07 0 0 0 1.776-.9 7.938 7.938 0 0 0 1.387-1.405 3.765 3.765 0 0 1 1.346-1.221 1.157 1.157 0 0 1 .367-.05 6.308 6.308 0 0 1 1.381.246 6.4 6.4 0 0 0 4.018 0 2.172 2.172 0 0 1 3.093 1.029 6.125 6.125 0 0 0 3.163 2.3 2.185 2.185 0 0 1 1.928 2.644 8.146 8.146 0 0 0 .308 1.978 7.822 7.822 0 0 0 .893 1.727 2.263 2.263 0 0 1 0 3.373l-.006.009a7.723 7.723 0 0 0-.887 1.717 8.115 8.115 0 0 0-.308 1.979 2.187 2.187 0 0 1-1.933 2.645 8.125 8.125 0 0 0-1.774.9 8.012 8.012 0 0 0-1.384 1.4 2.172 2.172 0 0 1-3.094 1.029 6.4 6.4 0 0 0-4.021 0 2.172 2.172 0 0 1-3.092-1.029z"/>
        </g>
    </g>
</svg>
