<svg xmlns="http://www.w3.org/2000/svg" width="126.038" height="33.306" viewBox="0 0 126.038 33.306">
    <defs>
        <style>
            .cls-1{fill:white}
        </style>
    </defs>
    <g id="Group_1601" transform="translate(-713.667 -3745.679)">
        <path id="Path_3732" d="M738.191 3769.106a19.5 19.5 0 0 1-3.408 5.482 4.2 4.2 0 0 1-5.22 1.194c-.439-.168-.869-.36-1.314-.5a5.06 5.06 0 0 0-3.188 0c-.489.162-.966.362-1.446.551a3.985 3.985 0 0 1-4.97-1.1 18.912 18.912 0 0 1-3.759-6.078 15.31 15.31 0 0 1-1.19-6.375 8.977 8.977 0 0 1 .592-3.965 7.625 7.625 0 0 1 4.931-4.864 6.519 6.519 0 0 1 4.016-.012 13.825 13.825 0 0 1 1.446.557 3.715 3.715 0 0 0 3.132 0 13.721 13.721 0 0 1 1.573-.61 7.3 7.3 0 0 1 7.038 1.285 5.511 5.511 0 0 1 .619.574c.671.731.668.908-.089 1.568a7.36 7.36 0 0 0-2.041 2.657 6.435 6.435 0 0 0 2.283 7.751c.153.109.306.218.465.321.813.518.89.701.53 1.564z" class="cls-1"/>
        <path id="Path_3733" d="M785.963 3766.413a4.776 4.776 0 0 0-1.488-2.356 4.606 4.606 0 0 0-5.623-.121c-.236.194-.351.583-.763.536-.28-1.323-.3-1.337-1.736-1.255h-.141a.5.5 0 0 0-.548.513c-.009.138 0 .279 0 .421q.036 6.708.065 13.413c0 .235-.006.471.009.7.032.551.15.674.657.7.094.006.188.006.283 0 1.564-.021 1.6.188 1.581-1.482-.008-.99 0-1.977.012-2.966 0-.266-.085-.551.109-.8.28-.118.422.13.607.242a4.307 4.307 0 0 0 1.27.583 4.706 4.706 0 0 0 5.323-2.5 7.864 7.864 0 0 0 .383-5.628zm-3.19 5.362a2.5 2.5 0 0 1-2.557.772 2.339 2.339 0 0 1-1.839-1.909 9.831 9.831 0 0 1-.112-1.682 5.694 5.694 0 0 1 .224-2.089 2.549 2.549 0 0 1 4.328-.89c1.102 1.152 1.166 4.596-.044 5.798z" class="cls-1"/>
        <path id="Path_3734" d="M773.016 3766.16a4.448 4.448 0 0 0-7.206-2.05c-.168.153-.3.371-.566.383a.474.474 0 0 1-.068-.112c-.341-1.205-.341-1.205-1.6-1.173h-.142c-.5.024-.665.183-.651.7.03 1.126.106 2.254.112 3.379.018 3.432.009 6.864.012 10.3 0 .329 0 .657.024.986a.375.375 0 0 0 .338.38 2.825 2.825 0 0 0 .422.033c1.87.021 1.744.091 1.738-1.612-.006-1.207.012-2.415.017-3.682.46.015.66.315.928.468a4.2 4.2 0 0 0 2.858.484 4.723 4.723 0 0 0 3.771-3.229 7.34 7.34 0 0 0 .013-5.255zm-2.555 4.711a2.622 2.622 0 0 1-3.576 1.52 2.18 2.18 0 0 1-1.384-1.818c-.059-.56-.056-1.125-.083-1.688h.068a11.766 11.766 0 0 1 .012-1.549 2.481 2.481 0 0 1 1.7-2.063 2.351 2.351 0 0 1 2.5.463 3.028 3.028 0 0 1 .833 1.284 5.194 5.194 0 0 1-.07 3.851z" class="cls-1"/>
        <path id="Path_3735" d="M760.622 3773.764c-.071-.274-.156-.542-.242-.811-1.369-4.242-2.728-8.487-4.124-12.72-.474-1.444-.156-1.267-1.862-1.27h-1.128a.64.64 0 0 0-.628.468c-.053.13-.109.26-.15.392l-3.014 9.386c-.5 1.561-1.019 3.12-1.52 4.684-.112.357.033.551.377.578.142.008.283.011.425.011 1.844-.032 1.549.277 2.133-1.5.25-.757.462-1.526.7-2.289.206-.657.28-.716 1-.722q1.694-.018 3.388.006c.707.009.725.029.963.76.218.669.416 1.346.634 2.015.613 1.856.613 1.856 2.53 1.732.539-.031.656-.193.518-.72zm-4.616-5.777h-2.764c-.83-.009-.96-.142-.71-.861.584-1.676 1.082-3.373 1.535-5.087.03-.118.145-.212.242-.351.595 2.056 1.175 4.066 1.753 6.078.009.034-.021.082-.056.221z" class="cls-1"/>
        <path id="Path_3736" d="M800.18 3770.738a4.089 4.089 0 0 1-2.666 3.367 8.264 8.264 0 0 1-6.445-.115.56.56 0 0 1-.4-.771c.079-.316.185-.628.292-.94.153-.445.291-.519.718-.389.448.135.893.274 1.341.415a5.268 5.268 0 0 0 1.953.177 4.285 4.285 0 0 0 1.237-.247 2.029 2.029 0 0 0 .778-3.424 4.057 4.057 0 0 0-1.4-.936c-.478-.192-.958-.386-1.417-.625a13.916 13.916 0 0 1-1.577-.922 3.8 3.8 0 0 1-1.676-3.915 4 4 0 0 1 2.672-3.188 6.88 6.88 0 0 1 2.817-.471 7.866 7.866 0 0 1 2.571.462c.472.16.563.339.451.846-.021.094-.041.186-.068.274-.341 1.149-.274 1.317-1.484.831a5.138 5.138 0 0 0-2.225-.257 2.767 2.767 0 0 0-1.208.357 1.814 1.814 0 0 0-.306 3.061 8.468 8.468 0 0 0 1.455.839 23.66 23.66 0 0 1 2.74 1.435 4.089 4.089 0 0 1 1.847 4.136z" class="cls-1"/>
        <path id="Path_3737" d="M820.328 3767.324a4.958 4.958 0 0 0-2.819-3.806 5.935 5.935 0 0 0-3.176-.4 4.794 4.794 0 0 0-3.641 2.133 6.385 6.385 0 0 0-1.046 3.859c.014.206.02.536.062.86a6.122 6.122 0 0 0 .173.828 5.1 5.1 0 0 0 5.492 3.88 5.26 5.26 0 0 0 5.02-4.826 8.65 8.65 0 0 0-.065-2.528zm-3.076 4.021a2.948 2.948 0 0 1-1.069 1.084 2.109 2.109 0 0 1-2.263.006 2.652 2.652 0 0 1-1.143-1.2 5.605 5.605 0 0 1-.059-4.619 2.416 2.416 0 0 1 2.26-1.615 2.5 2.5 0 0 1 2.427 1.594 4.474 4.474 0 0 1 .41 2.207 4.352 4.352 0 0 1-.563 2.543z" class="cls-1"/>
        <path id="Path_3738" d="M839.088 3765.5a3.742 3.742 0 0 0-2.552-2.265 5.017 5.017 0 0 0-6.3 3.332 8.122 8.122 0 0 0-.336 3.058 4.976 4.976 0 0 0 4.6 5.008 9.561 9.561 0 0 0 3.367-.21c1.173-.279 1.338-.43.964-1.664a5.3 5.3 0 0 0-.216-.5c-.633.142-1.178.277-1.729.383a4.575 4.575 0 0 1-2.893-.336 2.7 2.7 0 0 1-1.582-2.18c-.056-.409.109-.636.519-.645 1.084-.018 2.165-.018 3.246-.018.943 0 1.883.012 2.825 0 .507-.008.675-.165.7-.674a6.968 6.968 0 0 0-.613-3.289zm-6.537 2.151a2.021 2.021 0 0 1 .639-1.951 2.2 2.2 0 0 1 1.738-.8c1.364-.02 2.265 1.037 2.254 2.725-1.538.067-3.082.02-4.631.026z" class="cls-1"/>
        <path id="Path_3739" d="M805.66 3765.55c-.021.283-.027.563-.027.846v3.944a7.687 7.687 0 0 0 .033.984 1.279 1.279 0 0 0 1.3 1.235 4.705 4.705 0 0 0 .7-.036c.274-.017.451.083.486.371.009.095.018.186.021.28.073 1.279.218 1.37-1.341 1.5-2.389.194-3.635-.919-3.726-3.317-.059-1.55-.015-3.1-.021-4.649 0-.377-.006-.751-.026-1.125a.36.36 0 0 0-.327-.386c-.092-.012-.186-.015-.28-.027-.313-.035-.722.133-.905-.212a1.969 1.969 0 0 1-.02-1.5c.029-.1.215-.186.341-.207.277-.038.56-.023.84-.047a.343.343 0 0 0 .359-.344c.015-.375.015-.752.027-1.126a.53.53 0 0 1 .348-.551c.444-.15.889-.294 1.334-.442a1.062 1.062 0 0 1 .728-.026 5.928 5.928 0 0 1 .126 1.912c.036.474.112.577.578.592.515.015 1.034.009 1.549.015a.516.516 0 0 1 .563.507 5.354 5.354 0 0 1-.015.98.447.447 0 0 1-.459.439c-.61.018-1.22.018-1.83.039a.346.346 0 0 0-.356.351z" class="cls-1"/>
        <path id="Path_3740" d="M828.8 3764.333v.563a.51.51 0 0 1-.5.56c-.095.009-.189 0-.283.015a2.652 2.652 0 0 0-2.619 2.751c-.03.422-.009.846-.012 1.267 0 1.411.009 2.819-.012 4.227-.009.64-.126.737-.736.766-.142.006-.283 0-.424 0-1.468 0-1.379.13-1.382-1.355 0-2.91-.009-5.821-.012-8.735a6.9 6.9 0 0 1 0-.7.446.446 0 0 1 .439-.45c.141-.006.283-.015.421-.012 1.143.017 1.252-.133 1.4 1.19a.8.8 0 0 0 .12.247c.354-.088.448-.453.693-.662a3.5 3.5 0 0 1 1.437-.849c1.27-.301 1.479-.136 1.47 1.177z" class="cls-1"/>
        <path id="Path_3741" d="M755.458 3749.524a3.121 3.121 0 0 0-1.995-1.87 7.57 7.57 0 0 0-3.494-.221c-.489.07-.636.235-.636.754q-.009 3.318.009 6.634c0 .572.115.678.639.7.33.018.66 0 .99 0v-.015a9.256 9.256 0 0 0 1.27-.008 3.692 3.692 0 0 0 3.114-2.133 4.824 4.824 0 0 0 .103-3.841zm-1.117 2.154c-.224 1.935-1.178 2.633-2.79 2.725-.713.038-.845-.068-.857-.743-.015-.7 0-1.4 0-2.106 0-.843-.009-1.685 0-2.528a.484.484 0 0 1 .513-.527 2.7 2.7 0 0 1 3.134 3.037c0 .047.003.095 0 .142z" class="cls-1"/>
        <path id="Path_3742" d="M732.149 3746.4v.28a6.84 6.84 0 0 1-4.339 6.034 5.055 5.055 0 0 1-.672.2c-1.084.2-1.381-.068-1.24-1.178a6.986 6.986 0 0 1 5.379-5.989c.672-.17.849-.032.872.653z" class="cls-1"/>
        <path id="Path_3743" d="M770.906 3750.255c-.489 1.567-.981 3.134-1.49 4.7-.151.462-.342.562-.849.574a.548.548 0 0 1-.63-.418c-.256-.9-.548-1.794-.825-2.693a.628.628 0 0 0-.362-.5c-.348 1.046-.672 2.077-1.037 3.091-.174.477-.36.548-.875.524a.5.5 0 0 1-.539-.351c-.154-.495-.313-.983-.46-1.478-.336-1.126-.672-2.251-1-3.379-.153-.545-.032-.7.486-.71.572-.012.678.047.819.539.168.589.33 1.178.457 1.776a5.5 5.5 0 0 0 .4 1.343.628.628 0 0 0 .418-.518c.242-.857.471-1.721.731-2.575a.686.686 0 0 1 .839-.563.517.517 0 0 1 .53.375c.189.63.357 1.266.575 1.885a2.779 2.779 0 0 0 .666 1.444c.28-1.061.53-2.054.8-3.044.165-.606.28-.68.881-.66.436.013.595.214.465.638z" class="cls-1"/>
        <path id="Path_3744" d="M798.545 3754.479q0-3.172-.008-6.351a6.131 6.131 0 0 0-.027-.7c-.041-.318-.268-.425-.772-.4-.324.012-.562.13-.568.474-.018.752-.006 1.5-.006 2.225-.427.159-.7-.115-1.017-.165a2.29 2.29 0 0 0-2.678 1.325 3.958 3.958 0 0 0 .027 3.538 2.134 2.134 0 0 0 2.619 1.117 2.505 2.505 0 0 0 .633-.292c.28-.177.413-.112.693.1.589.441 1.072.147 1.1-.578.01-.104.004-.198.004-.293zm-1.414-1.219a1.293 1.293 0 0 1-1.178 1.187 1.277 1.277 0 0 1-1.343-.993 3.555 3.555 0 0 1 .011-1.8 1.255 1.255 0 0 1 1.35-.969 1.217 1.217 0 0 1 1.16 1.175 6.839 6.839 0 0 1 .006.7 6.063 6.063 0 0 1-.006.7z" class="cls-1"/>
        <path id="Path_3745" d="M831.525 3754.957c-.008.424-.2.568-.63.571-.442.006-.63-.133-.639-.548-.018-.751 0-1.5-.006-2.254a6.853 6.853 0 0 0-.038-.983 1.077 1.077 0 0 0-1.135-1.017 1.161 1.161 0 0 0-1.116 1.067 13.66 13.66 0 0 0-.041 1.405c-.009.61 0 1.219-.036 1.826-.02.371-.265.516-.7.507a.5.5 0 0 1-.557-.5c-.02-.233-.02-.468-.017-.7q0-2.956.008-5.915a7.653 7.653 0 0 1 .045-.982c.047-.347.321-.415.627-.406s.6.029.613.4c.02.8.006 1.594.006 2.558a10.78 10.78 0 0 1 1.343-.439 2.011 2.011 0 0 1 2.274 1.882c.008 1.18.017 2.352-.001 3.528z" class="cls-1"/>
        <path id="Path_3746" d="M786.314 3751.189a2.561 2.561 0 0 0-2.51-1.7 2.691 2.691 0 0 0-2.637 1.753 3.274 3.274 0 0 0-.15 1.249c0 .233-.006.468 0 .7a2.61 2.61 0 0 0 1.765 2.318 2.878 2.878 0 0 0 3.166-.966 3.417 3.417 0 0 0 .366-3.354zm-1.756 2.978a1.133 1.133 0 0 1-1.806-.177 2.653 2.653 0 0 1-.4-1.467 2.532 2.532 0 0 1 .348-1.337 1.146 1.146 0 0 1 1.891-.221 2.493 2.493 0 0 1-.033 3.202z" class="cls-1"/>
        <path id="Path_3747" d="M762.071 3751.857a2.553 2.553 0 0 0-2.392-2.359 2.643 2.643 0 0 0-2.943 1.879 3.241 3.241 0 0 0-.182.966 3.107 3.107 0 0 0 1.2 2.864 2.792 2.792 0 0 0 4.289-1.8 8.175 8.175 0 0 0 .088-.822c-.024-.259-.031-.495-.06-.728zm-1.8 2.2a1.151 1.151 0 0 1-1.812.038 2.671 2.671 0 0 1-.51-1.741 3.8 3.8 0 0 1 .28-1.031 1.179 1.179 0 0 1 2.133-.156 2.593 2.593 0 0 1-.093 2.885z" class="cls-1"/>
        <path id="Path_3748" d="M791.834 3751.024a1.772 1.772 0 0 0-.869-1.226 3.4 3.4 0 0 0-2.993.053c-.259.115-.191.4-.129.625a.355.355 0 0 0 .424.274c.321-.053.633-.174.957-.212a1.186 1.186 0 0 1 1.132.43.806.806 0 0 1 .153.38c.026.174-.142.218-.265.244-.366.086-.746.121-1.105.23a4.117 4.117 0 0 0-1.028.436 1.878 1.878 0 0 0-.722 2.233 1.664 1.664 0 0 0 2.018 1.114 3.25 3.25 0 0 0 .412-.092 2.074 2.074 0 0 1 1.388-.014c.507.1.792-.142.8-.681.006-.468 0-.94 0-1.408a14.586 14.586 0 0 0-.173-2.386zm-1.216 2.312a1.17 1.17 0 0 1-.684 1.111.848.848 0 1 1-.9-1.435 1.986 1.986 0 0 1 .925-.315c.506-.059.703.115.659.639z" class="cls-1"/>
        <path id="Path_3749" d="M776.96 3755a.477.477 0 0 1-.412.5.986.986 0 0 1-.81-.1.525.525 0 0 1-.142-.368c-.014-.845-.006-1.694-.017-2.539a4.912 4.912 0 0 0-.08-.978.912.912 0 0 0-.993-.807 1.031 1.031 0 0 0-1.066.751 4.851 4.851 0 0 0-.121 1.113c-.023.8 0 1.6-.032 2.4a.539.539 0 0 1-.522.554c-.58.071-.807-.079-.819-.639-.017-.8-.006-1.6-.006-2.4h-.008c0-.751-.012-1.5 0-2.254.009-.554.495-.872.937-.5.371.312.536.347.9.073a2.106 2.106 0 0 1 3.014 1 2.091 2.091 0 0 1 .176.677c.016 1.167.013 2.339.001 3.517z" class="cls-1"/>
        <path id="Path_3750" d="M807.3 3749.5a2.655 2.655 0 0 0-2.719 2.191 4.16 4.16 0 0 0 0 1.821 2.526 2.526 0 0 0 2.451 2.142 2.647 2.647 0 0 0 2.819-1.865 5.567 5.567 0 0 0 .233-1.1 2.781 2.781 0 0 0-2.784-3.189zm.889 4.554a1.146 1.146 0 0 1-1.97-.15 2.567 2.567 0 0 1-.009-2.663 1.177 1.177 0 0 1 1.985-.18 2.435 2.435 0 0 1 .5 1.438 2.492 2.492 0 0 1-.502 1.553z" class="cls-1"/>
        <path id="Path_3751" d="M837.544 3750.974a2.4 2.4 0 0 0-3.517-1.114c-1.739 1.028-1.591 4.177-.5 5.117a3.711 3.711 0 0 0 3.6.41c.25-.1.318-.41.2-.737a.35.35 0 0 0-.43-.247 8.013 8.013 0 0 1-1.114.144 1.6 1.6 0 0 1-1.608-.913c-.183-.383-.062-.678.333-.693.421-.02.845 0 1.266 0v-.027c.516 0 1.034.024 1.547-.009a.534.534 0 0 0 .51-.562 2.931 2.931 0 0 0-.287-1.369zm-1.482.866c-.28.012-.562 0-.842 0v-.015h-.84a.227.227 0 0 1-.218-.289 1.144 1.144 0 0 1 2.23-.171.353.353 0 0 1-.33.475z" class="cls-1"/>
        <path id="Path_3752" d="M816.265 3755.045a.459.459 0 0 1-.433.474c-.268.018-.571.115-.789-.124a.621.621 0 0 1-.124-.388c-.012-.8 0-1.6-.006-2.4a6.49 6.49 0 0 0-.044-.987 1 1 0 0 0-.931-.9 1.131 1.131 0 0 0-1.2.787 4.427 4.427 0 0 0-.088.978c-.018.8.005 1.6-.024 2.4a.772.772 0 0 1-1.146.595.508.508 0 0 1-.215-.483v-2.4h-.006c0-.754-.006-1.506 0-2.257.009-.651.471-.975.981-.595.3.224.436.416.757.124a.765.765 0 0 1 .236-.156 2.037 2.037 0 0 1 3.022 1.667 30.844 30.844 0 0 1 .01 3.665z" class="cls-1"/>
        <path id="Path_3753" d="M825.5 3755.036a.483.483 0 0 1-.362.533c-.18.047-.363.083-.472.106a1.6 1.6 0 0 1-1.794-1.641c-.053-.889-.029-1.782-.02-2.672 0-.382-.157-.533-.513-.692-.489-.218-.427-.751.106-1.022.23-.118.415-.2.407-.474-.012-.463.259-.651.665-.766.539-.153.666-.1.743.448a4.192 4.192 0 0 1 .017.421c.009.232.156.315.36.338a3.646 3.646 0 0 1 .7.089.465.465 0 0 1 .3.433.487.487 0 0 1-.347.539 2.039 2.039 0 0 1-.554.065c-.277.009-.445.13-.448.412-.009.89-.017 1.78-.009 2.672a.591.591 0 0 0 .616.625 1.45 1.45 0 0 1 .277.041.492.492 0 0 1 .328.545z" class="cls-1"/>
        <path id="Path_3754" d="M779.771 3748.193v6.062a6.105 6.105 0 0 1-.024.7.735.735 0 0 1-1.072.506.462.462 0 0 1-.2-.33c-.026-.61-.026-1.219-.029-1.829v-1.974h.009c0-1.27-.009-2.536.006-3.806 0-.365.147-.469.539-.477.507-.015.689.088.733.444a5.5 5.5 0 0 1 .038.704z" class="cls-1"/>
    </g>
</svg>
