<svg xmlns="http://www.w3.org/2000/svg" width="41.267" height="47.346" viewBox="0 0 41.267 47.346">
    <defs>
        <style>
            .cls-1{fill:white}.cls-2{fill:white}
        </style>
    </defs>
    <g id="Group_929" transform="translate(-1450.581 -929.372)">
        <path id="Path_2330" d="M1471.214 962.725a10.752 10.752 0 0 1-10.74-10.74v-3.958h1.693v3.958a9.046 9.046 0 0 0 15.508 6.331l1.207 1.188a10.684 10.684 0 0 1-7.668 3.221z" class="cls-1"/>
        <path id="Path_2331" d="M1481.9 953.051l-1.686-.154c.027-.3.046-.6.046-.912v-7.915a9.047 9.047 0 0 0-18.094 0v.143h7.068a4.106 4.106 0 0 0 4.1-4.1h1.693a5.8 5.8 0 0 1-5.794 5.794h-8.761v-1.837a10.74 10.74 0 0 1 21.48 0v7.915c.002.362-.019.715-.052 1.066z" class="cls-1"/>
        <path id="Path_2332" d="M1452.274 976.718h-1.693v-2.968a8.771 8.771 0 0 1 8.761-8.761v1.693a7.076 7.076 0 0 0-7.068 7.068z" class="cls-1"/>
        <path id="Path_2333" d="M1491.848 976.718h-1.694v-2.968a7.076 7.076 0 0 0-7.068-7.068v-1.693a8.772 8.772 0 0 1 8.762 8.761z" class="cls-1"/>
        <path id="Path_2334" d="M1485.912 944.07h-1.694a13 13 0 0 0-26.008 0h-1.693a14.7 14.7 0 1 1 29.4 0z" class="cls-1"/>
        <path id="Path_2335" d="M1487.044 952.831h-2.826v-9.607h2.826a2.829 2.829 0 0 1 2.825 2.825v3.957a2.829 2.829 0 0 1-2.825 2.825zm-1.132-1.693h1.132a1.134 1.134 0 0 0 1.132-1.132v-3.957a1.133 1.133 0 0 0-1.132-1.132h-1.132z" class="cls-1"/>
        <path id="Path_2336" d="M1458.21 952.831h-2.825a2.828 2.828 0 0 1-2.825-2.825v-3.957a2.828 2.828 0 0 1 2.825-2.825h2.825zm-2.825-7.914a1.132 1.132 0 0 0-1.132 1.132v3.957a1.133 1.133 0 0 0 1.132 1.132h1.132v-6.221z" class="cls-1"/>
        <path id="Path_2337" d="M1482.1 956.789h-8.9v-1.694h8.9a2.123 2.123 0 0 0 2.121-2.121v-.989h1.694v.989a3.82 3.82 0 0 1-3.815 3.815z" class="cls-2"/>
        <path id="Path_2338" d="M1471.214 958.767a2.825 2.825 0 1 1 2.826-2.825 2.828 2.828 0 0 1-2.826 2.825zm0-3.957a1.132 1.132 0 1 0 1.132 1.132 1.133 1.133 0 0 0-1.132-1.132z" class="cls-2"/>
        <path id="Path_2339" d="M1471.214 976.7l-9.751-5.417v-6.291h5.3l4.449 8.007 4.449-8.007h5.3v6.291zm5.445-10.015l-4.061 7.309 6.674-3.707v-3.6zm-13.5 3.6l6.673 3.707-4.061-7.309h-2.612z" class="cls-1"/>
    </g>
</svg>
