<?xml version="1.0" encoding="utf-8"?>
<!-- Generator: Adobe Illustrator 16.0.0, SVG Export Plug-In . SVG Version: 6.00 Build 0)  -->
<!DOCTYPE svg PUBLIC "-//W3C//DTD SVG 1.1//EN" "http://www.w3.org/Graphics/SVG/1.1/DTD/svg11.dtd">
<svg version="1.1" id="Layer_1" xmlns="http://www.w3.org/2000/svg" xmlns:xlink="http://www.w3.org/1999/xlink" x="0px" y="0px"
	 width="164.157px" height="42.865px" viewBox="0 0 164.157 42.865" enable-background="new 0 0 164.157 42.865"
	 xml:space="preserve">
<g id="Group_84" transform="translate(-3472.124 -5238.982)">
	<g id="Group_82">
		<path id="Path_109" d="M3472.124,5281.847v-30.766h10.632l5.429,22.441l5.43-22.441h10.632v30.766H3498v-23.8h-0.679
			l-6.018,22.441h-6.243l-6.018-22.441h-0.679v23.8H3472.124z"/>
		<path id="Path_110" d="M3508.182,5256.6v-5.52h22.618v5.52h-8.144v25.246h-6.243V5256.6H3508.182z"/>
		<g>
			<path fill="#F4BB2A" d="M3539.86,5273.301l6.347-0.658c0.182,1.437,0.718,2.573,1.609,3.412s1.919,1.258,3.083,1.258
				c1.33,0,2.456-0.54,3.378-1.62c0.921-1.081,1.383-2.709,1.383-4.886c0-2.04-0.458-3.57-1.372-4.59
				c-0.915-1.021-2.104-1.53-3.57-1.53c-1.829,0-3.468,0.809-4.919,2.425l-5.168-0.748l3.265-17.296h16.842v5.962h-12.014
				l-0.997,5.645c1.42-0.71,2.871-1.065,4.353-1.065c2.826,0,5.221,1.028,7.186,3.083c1.965,2.056,2.947,4.723,2.947,8.002
				c0,2.735-0.794,5.177-2.381,7.322c-2.161,2.932-5.161,4.397-9,4.397c-3.068,0-5.569-0.823-7.503-2.471
				C3541.394,5278.296,3540.238,5276.082,3539.86,5273.301z"/>
		</g>
	</g>
	<path id="Rectangle_85" d="M3572.017,5251.081h1.251v30.763h-1.251V5251.081z"/>
	<g id="Group_83">
		<path id="Path_112" d="M3584.02,5261.932h-1.14v-7.594H3584v0.532c0.664-0.427,1.43-0.664,2.219-0.684
			c0.745-0.082,1.483,0.208,1.975,0.775c0.408-0.234,0.845-0.415,1.299-0.539c0.453-0.144,0.926-0.224,1.4-0.236
			c0.775-0.102,1.549,0.206,2.043,0.813c0.426,0.912,0.605,1.919,0.523,2.923v4.01h-1.139v-3.979
			c0.053-0.734-0.051-1.472-0.301-2.164c-0.279-0.43-0.783-0.658-1.291-0.585c-0.35,0.002-0.697,0.05-1.033,0.144
			c-0.281,0.071-0.555,0.165-0.82,0.281l-0.289,0.137c0.176,0.725,0.242,1.472,0.201,2.217v3.95h-1.14v-3.918
			c0.052-0.754-0.05-1.511-0.3-2.225c-0.281-0.434-0.789-0.663-1.301-0.585c-0.338,0.001-0.674,0.05-1,0.144
			c-0.268,0.071-0.529,0.165-0.781,0.281l-0.258,0.137L3584.02,5261.932z"/>
		<path id="Path_113" d="M3600.621,5254.338h1.139v7.594h-1.139v-0.532c-0.672,0.431-1.451,0.667-2.248,0.685
			c-0.779,0.107-1.559-0.197-2.059-0.806c-0.418-0.934-0.594-1.958-0.51-2.977v-3.964h1.14v3.949
			c-0.054,0.751,0.044,1.505,0.289,2.218c0.192,0.374,0.628,0.562,1.308,0.562c0.344-0.002,0.686-0.051,1.016-0.145
			c0.271-0.07,0.537-0.164,0.791-0.281l0.273-0.136V5254.338z"/>
		<path id="Path_114" d="M3604.341,5261.932v-10.905h1.139v10.905H3604.341z"/>
		<path id="Path_115" d="M3612,5255.325h-2.414v3.63c-0.039,0.579,0.025,1.16,0.19,1.716c0.126,0.274,0.427,0.412,0.899,0.412
			l1.353-0.092l0.075,0.941c-0.512,0.094-1.029,0.15-1.549,0.167c-0.607,0.07-1.211-0.143-1.641-0.577
			c-0.372-0.67-0.531-1.438-0.455-2.2v-3.994h-1.078v-0.987h1.078v-2.323h1.125v2.323H3612V5255.325z"/>
		<path id="Path_116" d="M3613.701,5252.622v-1.322h1.139v1.322H3613.701z M3613.701,5261.932v-7.594h1.139v7.594H3613.701z"/>
		<path id="Path_117" d="M3586.814,5273.551h-2.414v3.629c-0.039,0.579,0.025,1.16,0.189,1.717c0.127,0.273,0.426,0.41,0.9,0.41
			l1.352-0.092l0.076,0.942c-0.512,0.095-1.029,0.149-1.55,0.167c-0.606,0.07-1.211-0.143-1.64-0.577
			c-0.373-0.67-0.531-1.438-0.457-2.2v-3.994h-1.071v-0.986h1.077v-2.324h1.125v2.324h2.414L3586.814,5273.551z"/>
		<path id="Path_118" d="M3593.679,5279.215l0.441-0.045l0.029,0.9c-0.98,0.148-1.971,0.229-2.962,0.243
			c-0.884,0.091-1.755-0.266-2.323-0.949c-0.521-0.894-0.761-1.923-0.684-2.955c0-2.661,1.059-3.993,3.174-3.994
			c0.854-0.065,1.693,0.248,2.294,0.858c0.571,0.778,0.841,1.737,0.759,2.699l-0.061,0.867h-5.012
			c-0.049,0.654,0.11,1.309,0.455,1.867c0.4,0.446,0.992,0.672,1.588,0.607C3592.132,5279.31,3592.9,5279.277,3593.679,5279.215z
			 M3593.269,5275.917c0.061-0.689-0.096-1.38-0.447-1.975c-0.367-0.414-0.908-0.629-1.459-0.578
			c-0.572-0.041-1.133,0.184-1.52,0.609c-0.388,0.57-0.572,1.254-0.523,1.942L3593.269,5275.917z"/>
		<path id="Path_119" d="M3596.49,5280.159v-7.595h1.123v1.033c0.834-0.588,1.779-0.997,2.779-1.2v1.154
			c-0.453,0.089-0.897,0.216-1.329,0.379c-0.362,0.129-0.714,0.281-1.056,0.457l-0.379,0.199v5.574L3596.49,5280.159z"/>
		<path id="Path_120" d="M3603.187,5280.159h-1.139v-7.595h1.123v0.532c0.662-0.428,1.43-0.664,2.217-0.684
			c0.746-0.082,1.484,0.207,1.975,0.774c0.408-0.234,0.846-0.415,1.301-0.539c0.453-0.145,0.924-0.224,1.4-0.235
			c0.775-0.102,1.549,0.205,2.043,0.813c0.424,0.912,0.605,1.92,0.521,2.923v4.01h-1.139v-3.979
			c0.053-0.734-0.049-1.473-0.299-2.164c-0.281-0.43-0.784-0.658-1.291-0.586c-0.35,0.003-0.697,0.051-1.033,0.146
			c-0.281,0.07-0.557,0.164-0.822,0.28l-0.287,0.137c0.174,0.726,0.242,1.473,0.199,2.218v3.949h-1.139v-3.919
			c0.051-0.754-0.051-1.512-0.3-2.225c-0.28-0.434-0.79-0.663-1.3-0.586c-0.338,0.002-0.676,0.051-1,0.146
			c-0.269,0.069-0.529,0.164-0.781,0.28l-0.258,0.137L3603.187,5280.159z"/>
		<path id="Path_121" d="M3615.048,5270.848v-1.322h1.14v1.322H3615.048z M3615.048,5280.159v-7.595h1.14v7.595H3615.048z"/>
		<path id="Path_122" d="M3619.818,5280.159h-1.139v-7.595h1.123v0.532c0.713-0.426,1.523-0.662,2.354-0.684
			c0.777-0.104,1.553,0.208,2.043,0.819c0.426,0.91,0.607,1.915,0.525,2.916v4.01h-1.124v-3.979
			c0.054-0.736-0.054-1.475-0.312-2.164c-0.293-0.434-0.811-0.662-1.328-0.586c-0.348,0.004-0.691,0.053-1.025,0.146
			c-0.283,0.069-0.561,0.163-0.828,0.28l-0.287,0.137L3619.818,5280.159z"/>
		<path id="Path_123" d="M3632.5,5274.857v3.888c0.031,0.376,0.326,0.599,0.881,0.668l-0.045,0.9
			c-0.66,0.049-1.311-0.17-1.807-0.607c-0.859,0.393-1.789,0.6-2.733,0.607c-0.595,0.043-1.177-0.174-1.601-0.593
			c-0.393-0.476-0.588-1.085-0.545-1.7c-0.051-0.599,0.152-1.191,0.562-1.632c0.503-0.399,1.12-0.626,1.763-0.646l2.383-0.229
			v-0.652c0.039-0.399-0.081-0.798-0.334-1.109c-0.244-0.23-0.574-0.352-0.91-0.334c-0.843,0.002-1.685,0.053-2.521,0.152
			l-0.471,0.045l-0.045-0.865c0.975-0.207,1.965-0.319,2.961-0.334c1.15-0.207,2.252,0.559,2.457,1.709
			c0.045,0.243,0.045,0.492,0.003,0.735L3632.5,5274.857z M3627.822,5277.958c0,0.933,0.385,1.399,1.155,1.399
			c0.692-0.001,1.382-0.118,2.034-0.349l0.35-0.123v-2.506l-2.248,0.213c-0.367,0.005-0.72,0.148-0.986,0.4
			c-0.219,0.271-0.328,0.614-0.305,0.962V5277.958z"/>
		<path id="Path_124" d="M3635.142,5280.159v-10.905h1.139v10.905H3635.142z"/>
	</g>
</g>
</svg>
