<svg xmlns="http://www.w3.org/2000/svg" width="96.789" height="89.282" viewBox="0 0 96.789 89.282">
    <g>
        <g>
            <path fill="#eff4fa" d="M614.969 1148.364c-12.715-13.622-14.388-29.564-20.515-36.13s-22.77-16.828-52.97 11.357-17.321 50.869-10.579 58.089c31.555 33.814 106.584-9.189 84.064-33.316zm0 0" transform="translate(-522.328 -1104.878)"/>
        </g>
        <path fill="#a4aec0" d="M538.917 1173.728a4.041 4.041 0 1 1-3.026-4.847 4.045 4.045 0 0 1 3.026 4.847zm-5.249-1.214a1.347 1.347 0 1 0 1.616-1.009 1.35 1.35 0 0 0-1.616 1.009zm0 0" transform="translate(-522.328 -1104.878)"/>
        <g>
            <path fill="#081f3b" d="M571.578 1122.478l-30.414 15.531 1.263 5.149h4.422v4.81h2.5a2.9 2.9 0 0 0 2.393 2.485V1164a2.9 2.9 0 0 0-2.383 2.414h-2.511v7.835h49.457v-7.835h-2.883a2.9 2.9 0 0 0-2.382-2.414v-13.548a2.9 2.9 0 0 0 2.393-2.485h2.873v-4.81h4.421l1.264-5.149zm-8.486 43.936a2.9 2.9 0 0 0-2.383-2.413v-13.548a2.9 2.9 0 0 0 2.393-2.485h1.21a2.9 2.9 0 0 0 2.394 2.485V1164a2.9 2.9 0 0 0-2.385 2.414zm14.962 0a2.9 2.9 0 0 0-2.383-2.413v-13.548a2.9 2.9 0 0 0 2.393-2.485h1.618a2.894 2.894 0 0 0 2.393 2.485V1164a2.9 2.9 0 0 0-2.384 2.414zm15.766-20.931h-2.849v2.119a.4.4 0 0 1-.4.4h-2.012v18.441h2.012a.4.4 0 0 1 .4.4v2.048h2.849v2.865h-13.705v-2.856h2.029v-2.048a.4.4 0 0 1 .4-.4h2.012v-18.441h-2.012a.4.4 0 0 1-.4-.4v-2.119h-2.029v-1.154h-2.485v1.154h-2.03v2.119a.4.4 0 0 1-.4.4h-2.012v18.441h2.012a.4.4 0 0 1 .4.4v2.048h2.029v2.865H564.95v-2.865h1.824v-2.048a.4.4 0 0 1 .4-.4h2.013v-18.441h-2.013a.4.4 0 0 1-.4-.4v-2.119h-1.824v-1.154h-2.486v1.154h-1.825v2.119a.4.4 0 0 1-.4.4h-2.013v18.441h2.012a.4.4 0 0 1 .4.4v2.048h1.825v2.865h-13.128v-2.865h2.477v-2.048a.4.4 0 0 1 .4-.4h2.013v-18.441h-2.013a.4.4 0 0 1-.4-.4v-2.119h-2.477v-2.267h44.485zm4.958-4.811h-3.449v.058h-47.97v-.058h-2.983l-.33-1.344 27.532-14.058 27.53 14.058z" transform="translate(-522.328 -1104.878)"/>
            <path fill="#e34" d="M571.578 1128.377a5.3 5.3 0 1 0 5.3 5.3 5.31 5.31 0 0 0-5.3-5.3zm0 8.62a3.316 3.316 0 1 1 3.316-3.316 3.32 3.32 0 0 1-3.316 3.319z" transform="translate(-522.328 -1104.878)"/>
        </g>
    </g>
</svg>
