<svg xmlns="http://www.w3.org/2000/svg" width="83.438" height="91.706" viewBox="0 0 83.438 91.706">
    <defs>
        <style>
            .cls-3{fill:#e34}.cls-4{fill:#081f3b}
        </style>
    </defs>
    <g id="Group_1698" transform="translate(-641.265 -6488.664)">
        <g id="Group_1693">
            <g id="Group_1692">
                <path id="Path_4149" fill="#f6fbfe" d="M662.36 6577.846c18.335-3.327 32.649 3.889 41.485 2.288s26.47-10.049 19.1-50.695-33.415-42.084-43.135-40.319c-45.509 8.25-49.924 94.617-17.45 88.726zm0 0"/>
            </g>
            <path id="Path_4150" fill="#a4aec0" d="M653.751 6559.439a4.041 4.041 0 1 1 2.919 4.913 4.045 4.045 0 0 1-2.919-4.913zm5.221 1.329a1.347 1.347 0 1 0-1.638.974 1.349 1.349 0 0 0 1.638-.974zm0 0"/>
        </g>
        <g id="Group_1697">
            <g id="Group_1694">
                <path id="Path_4151" d="M688.845 6520.286a.824.824 0 0 0-.591 1.4l5.492 5.556a.823.823 0 0 0 1.172 0l5.492-5.556a.824.824 0 1 0-1.172-1.159l-4.906 4.963-4.906-4.963a.831.831 0 0 0-.581-.245zm0 0" class="cls-3"/>
                <path id="Path_4152" d="M694.332 6525.842a.825.825 0 0 0-.825.824v11.693a.824.824 0 1 0 1.649 0v-11.693a.823.823 0 0 0-.824-.824zm0 0" class="cls-3"/>
                <path id="Path_4153" d="M689.152 6528.565a.824.824 0 1 0 0 1.649h10.36a.824.824 0 1 0 0-1.649zm0 0" class="cls-3"/>
                <path id="Path_4154" d="M689.152 6533.182a.824.824 0 1 0 0 1.648h10.36a.824.824 0 1 0 0-1.648zm0 0" class="cls-3"/>
            </g>
            <path id="Path_4155" d="M671.636 6514.839a13.8 13.8 0 1 0 13.8 13.8 13.812 13.812 0 0 0-13.8-13.8zm0 1.649a12.15 12.15 0 1 1-12.15 12.15 12.138 12.138 0 0 1 12.15-12.15zm0 0" class="cls-4"/>
            <path id="Path_4156" d="M694.3 6514.839a13.8 13.8 0 0 0-12.037 7.11.822.822 0 0 0 0 .8 12.149 12.149 0 0 1 0 11.779.825.825 0 0 0 0 .8 13.8 13.8 0 1 0 12.07-20.488h-.033zm0 1.649h.03a12.15 12.15 0 1 1-10.409 18.378 13.593 13.593 0 0 0 0-12.457 12.131 12.131 0 0 1 10.379-5.921zm0 0" class="cls-4"/>
            <g id="Group_1695">
                <path id="Path_4157" d="M677.266 6520.2a.824.824 0 0 0-.825-.824 9.261 9.261 0 0 0 0 18.522.824.824 0 1 0 0-1.649 7.612 7.612 0 0 1 0-15.224.826.826 0 0 0 .825-.825zm0 0" class="cls-3"/>
                <path id="Path_4158" d="M664.375 6530a.824.824 0 1 0 0 1.649h11.216a.824.824 0 0 0 0-1.649zm0 0" class="cls-3"/>
                <path id="Path_4159" d="M664.375 6525.631a.824.824 0 1 0 0 1.648h11.216a.824.824 0 1 0 0-1.648zm0 0" class="cls-3"/>
            </g>
            <path id="Path_4160" d="M682.984 6534.1a.825.825 0 0 0-.721.425 12.148 12.148 0 0 1-10.269 6.254.826.826 0 0 0-.709.446 13.167 13.167 0 1 0 23.4 0 .826.826 0 0 0-.709-.446 12.148 12.148 0 0 1-10.269-6.254.825.825 0 0 0-.721-.425zm0 2.345a13.77 13.77 0 0 0 10.408 5.931 11.518 11.518 0 1 1-20.817 0 13.773 13.773 0 0 0 10.409-5.932zm0 0" class="cls-4"/>
            <g id="Group_1696">
                <path id="Path_4161" d="M683.06 6541.9a3.438 3.438 0 0 0-.927.179 3.313 3.313 0 0 0-1.541 1.093 3.186 3.186 0 0 0-.673 1.789 3.07 3.07 0 0 0 .509 1.866 4.052 4.052 0 0 0 1.6 1.326c.564.284 1.1.471 1.539.69a4.222 4.222 0 0 1 1.242.889 2.473 2.473 0 0 1 .63 1.2 2.1 2.1 0 0 1-.322 1.493 2.325 2.325 0 0 1-1.288.915 2.4 2.4 0 0 1-2.674-3.578.825.825 0 1 0-1.4-.87 4.047 4.047 0 0 0 4.513 6.037 3.919 3.919 0 0 0 2.219-1.586 3.691 3.691 0 0 0 .576-2.705 4.058 4.058 0 0 0-1.042-2.022 5.808 5.808 0 0 0-1.723-1.25c-.562-.277-1.09-.463-1.525-.683a2.537 2.537 0 0 1-.975-.769 1.459 1.459 0 0 1-.233-.864 1.577 1.577 0 0 1 .326-.862 1.7 1.7 0 0 1 .774-.547 1.84 1.84 0 0 1 .974-.051 1.885 1.885 0 0 1 1.425 1.4.824.824 0 0 0 1.6-.386 3.528 3.528 0 0 0-3.608-2.7zm0 0" class="cls-3"/>
                <path id="Path_4162" d="M683.005 6540.035a.824.824 0 0 0-.825.824v1.877a.824.824 0 1 0 1.649 0v-1.877a.824.824 0 0 0-.824-.824zm0 0" class="cls-3"/>
                <path id="Path_4163" d="M683.005 6553.422a.825.825 0 0 0-.825.825v1.877a.824.824 0 0 0 1.649 0v-1.877a.825.825 0 0 0-.824-.825zm0 0" class="cls-3"/>
            </g>
        </g>
    </g>
</svg>
