<svg xmlns="http://www.w3.org/2000/svg" width="84.956" height="77.587" viewBox="0 0 84.956 77.587">
    <defs>
        <style>
            .cls-3{fill:#081f3b}.cls-4{fill:#e34}
        </style>
    </defs>
    <g id="Group_196" transform="translate(-3366.904 -2494.054)">
        <g id="Group_193">
            <g id="Group_192">
                <path id="Path_638" fill="#f6fbfe" d="M3367.463 2516.15c4.512 16.7-1.043 30.508 1.13 38.556s11.368 23.7 48.393 13.7 36.316-34.207 33.923-43.061c-11.195-41.454-91.438-38.777-83.446-9.2zm0 0"/>
            </g>
            <path id="Path_639" fill="#a4aec0" d="M3443.378 2529.147a3.752 3.752 0 1 1-4.317 3.085 3.756 3.756 0 0 1 4.317-3.085zm-.821 4.934a1.25 1.25 0 1 0-1.029-1.438 1.251 1.251 0 0 0 1.029 1.438zm0 0"/>
        </g>
        <g id="Group_195">
            <g id="Group_194">
                <path id="Path_640" d="M3432.831 2543.763a.866.866 0 0 0-.735-.409h-12.956a.864.864 0 0 0-.772.477l-1.489 2.978h-4.195l-6.228-9a5.183 5.183 0 0 0-4.261-2.232h-2.562l-1.046-1.046a3.538 3.538 0 0 0 2.416-3.351v-5.225a2.368 2.368 0 0 0-1.506-4.2h-6a4.087 4.087 0 0 0-3.4 6.354l.169.253a2.3 2.3 0 0 0 .5 2.512l.739.739v2.74l-1.221 1.221h-1.958a7.185 7.185 0 0 0-5.485 11.826l.027.032v9.734h1.728v-7.692l3.885 4.591a8.74 8.74 0 0 0 6.686 3.1h30.886a.866.866 0 0 0 .773-.477l6.045-12.092a.866.866 0 0 0-.037-.841zm-20.6 4.773h3.785l-1.912 3.824-1.3.325a5.754 5.754 0 0 1-1.279.168 1.511 1.511 0 0 0-.313-.71l-1.669-2.086a6.037 6.037 0 0 0-4.546-2.267l-.07-.1 3.971-3.309 2.622 3.788a.862.862 0 0 0 .71.372zm-11.062 6.91l2.16-.864h9.664l-.432.864zm1.872-7.477l-1.174.157v-1.919zm-4.779-11.316l-1.029 2.573-1.121-1.12 1.594-2.01zm-5.989-.621l1.544 2.059-1.136 1.135-1.029-2.573zm5.2-3.042a1.8 1.8 0 0 1-1.614-1l-.126-.252-1.545.772.126.252a3.506 3.506 0 0 0 2.357 1.86l-1.692 2.134-1.746-2.329v-3.167a.864.864 0 0 0-.253-.61l-.992-.993a.579.579 0 0 1 .409-.988h.836a.862.862 0 0 0 .61-.253l.864-.863a.864.864 0 0 0 .253-.611v-.674l3.286.657a.851.851 0 0 0 .442-.028l.591-.2v4.481a1.808 1.808 0 0 1-1.806 1.806zm-6.086-8.2a2.347 2.347 0 0 1 2.111-1.3h6a.642.642 0 0 1 .2 1.251l-1.344.449-4.093-.819a.863.863 0 0 0-1.033.847v1.369l-.358.358h-.478a2.313 2.313 0 0 0-.888.175 2.364 2.364 0 0 1-.122-2.325zm-3.061 12.514h1.731l1.51 3.776a.864.864 0 0 0 1.413.29l1.116-1.117v3.961h1.728v-3.961l1.117 1.117a.864.864 0 0 0 1.412-.29l1.51-3.776h2.335a3.454 3.454 0 0 1 2.841 1.489l2.875 4.153-3.946 3.289-2.243-3.364a.864.864 0 0 0-1.583.479v5l-4.282.571-6.271-7.84-1.349 1.08 2.951 3.689-4.34 3.616-2.691-3.18a5.458 5.458 0 0 1 4.166-8.984zm1.473 15.648l-1.832-2.165 4.3-3.586 1.59 1.989-1.606.213.228 1.713 2.638-.352.029.035.058-.047 9.042-1.205a4.322 4.322 0 0 1 3.948 1.585l1.375 1.719h-2.317l-1.545-.773a.863.863 0 0 0-.707-.029l-7.226 2.89a7.033 7.033 0 0 1-7.979-1.987zm35.72 2.49h-11.024l5.182-10.365h11.023zm0 0" class="cls-3"/>
            </g>
            <path id="Path_641" d="M3402.73 2511.4a.863.863 0 0 0-.863.863v6.046a.864.864 0 0 0 .863.864h2.591a.864.864 0 0 0 .864-.864v-6.046a.863.863 0 0 0-.864-.863zm1.728 6.045h-.864v-4.318h.864zm0 0" class="cls-4"/>
            <path id="Path_642" d="M3413.095 2516.58a.864.864 0 0 0-.864.863v6.046a.864.864 0 0 0 .864.864h2.591a.864.864 0 0 0 .863-.864v-6.046a.864.864 0 0 0-.863-.863zm1.727 6.046h-.864v-4.319h.864zm0 0" class="cls-4"/>
            <path id="Path_643" d="M3423.459 2513.125a.864.864 0 0 0-.864.864v13.819a.864.864 0 0 0 .864.863h2.591a.864.864 0 0 0 .864-.863v-13.819a.864.864 0 0 0-.864-.864zm1.727 13.819h-.863v-12.092h.863zm0 0" class="cls-4"/>
            <path id="Path_644" d="M3407.912 2513.125a.864.864 0 0 0-.863.864v12.091a.864.864 0 0 0 .863.864h2.592a.864.864 0 0 0 .863-.864v-12.091a.864.864 0 0 0-.863-.864zm1.728 12.092h-.864v-10.365h.864zm0 0" class="cls-4"/>
            <path id="Path_645" d="M3418.277 2516.58a.864.864 0 0 0-.864.863v13.819a.864.864 0 0 0 .864.864h2.591a.864.864 0 0 0 .864-.864v-13.819a.864.864 0 0 0-.864-.863zm1.723 13.82h-.864v-12.092h.864zm0 0" class="cls-4"/>
            <path id="Path_646" d="M3404.4 2508.939l4.765 3.177a.864.864 0 0 0 1-.027l2.92-2.19 3.8 3.036a.865.865 0 0 0 1.151-.063l2.338-2.338h3.961a.864.864 0 0 0 .61-.253l4.319-4.319-1.222-1.221-4.065 4.065H3420a.86.86 0 0 0-.61.254l-2.045 2.044-3.715-2.972a.864.864 0 0 0-1.058-.017l-2.965 2.225-4.674-3.116a.866.866 0 0 0-.866-.054l-5.182 2.591.773 1.545zm0 0" class="cls-3"/>
        </g>
    </g>
</svg>
