<svg xmlns="http://www.w3.org/2000/svg" width="63.352" height="68.639" viewBox="0 0 63.352 68.639">
    <defs>
        <style>
            .cls-3{fill:#081f3b}
        </style>
    </defs>
    <g id="Group_19" transform="translate(-807.702 -1363.174)">
        <g id="Group_16">
            <path id="Path_24" fill="#f6fbfe" d="M817.351 1420.291c13.369 2.029 21.5 10.348 27.941 11.327s20.535-.674 25.034-30.311-13.043-36.749-20.131-37.824c-33.182-5.038-56.523 53.216-32.844 56.808zm0 0"/>
        </g>
        <path id="Path_25" fill="#a4aec0" d="M849 1369.505a2.932 2.932 0 1 1-2.932 2.933 2.937 2.937 0 0 1 2.932-2.933zm0 3.91a.978.978 0 1 0-.978-.977.979.979 0 0 0 .978.977zm0 0"/>
        <g id="Group_18">
            <g id="Group_17">
                <path id="Path_27" d="M857.009 1407.755a3.529 3.529 0 0 0-2.194-3.093l-6.245-2.3a3.335 3.335 0 0 0-3.132.356l-2.226 1.542c-1.074.743-1.836.179-3.284-1.5a35.646 35.646 0 0 1-4.286-6.193c-1.038-1.9-1.3-2.811-.225-3.554l2.225-1.543a3.326 3.326 0 0 0 1.433-2.788l.04-6.674a3.531 3.531 0 0 0-2.126-3.14c-2.257-1.191-5.671-1.148-7.458.091-5.338 3.7-5.4 13.132-.151 22.426a38.163 38.163 0 0 0 3.875 5.588c4.957 5.91 10.955 9.246 15.915 9.246a8.863 8.863 0 0 0 5.137-1.519c1.787-1.233 3.025-4.416 2.702-6.945zm-3.671 5.553c-4.525 3.136-12.6-.053-18.78-7.422a36.405 36.405 0 0 1-3.7-5.332c-4.731-8.374-4.886-17.054-.36-20.191 1.258-.871 4.025-.864 5.694.016a1.877 1.877 0 0 1 1.219 1.625l-.04 6.694a1.634 1.634 0 0 1-.7 1.379l-2.225 1.543c-2.5 1.736-1.069 4.359-.273 5.815a37.241 37.241 0 0 0 4.5 6.484c1.049 1.216 3 3.476 5.505 1.744l2.225-1.544a1.652 1.652 0 0 1 1.557-.164l6.264 2.3a1.88 1.88 0 0 1 1.094 1.712c.242 1.874-.718 4.468-1.98 5.341z" class="cls-3"/>
                <path id="Path_28" fill="#e34" d="M857.946 1388.152l-2.27-3.275a1.387 1.387 0 0 0-1.93-.352l-8.166 5.662-.667-.96a1.391 1.391 0 0 0-.755-.6 1.387 1.387 0 0 0-1.753.884l-2.405 7.31v.008a1.455 1.455 0 0 0-.064.371 1.386 1.386 0 0 0 1.329 1.439l7.661.311h.088a1.386 1.386 0 0 0 1.14-2.175l-.718-1.037 8.164-5.658a1.39 1.39 0 0 0 .346-1.928zm-10.883 7.16l1.328 1.914-6.647-.27 2.079-6.318 1.328 1.915 9.3-6.45 1.912 2.758z"/>
                <path id="Path_29" d="M843.485 1390.149l.005.007z" class="cls-3"/>
            </g>
        </g>
    </g>
</svg>
