<svg xmlns="http://www.w3.org/2000/svg" width="91.165" height="83.444" viewBox="0 0 91.165 83.444">
    <defs>
        <style>
            .cls-3{fill:#081f3b}.cls-4{fill:#e34}
        </style>
    </defs>
    <g id="Group_1684" transform="translate(-1099.722 -6496.227)">
        <g id="Group_1668">
            <g id="Group_1667">
                <path id="Path_4128" fill="#f6fbfe" d="M1189.626 6557.561c-3.93-18.216 2.81-32.759.918-41.538s-10.917-26.124-51.3-17.417-40.958 34.786-38.874 44.442c9.747 45.212 96.213 46.775 89.254 14.513zm0 0"/>
            </g>
            <path id="Path_4129" fill="#a4aec0" d="M1177.258 6517.012a4.041 4.041 0 1 1 4.814-3.08 4.047 4.047 0 0 1-4.814 3.08zm1.156-5.263a1.347 1.347 0 1 0 1.027 1.6 1.348 1.348 0 0 0-1.027-1.6zm0 0"/>
        </g>
        <g id="Group_1683">
            <g id="Group_1682">
                <g id="Group_1679">
                    <g id="Group_1669">
                        <path id="Path_4130" d="M1159.39 6520.968h-24.636a3.207 3.207 0 0 1 0-6.414h24.636a3.207 3.207 0 1 1 0 6.414zm-24.636-4.753a1.546 1.546 0 0 0 0 3.091h24.636a1.546 1.546 0 0 0 0-3.091z" class="cls-3"/>
                    </g>
                    <g id="Group_1670">
                        <path id="Path_4131" d="M1147.053 6516.843a.918.918 0 1 0 .917.917.918.918 0 0 0-.917-.917z" class="cls-3"/>
                        <path id="Path_4132" d="M1139.7 6516.843a.918.918 0 1 0 .919.917.919.919 0 0 0-.919-.917z" class="cls-3"/>
                        <path id="Path_4133" d="M1154.4 6516.843a.918.918 0 1 0 .918.917.918.918 0 0 0-.918-.917z" class="cls-3"/>
                    </g>
                    <g id="Group_1673">
                        <g id="Group_1671">
                            <path id="Path_4134" d="M1137.766 6551.79h-1.772a4.457 4.457 0 0 1-4.446-4.457v-29.37a.831.831 0 1 1 1.661 0v29.37a2.793 2.793 0 0 0 2.785 2.795h1.772a.831.831 0 0 1 0 1.662z" class="cls-3"/>
                        </g>
                        <g id="Group_1672">
                            <path id="Path_4135" d="M1158.112 6551.79h-1.712a.831.831 0 0 1 0-1.662h1.708a2.794 2.794 0 0 0 2.785-2.795v-24.371a.831.831 0 1 1 1.661 0v24.371a4.457 4.457 0 0 1-4.442 4.457z" class="cls-3"/>
                        </g>
                    </g>
                    <g id="Group_1678">
                        <g id="Group_1674">
                            <path id="Path_4136" d="M1157.261 6525.337h-20.416a.831.831 0 0 1 0-1.662h20.416a.831.831 0 0 1 0 1.662z" class="cls-4"/>
                        </g>
                        <g id="Group_1675">
                            <path id="Path_4137" d="M1155.324 6529.585h-16.542a.831.831 0 0 1 0-1.662h16.542a.831.831 0 0 1 0 1.662z" class="cls-4"/>
                        </g>
                        <g id="Group_1676">
                            <path id="Path_4138" d="M1155.324 6533.833h-16.542a.831.831 0 0 1 0-1.662h16.542a.831.831 0 0 1 0 1.662z" class="cls-4"/>
                        </g>
                        <g id="Group_1677">
                            <path id="Path_4139" d="M1155.324 6538.081h-16.542a.831.831 0 0 1 0-1.662h16.542a.831.831 0 0 1 0 1.662z" class="cls-4"/>
                        </g>
                    </g>
                </g>
                <g id="Group_1680">
                    <path id="Path_4140" d="M1147.053 6560.721a9.763 9.763 0 1 1 9.762-9.762 9.774 9.774 0 0 1-9.762 9.762zm0-17.863a8.1 8.1 0 1 0 8.1 8.1 8.11 8.11 0 0 0-8.1-8.1z" class="cls-3"/>
                </g>
                <g id="Group_1681">
                    <path id="Path_4141" d="M1143.661 6559.662a.831.831 0 0 1-.831-.831V6548.4a.831.831 0 0 1 .308-.645l3.438-2.789a.833.833 0 0 1 1.055.007l3.342 2.789a.833.833 0 0 1 .3.638v7.526a.831.831 0 0 1-1.661 0v-7.137l-2.519-2.1-2.6 2.109v10.032a.831.831 0 0 1-.832.832z" class="cls-3"/>
                </g>
            </g>
        </g>
    </g>
</svg>
