<svg xmlns="http://www.w3.org/2000/svg" width="66.438" height="22.67" viewBox="0 0 66.438 22.67">
    <defs>
        <style>
            .cls-1{fill:#5b86ba}
        </style>
    </defs>
    <g id="Group_183" transform="translate(-499.983 -2909.185)">
        <path id="Path_618" d="M500.377 2928.543v-2.279c0-.159.022-.2.187-.134a16.883 16.883 0 0 0 6.367 1.124 4.868 4.868 0 0 0 2.238-.508 1.6 1.6 0 0 0 .913-1.769 1.344 1.344 0 0 0-.862-1.057 3.7 3.7 0 0 0-1.259-.259 12.58 12.58 0 0 1-4.023-.851 6.022 6.022 0 0 1-3.482-3.288 6.314 6.314 0 0 1 2.467-7.719 8.768 8.768 0 0 1 3.523-1.237 19.944 19.944 0 0 1 4.243-.052 18.5 18.5 0 0 1 4.914 1.034.2.2 0 0 1 .164.228q-.008 2.232 0 4.463c0 .138-.016.184-.165.119a18.28 18.28 0 0 0-5.156-1.332 8.2 8.2 0 0 0-2.92.1 2.531 2.531 0 0 0-.68.268 1.486 1.486 0 0 0-.726 1.663 1.462 1.462 0 0 0 1.123 1.078 6 6 0 0 0 1.373.2 11.776 11.776 0 0 1 4.471 1.16 6.1 6.1 0 0 1 1.838 9.756 7.973 7.973 0 0 1-3.905 2.22 15.571 15.571 0 0 1-4.565.368 32.008 32.008 0 0 1-3.444-.293c-.841-.121-1.673-.287-2.5-.491-.135-.033-.134-.106-.133-.208l-.001-2.304z" class="cls-1"/>
        <path id="Path_619" d="M532.966 2931.624H526.406c-.2 0-.278-.045-.329-.251a21.534 21.534 0 0 0-1.928-5.17c-.122-.226-.262-.442-.394-.663-.012-.02-.028-.037-.077-.1v5.969c0 .167-.036.215-.21.214q-2.658-.01-5.316 0c-.147 0-.194-.031-.194-.187q.008-9.853 0-19.7c0-.146.042-.191.186-.219q2.68-.521 5.357-1.061c.2-.04.172.071.172.189v10.836a10.957 10.957 0 0 0 .736-.937 19.161 19.161 0 0 0 2.348-4.285.211.211 0 0 1 .234-.164q3.083.008 6.167 0c.145 0 .19.016.136.175a24.957 24.957 0 0 1-3.8 7.159.332.332 0 0 0-.04.434 51.384 51.384 0 0 1 2.944 6.025 13.479 13.479 0 0 1 .543 1.626c.015.031.018.062.025.11z" class="cls-1"/>
        <path id="Path_620" d="M558.339 2921.013v10.351c0 .26 0 .26-.269.26h-5.044c-.159 0-.218-.023-.218-.2q.008-9.908 0-19.814c0-.152.04-.207.193-.234 1.559-.272 3.116-.552 4.674-.829.177-.032.355-.061.531-.095.1-.02.146.009.133.115a1.007 1.007 0 0 0 0 .135z" class="cls-1"/>
        <path id="Path_621" d="M566.417 2921.036v10.37c0 .171-.037.223-.217.222q-2.562-.01-5.122 0c-.161 0-.2-.04-.2-.2q.008-9.917 0-19.833c0-.148.049-.2.185-.218q2.337-.411 4.673-.829c.171-.03.343-.057.513-.093.117-.025.172-.008.167.134-.01.354 0 .708 0 1.062z" class="cls-1"/>
        <path id="Path_622" d="M534.127 2926.856c0-1.435-.015-2.871 0-4.307a7.234 7.234 0 0 1 .768-3.3 5.554 5.554 0 0 1 2.995-2.626 11.764 11.764 0 0 1 4.853-.722c.545.02.544.036.544.579 0 1.275 0 2.55.005 3.824 0 .164-.049.2-.2.209a6.9 6.9 0 0 0-1.508.206 2.246 2.246 0 0 0-1.779 1.994 9.436 9.436 0 0 0-.109 1.423q-.006 3.631 0 7.262c0 .193-.055.226-.234.225q-2.571-.01-5.142 0c-.178 0-.207-.053-.206-.215.006-1.519 0-3.038 0-4.558z" class="cls-1"/>
        <path id="Path_623" d="M550.477 2923.878v7.532c0 .182-.053.218-.224.218q-2.561-.01-5.121 0c-.147 0-.194-.03-.194-.187q.008-7.562 0-15.122c0-.163.043-.2.2-.2q2.551.009 5.1 0c.18 0 .235.035.235.228.001 2.509.004 5.02.004 7.531z" class="cls-1"/>
        <path id="Path_624" d="M547.711 2914.629a2.722 2.722 0 0 1-.018-5.444 2.722 2.722 0 1 1 .018 5.444z" class="cls-1"/>
    </g>
</svg>
