<?xml version="1.0" encoding="utf-8"?>
<!-- Generator: Adobe Illustrator 16.0.0, SVG Export Plug-In . SVG Version: 6.00 Build 0)  -->
<!DOCTYPE svg PUBLIC "-//W3C//DTD SVG 1.1//EN" "http://www.w3.org/Graphics/SVG/1.1/DTD/svg11.dtd">
<svg version="1.1" id="Layer_1" xmlns="http://www.w3.org/2000/svg" xmlns:xlink="http://www.w3.org/1999/xlink" x="0px" y="0px"
	 width="145.818px" height="44.504px" viewBox="0 0 145.818 44.504" enable-background="new 0 0 145.818 44.504"
	 xml:space="preserve">
<g id="Group_76" transform="translate(-2894.702 -5239.03)">
	<g id="Group_74">
		<path id="Path_95" d="M2894.7,5281.899v-30.77h10.632l5.43,22.441l5.43-22.441h10.632v30.77h-6.244V5258.1h-0.678l-6.019,22.44
			h-6.242l-6.019-22.44h-0.679v23.799H2894.7z"/>
		<path id="Path_96" d="M2930.76,5256.65v-5.52h22.622v5.52h-8.144v25.25H2939v-25.25H2930.76z"/>
	</g>
	<path id="Rectangle_83" d="M2994.595,5251.13h1.251v30.764h-1.251V5251.13z"/>
	<g id="Group_75">
		<path id="Path_98" d="M3007.7,5265.795c-0.05-1.195,0.031-2.394,0.242-3.571c0.191-0.919,0.478-1.816,0.854-2.678
			c0.583-1.389,1.469-2.629,2.594-3.631c0.683-0.629,1.459-1.149,2.301-1.541c0.868-0.359,1.779-0.605,2.711-0.731
			c1.127-0.175,2.276-0.161,3.399,0.041c0.653,0.143,1.292,0.346,1.908,0.606c0.557,0.214,1.1,0.467,1.666,0.652
			c0.702,0.248,1.47,0.242,2.169-0.014c1.066-0.45,2.157-0.839,3.267-1.166c1.238-0.328,2.526-0.429,3.801-0.3
			c0.934,0.08,1.854,0.271,2.743,0.569c1.004,0.361,1.929,0.913,2.725,1.623c0.386,0.341,0.754,0.7,1.126,1.055
			c0.096,0.087,0.18,0.186,0.252,0.294c0.118,0.172,0.105,0.293-0.069,0.385c-0.943,0.596-1.759,1.374-2.399,2.287
			c-0.388,0.438-0.72,0.921-0.989,1.44c-0.258,0.554-0.454,1.134-0.587,1.731c-0.203,0.833-0.287,1.69-0.249,2.547
			c0.066,0.925,0.269,1.835,0.6,2.7c0.495,1.235,1.274,2.337,2.274,3.216c0.665,0.597,1.404,1.104,2.2,1.511
			c0.332,0.184,0.345,0.215,0.199,0.582c-0.479,1.158-1.019,2.291-1.616,3.394c-0.608,1.164-1.347,2.256-2.2,3.254
			c-0.646,0.837-1.389,1.596-2.211,2.261c-0.655,0.52-1.406,0.902-2.21,1.129c-0.688,0.145-1.402,0.109-2.073-0.1
			c-1.237-0.337-2.408-0.859-3.625-1.247c-0.733-0.215-1.501-0.285-2.261-0.207c-1.247,0.147-2.465,0.483-3.612,0.994
			c-0.342,0.151-0.692,0.286-1.049,0.399c-1.376,0.428-2.871,0.229-4.087-0.545c-0.973-0.639-1.825-1.445-2.517-2.381
			c-0.999-1.321-1.874-2.732-2.611-4.215c-0.394-0.773-0.7-1.588-1.034-2.391c-0.578-1.438-1.014-2.93-1.3-4.452
			c-0.207-1.159-0.315-2.335-0.325-3.513"/>
		<path id="Path_99" d="M3031.7,5245.487c0.014,0.567-0.046,1.133-0.175,1.685c-0.141,0.713-0.383,1.402-0.719,2.047
			c-0.509,1.031-1.221,1.949-2.092,2.7c-0.542,0.519-1.169,0.941-1.853,1.249c-0.761,0.311-1.554,0.535-2.364,0.67
			c-0.092,0.015-0.184,0.04-0.273,0.057c-0.236,0.042-0.347-0.039-0.383-0.286c-0.063-0.442-0.071-0.891-0.027-1.336
			c0.032-0.752,0.189-1.493,0.466-2.193c0.646-1.567,1.7-2.934,3.052-3.958c0.803-0.63,1.713-1.11,2.686-1.417
			c0.438-0.135,0.882-0.245,1.331-0.33c0.287-0.05,0.33-0.02,0.349,0.271c0.017,0.257,0,0.517,0,0.836"/>
	</g>
</g>
<g>
	<path fill="#F4BB2A" d="M67.737,35.12l6.347-0.658c0.182,1.438,0.719,2.574,1.609,3.412c0.893,0.84,1.92,1.258,3.084,1.258
		c1.33,0,2.455-0.539,3.377-1.619c0.922-1.082,1.383-2.709,1.383-4.887c0-2.039-0.457-3.57-1.371-4.59s-2.104-1.529-3.57-1.529
		c-1.828,0-3.469,0.809-4.92,2.424l-5.168-0.748l3.265-17.295h16.843v5.962H76.6l-0.997,5.645c1.42-0.71,2.871-1.065,4.353-1.065
		c2.825,0,5.222,1.028,7.187,3.083c1.964,2.057,2.946,4.723,2.946,8.002c0,2.736-0.794,5.178-2.38,7.322
		c-2.162,2.932-5.162,4.398-9,4.398c-3.068,0-5.569-0.824-7.503-2.471C69.27,40.116,68.114,37.901,67.737,35.12z"/>
</g>
</svg>
