<svg xmlns="http://www.w3.org/2000/svg" width="136.402" height="32.098" viewBox="0 0 136.402 32.098">
    <defs>
        <style>
            .cls-1{fill:white}.cls-5{fill:#00d4ff}.cls-9{fill:#f63448}.cls-11{fill:#ee2f4c}.cls-15{fill:#12de76}.cls-16{fill:#00c8fe}.cls-17{fill:#00c1fe}.cls-20{fill:#00cefe}
        </style>
    </defs>
    <g id="Group_1604" transform="translate(-888.431 -3745.633)">
        <path id="Path_3789" d="M937.793 3772.02a7.176 7.176 0 0 1-5.512 1.146 7.74 7.74 0 0 1-1.267-15.01 7.367 7.367 0 0 1 6.623.787 5.977 5.977 0 0 1 .666.518c.394.345.4.519.02.922-.194.2-.415.383-.6.595a.543.543 0 0 1-.851.077 5.59 5.59 0 0 0-8.119 1.514 5.633 5.633 0 0 0 7.933 7.618 4.012 4.012 0 0 0 1.741-2.474c.115-.469-.065-.749-.539-.76-.845-.024-1.694-.009-2.539-.015-.424 0-.849-.009-1.27-.012-.351-.006-.5-.209-.507-.533s-.014-.66 0-.987c.021-.46.145-.607.581-.613.987-.014 1.976-.006 2.963-.006v-.011c.99 0 1.977-.012 2.967.005.421.006.583.177.613.607.19 2.712-.564 5.038-2.903 6.632z" class="cls-1"/>
        <path id="Path_3790" d="M972.867 3768.847v-4.1a5.262 5.262 0 0 0-.047-.842c-.02-.121-.129-.3-.224-.322-.547-.112-1.157-.288-1.605.13a.573.573 0 0 1-.837.088 3.678 3.678 0 0 0-2.846-.489 5.084 5.084 0 0 0-2.053 8.853 3.947 3.947 0 0 0 4.849.533 1.984 1.984 0 0 1 .242-.144c.3-.136.548.041.53.4-.012.232-.056.465-.088.695a2.383 2.383 0 0 1-2.507 2.018 2.8 2.8 0 0 1-2.1-.987c-.666-.719-.7-.713-1.535-.321a2.771 2.771 0 0 0-.25.126c-.442.242-.5.463-.236.914a4.719 4.719 0 0 0 4.941 2.271 4.271 4.271 0 0 0 3.659-3.606 6.435 6.435 0 0 0 .123-1.4v-3.815zm-1.917-.009a2.61 2.61 0 0 1-2.7 2.345 2.812 2.812 0 0 1-2.639-2.472 3.011 3.011 0 0 1 .7-2.492 2.629 2.629 0 0 1 4.513.957 6.988 6.988 0 0 1 .194.979c-.033.312-.042.5-.068.683z" class="cls-1"/>
        <path id="Path_3791" d="M998.677 3758.571a6.344 6.344 0 0 0-2.209-.394c-1.223.008-2.449 0-3.671.006a5.344 5.344 0 0 0-.566.017.477.477 0 0 0-.462.445c-.033.374-.042.751-.042 1.125-.005 1.93 0 3.857 0 5.786h.029v3.247c0 1.081 0 2.162.021 3.243.014.763.067.807.8.816.283 0 .566-.006.845-.029a.424.424 0 0 0 .422-.463c.006-1.128.014-2.256.008-3.388-.005-1.711-.088-1.57 1.627-1.576a10.8 10.8 0 0 0 2.8-.218 4.5 4.5 0 0 0 3.423-4.165 4.446 4.446 0 0 0-3.025-4.452zm-1.3 6.676a16.686 16.686 0 0 1-3.088.018.446.446 0 0 1-.424-.472q0-2.037.015-4.074a.357.357 0 0 1 .362-.359c.513-.018 1.028-.006 1.544-.006v-.024c.468 0 .943-.035 1.405.006a2.585 2.585 0 0 1 2.369 2.38 2.559 2.559 0 0 1-2.179 2.531z" class="cls-1"/>
        <path id="Path_3792" d="M1014.856 3769.569c0-.94.027-1.883-.009-2.82a3.323 3.323 0 0 0-1.62-2.813 4.951 4.951 0 0 0-5.459.094 2.4 2.4 0 0 0-.916 1.046.4.4 0 0 0 .091.51 7.092 7.092 0 0 0 1.276.565c.377.115.554-.283.816-.453a2.617 2.617 0 0 1 3.252.212c.236.221.566.492.43.828-.176.442-.58.15-.848.07a4.929 4.929 0 0 0-3.824.445 2.877 2.877 0 0 0-1.653 2.878 3.262 3.262 0 0 0 2.864 3.02 3.409 3.409 0 0 0 3.017-.81c.238-.221.5-.271.627.132a.526.526 0 0 0 .536.369c.33.011.657 0 .987-.009a.417.417 0 0 0 .436-.445c.009-.94 0-1.88 0-2.819zm-2.846.872a2.471 2.471 0 0 1-2.188.683 1.693 1.693 0 0 1-.881-.4 1.009 1.009 0 0 1-.139-1.487 1.721 1.721 0 0 1 .931-.59 9.992 9.992 0 0 1 1.011-.162c.282.021.471.03.657.048.509.05 1.134.047 1.3.609.152.539-.328.942-.691 1.299z" class="cls-1"/>
        <path id="Path_3793" d="M981.355 3769.336a4.6 4.6 0 0 1 .521-.215c1.429-.6 2.861-1.184 4.284-1.794.651-.28.73-.474.447-1.075a7.845 7.845 0 0 0-.7-1.217 4.423 4.423 0 0 0-7.226.085 5.411 5.411 0 0 0-.012 6.093 4.947 4.947 0 0 0 7.721.35c.333-.371.31-.654-.076-.943a3.083 3.083 0 0 0-1.146-.639 9.609 9.609 0 0 1-.958.754 2.728 2.728 0 0 1-2.937.059c-.324-.185-.692-.406-.713-.813-.021-.498.491-.481.795-.645zm-.967-1.494a.329.329 0 0 1-.483-.294 2.768 2.768 0 0 1 2.666-2.3 1.878 1.878 0 0 1 1.052.283c.2.112.427.244.457.5.032.3-.245.375-.439.46-1.081.462-2.165.909-3.253 1.351z" class="cls-1"/>
        <path id="Path_3794" d="M957.38 3763.256a4.747 4.747 0 0 0-4.866 4.966 4.892 4.892 0 0 0 4.928 5.067 4.978 4.978 0 0 0 4.994-5.058 4.82 4.82 0 0 0-5.056-4.975zm.065 7.957a2.963 2.963 0 1 1 2.817-2.935 2.916 2.916 0 0 1-2.817 2.935z" class="cls-1"/>
        <path id="Path_3795" d="M946.563 3763.261a4.872 4.872 0 0 0-5.038 4.958 4.981 4.981 0 1 0 5.038-4.958zm-.053 7.987a2.941 2.941 0 0 1-2.84-3.052 2.857 2.857 0 0 1 2.825-2.9 2.977 2.977 0 0 1 .015 5.948z" class="cls-1"/>
        <path id="Path_3796" d="M1024.784 3764.051c-.265.654-.557 1.293-.836 1.941q-2.118 4.914-4.231 9.828a5.761 5.761 0 0 0-.339.772.94.94 0 0 1-1.163.748c-.1-.009-.189 0-.445 0-.071-.006-.307-.021-.536-.053a.246.246 0 0 1-.2-.315 3.846 3.846 0 0 1 .248-.654c.447-1.034.869-2.08 1.364-3.091a1.865 1.865 0 0 0 0-1.735c-.861-1.876-1.691-3.767-2.531-5.653-.25-.557-.512-1.11-.742-1.673-.159-.4.009-.648.406-.681 1.553-.121 1.559-.123 2.18 1.341.457 1.078.9 2.168 1.347 3.249.144.348.282.7.45 1.031.074.144.121.4.366.318a.543.543 0 0 0 .282-.28c.189-.427.354-.869.528-1.3.483-1.222.99-2.433 1.44-3.667a.921.921 0 0 1 1.052-.707c.327.026.66 0 .987.017.358.013.509.231.373.564z" class="cls-1"/>
        <path id="Path_3797" d="M976.647 3765.48v6.484c-.006.881-.071.931-.978.942-.185 0-.374.006-.563-.005-.441-.033-.6-.177-.63-.593-.021-.279-.015-.562-.018-.845q-.014-5.917-.026-11.84a8.477 8.477 0 0 1 .038-.984.509.509 0 0 1 .471-.448 3.624 3.624 0 0 1 .563-.029c1.04-.009 1.114.05 1.12 1.113.008 2.069 0 4.137 0 6.205z" class="cls-1"/>
        <path id="Path_3798" d="M1005.117 3771.6c0 1.235-.059 1.288-1.246 1.264-.784-.015-.852-.062-.855-.925-.011-2.159-.005-4.322-.005-6.481h-.036v-5.918c0-.283 0-.566.021-.846a.5.5 0 0 1 .439-.48 5.772 5.772 0 0 1 1.125-.009.535.535 0 0 1 .5.572c.012.232.015.468.015.7q.025 6.064.042 12.123z" class="cls-1"/>
        <path id="Path_3799" d="M933.132 3749.952a3.463 3.463 0 0 1-4.8 3.161 3.669 3.669 0 0 1-2.445-3.727 3.726 3.726 0 0 1 4.2-3.7 3.261 3.261 0 0 1 1.891.86.415.415 0 0 1 .053.622c-.182.223-.386.436-.707.282-.253-.123-.477-.306-.733-.415a2.589 2.589 0 0 0-3.279 1.143 2.672 2.672 0 0 0 .907 3.582 2.6 2.6 0 0 0 3.429-.559 1.507 1.507 0 0 0 .2-.369.4.4 0 0 0-.28-.542c-.516-.029-1.034-.026-1.55-.047a.493.493 0 0 1-.524-.524.541.541 0 0 1 .58-.628c.425-.014.849 0 1.273 0 .33 0 .66-.008.987 0 .654.021.775.186.798.861z" class="cls-1"/>
        <path id="Path_3800" d="M971.639 3752.376c0 .5-.141.713-.439.772a.773.773 0 0 1-.834-.392c-.185-.271-.356-.551-.536-.828-.757-1.187-1.52-2.371-2.274-3.558-.065-.1-.133-.148-.236-.08-.068.044-.168.112-.171.177-.032.418-.053.839-.056 1.261-.006.939 0 1.879 0 2.819 0 .315-.1.545-.459.577s-.536-.141-.542-.627c-.015-1.456-.012-2.911-.018-4.369v-1.691c0-.233 0-.486.25-.61a.871.871 0 0 1 .934.071 2.012 2.012 0 0 1 .427.542c.654 1.031 1.3 2.068 1.951 3.1.15.239.312.471.48.695a.335.335 0 0 0 .215.118c.194.012.218-.168.221-.289.017-.936.02-1.876.029-2.816a8.956 8.956 0 0 1 .036-1.125.448.448 0 0 1 .518-.368.457.457 0 0 1 .474.421 5.506 5.506 0 0 1 .018.7v2.536h.009c.006.988.015 1.977.003 2.964z" class="cls-1"/>
        <path id="Path_3801" d="M961.313 3745.633a3.652 3.652 0 0 0-3.414 2.085 4.6 4.6 0 0 0-.312 2.069 3.567 3.567 0 0 0 2.828 3.432 3.667 3.667 0 0 0 4.068-1.848 3.812 3.812 0 0 0-3.17-5.738zm-.082 6.493a2.664 2.664 0 1 1 2.613-2.716 2.609 2.609 0 0 1-2.613 2.716z" class="cls-1"/>
        <path id="Path_3802" d="M938.12 3753.148c-1.081.02-2.162.02-3.244.015a.524.524 0 0 1-.556-.513 2.247 2.247 0 0 1-.024-.28c0-1.927-.015-3.853 0-5.78 0-.642.121-.745.734-.763.471-.015.939 0 1.411 0v-.006c.518 0 1.034-.009 1.552.006.374.009.522.162.539.5.021.4-.141.577-.592.595-.61.021-1.222.009-1.832.033-.53.02-.678.167-.722.659-.106 1.164.006 1.288 1.178 1.326.425.012.849.012 1.267.05.286.027.36.262.357.513s-.1.483-.377.5c-.607.044-1.22.038-1.83.073-.436.027-.574.183-.6.616a6.117 6.117 0 0 0 0 .7c.026.4.194.595.613.616.657.029 1.317.014 1.974.026a.5.5 0 0 1 .559.5c.041.343-.107.608-.407.614z" class="cls-1"/>
        <path id="Path_3803" d="M954.759 3746.472a.548.548 0 0 1-.342.41.68.68 0 0 1-.277.032c-1.5-.062-1.3.236-1.3 1.482-.009 1.267.006 2.537 0 3.806a1.914 1.914 0 0 1-.071.692.523.523 0 0 1-.577.307.455.455 0 0 1-.424-.312 4.21 4.21 0 0 1-.059-.84c-.012-1.27-.009-2.536-.018-3.806a5.646 5.646 0 0 0-.03-.843.479.479 0 0 0-.456-.45c-.327-.024-.657-.018-.984-.048-.348-.029-.483-.2-.483-.556s.141-.563.468-.572c.7-.02 1.408-.006 2.115-.006v-.017c.657 0 1.314-.018 1.971.005.355.012.54.344.467.716z" class="cls-1"/>
        <path id="Path_3804" d="M943.944 3746.882a1.322 1.322 0 0 1-.277.032c-1.467-.059-1.281.262-1.284 1.358-.009 1.267 0 2.534 0 3.8a6.047 6.047 0 0 1-.027.7c-.035.28-.256.377-.5.4a.461.461 0 0 1-.527-.359 4.19 4.19 0 0 1-.05-.839q-.009-1.9 0-3.8c0-.987.076-1.29-1.123-1.249a1.736 1.736 0 0 1-.279-.009c-.378-.041-.537-.194-.543-.509-.011-.363.2-.578.616-.6.327-.018.657-.006.984-.006h.987v.009c.657 0 1.314-.012 1.971.005a.446.446 0 0 1 .456.436.532.532 0 0 1-.404.631z" class="cls-1"/>
        <path id="Path_3805" d="M948.734 3752.285a1.947 1.947 0 0 1-.035.557.5.5 0 0 1-.554.326.4.4 0 0 1-.4-.315 1.991 1.991 0 0 1-.041-.415c0-1.965-.009-3.93 0-5.9 0-.551.115-.713.427-.751.392-.044.589.185.595.736.009.984 0 1.965 0 2.949h.015l-.007 2.813z" class="cls-1"/>
        <g id="Group_1603">
            <path id="Path_3806" fill="#010101" d="M914.6 3762.834a12.971 12.971 0 0 1-2.925 1.647 19.333 19.333 0 0 1-3.138 1.835 15.1 15.1 0 0 1-2.795 1.573 26.024 26.024 0 0 1-3.951 2.26.671.671 0 0 1-.554.318 50.416 50.416 0 0 1-5.132 2.978c-1.608.937-3.208 1.892-4.831 2.808a1.666 1.666 0 0 1-2.186-.118 1.938 1.938 0 0 1-.571-1.526c-.009-.751-.009-1.5-.012-2.254q-.014-5.416-.024-10.835c0-.515.036-1.028.056-1.543-.02-.28-.062-.56-.062-.84-.014-3.338-.029-6.679-.026-10.016 0-.548-.127-1.137.318-1.606a.327.327 0 0 1 .218-.333c.454-.692 1.114-.586 1.744-.392a2.359 2.359 0 0 1 1.181.693.629.629 0 0 1 .572.315 18.235 18.235 0 0 1 3.455 1.959 7.453 7.453 0 0 1 .766.333q5.833 3.27 11.658 6.555a20.91 20.91 0 0 1 3.32 1.9 17.3 17.3 0 0 1 2.716 1.446 1.846 1.846 0 0 1 .224.168 1.512 1.512 0 0 1-.021 2.675z"/>
            <path id="Path_3807" fill="#fff" d="M914.6 3762.834a12.971 12.971 0 0 1-2.925 1.647 19.333 19.333 0 0 1-3.138 1.835 15.1 15.1 0 0 1-2.795 1.573 26.024 26.024 0 0 1-3.951 2.26.671.671 0 0 1-.554.318 50.416 50.416 0 0 1-5.132 2.978c-1.608.937-3.208 1.892-4.831 2.808a1.666 1.666 0 0 1-2.186-.118 1.938 1.938 0 0 1-.571-1.526c-.009-.751-.009-1.5-.012-2.254q-.014-5.416-.024-10.835c0-.515.036-1.028.056-1.543-.02-.28-.062-.56-.062-.84-.014-3.338-.029-6.679-.026-10.016 0-.548-.127-1.137.318-1.606a.327.327 0 0 1 .218-.333c.454-.692 1.114-.586 1.744-.392a2.359 2.359 0 0 1 1.181.693.629.629 0 0 1 .572.315 18.235 18.235 0 0 1 3.455 1.959 7.453 7.453 0 0 1 .766.333q5.833 3.27 11.658 6.555a20.91 20.91 0 0 1 3.32 1.9 17.3 17.3 0 0 1 2.716 1.446 1.846 1.846 0 0 1 .224.168 1.512 1.512 0 0 1-.021 2.675z"/>
            <path id="Path_3808" fill="#00ef77" d="M908.36 3756.648c.032.4-.239.671-.416.984-.009.014-.015.029-.023.044-.03.032-.056.065-.083.1a32.32 32.32 0 0 1-3.95 3.924.136.136 0 0 1-.042.035c-.008.009-.02.018-.029.027a.838.838 0 0 1-.389 0l-.071-.056c-.014-.012-.029-.021-.041-.032-1.508-1.2-2.757-2.667-4.139-4-.124-.121-.247-.239-.374-.357l-.015-.014c-.686-.722-1.405-1.414-2.1-2.125-.086-.079-.168-.167-.248-.256-.041-.041-.076-.085-.118-.126-.082-.08-.159-.168-.235-.254-.039-.038-.077-.082-.115-.124-.086-.076-.162-.159-.242-.241l-.062-.059a.576.576 0 0 0-.061-.059c-.065-.056-.13-.115-.192-.177l-.065-.062c-.047-.041-.088-.085-.132-.126q-.549-.54-1.084-1.079c-.089-.079-.168-.167-.248-.253-.041-.041-.079-.085-.118-.126-.082-.083-.159-.168-.235-.254-.042-.041-.08-.082-.121-.124a3.2 3.2 0 0 1-.248-.259c-.041-.044-.079-.091-.118-.138a1.187 1.187 0 0 1-.182-.333.838.838 0 0 0-.012-.086v-.017c0-.03-.009-.062-.012-.092a1 1 0 0 1 .112-.378c.816-.928 1.682-1.691 2.984-.795a7.453 7.453 0 0 1 .766.333q5.833 3.27 11.658 6.555z"/>
            <path id="Path_3809" d="M895.748 3769.465a2.216 2.216 0 0 1-1.844 1.862c-.033.006-.068.009-.1.012s-.092.009-.139.012a2.155 2.155 0 0 1-1.2-1.467 20.432 20.432 0 0 1-1.013-3.506c-.657-3.264-1.871-6.381-2.487-9.651a38.552 38.552 0 0 1-.2-9.209.327.327 0 0 1 .218-.333c.7-.079.943.36 1.072.931.009.056.018.115.03.171v.006c.012.077.026.153.041.227.569 3.246 1.541 6.39 2.41 9.559 1.025 3.73 2.262 7.4 3.161 11.174l.035.148c.007.02.01.044.016.064z" class="cls-5"/>
            <path id="Path_3810" fill="#01d9fe" d="M893.783 3771.887l-.062.1-.006.006c-.471.466-.854 1.067-1.608 1.117H892.024c-.686-.071-.881-.6-1.049-1.146-.78-2.551-1.458-5.129-2.2-7.689-.4-1.364 0-2.864-.236-4.292-.02-.28-.062-.56-.062-.84-.014-3.338-.029-6.679-.026-10.016 0-.548-.127-1.137.318-1.606 0 2.159.012 4.322 0 6.481a5.283 5.283 0 0 0 .342 1.912 12.441 12.441 0 0 1 .786 3.258 2.78 2.78 0 0 0 .224.946 23.2 23.2 0 0 1 1.47 5.253c.038.182-.012.4.065.556.622 1.273.7 2.708 1.223 4.019a2.658 2.658 0 0 0 .978 1.3.345.345 0 0 1 .047.088.556.556 0 0 1-.121.553z"/>
            <path id="Path_3811" fill="#ffcc01" d="M911.677 3764.481a19.333 19.333 0 0 1-3.138 1.835c-.554.033-.922-.171-.987-.766l.018-.064c.012-.033.021-.068.032-.1a6.065 6.065 0 0 0 .092-2.745c-.289-1.621.259-3.238.144-4.864-.009-.109-.018-.218-.032-.327.182-.268.368-.533.554-.8a20.91 20.91 0 0 1 3.32 1.9c.156.106.377.23.374.4-.021 1.845.403 3.731-.377 5.531z"/>
            <path id="Path_3812" fill="#01defe" d="M892.163 3772.942c-.018.056-.033.112-.056.165a5.27 5.27 0 0 1-3.02 3.031 1.938 1.938 0 0 1-.571-1.526c-.009-.751-.009-1.5-.012-2.254q-.014-5.416-.024-10.835c0-.515.036-1.028.056-1.543.071.117.206.241.2.356-.08 1.1.279 2.2.1 3.308a.882.882 0 0 0 .106.531 17.634 17.634 0 0 1 1.538 4.884 15.438 15.438 0 0 1 .677 2.118c.027.365.186.719.245 1.084.068.448.428.539.761.681z"/>
            <path id="Path_3813" d="M905.744 3767.889a26.024 26.024 0 0 1-3.951 2.26.671.671 0 0 1-.554.318 21.842 21.842 0 0 1-4.1-2.2.888.888 0 0 1-.014-.188.029.029 0 0 1 0-.027 1.469 1.469 0 0 1 .459-.807c.083-.094.171-.183.262-.271.042-.044.089-.088.13-.133.085-.091.174-.176.262-.265.044-.044.091-.088.133-.132a.708.708 0 0 0 .056-.053c.094-.08.182-.165.271-.257a8.611 8.611 0 0 1 1.62-1.464.129.129 0 0 1 .032-.005.1.1 0 0 1 .039-.009.989.989 0 0 1 .209-.021c.035 0 .071 0 .106.006l.021.009.014.009c1.779.918 3.644 1.681 5.005 3.23z" class="cls-9"/>
            <path id="Path_3814" fill="#fc3945" d="M908.539 3766.316a15.1 15.1 0 0 1-2.795 1.573 5.8 5.8 0 0 1-1.049-.58 16.058 16.058 0 0 0-1.774-1.122c-.783-.484-1.561-.975-2.342-1.465h-.009c.009-.018.015-.036.024-.056s0-.015.009-.021a.289.289 0 0 1 .02-.047l.012-.03c.059-.094.124-.188.192-.279l.1-.145c.059-.106.124-.206.191-.309a10.024 10.024 0 0 1 2.2-2.156c.053-.033.106-.065.162-.095a1.6 1.6 0 0 0 .239-.009c.056.042.115.083.171.127a18.059 18.059 0 0 1 3.714 3.685c.051.062.1.127.145.189a1.536 1.536 0 0 0 .79.74z"/>
            <path id="Path_3815" d="M901.236 3770.47a50.416 50.416 0 0 1-5.132 2.978 3.726 3.726 0 0 1-2.389-1.458c-.059-.07-.112-.144-.165-.218.083-.147.168-.288.251-.433l.056-.1a7.372 7.372 0 0 0 1.688-1.7 2.224 2.224 0 0 1 .153-.283 3.9 3.9 0 0 1 1.14-1.151.383.383 0 0 1 .082-.027l.03-.009a.606.606 0 0 1 .18-.009c.029 0 .061.009.091.015a28.917 28.917 0 0 0 2.589 1.293 6.294 6.294 0 0 1 1.426 1.102z" class="cls-11"/>
            <path id="Path_3816" fill="#fed702" d="M914.6 3762.834a12.971 12.971 0 0 1-2.925 1.647c0-1.211-.006-2.422 0-3.632a3.52 3.52 0 0 1 .162-1.512c.132-.288-.074-.536-.162-.792a17.3 17.3 0 0 1 2.716 1.446 1.846 1.846 0 0 1 .224.168 1.512 1.512 0 0 1-.015 2.675z"/>
            <path id="Path_3817" fill="#e52a51" d="M896.1 3773.448c-1.608.937-3.208 1.892-4.831 2.808a1.666 1.666 0 0 1-2.186-.118c.969-1.025 2.048-1.938 2.937-3.031.05-.056.094-.109.139-.165l1.387-1.17c.08.036.156.074.233.115.835.433 1.542 1.055 2.321 1.561z"/>
            <path id="Path_3818" fill="#06e976" d="M895.936 3749.76a1.964 1.964 0 0 1-.816-.162c-.165-.047-.436-.071-.53.024-.492.491-1.252.662-1.588 1.334-.047.027-.1.05-.147.077l-.009.006h-.012c-.061-.014-.123-.029-.188-.041a1.648 1.648 0 0 1-.312-.2l-.012-.009a.6.6 0 0 1-.053-.047c-.03-.027-.059-.053-.092-.08-.462-.674-1.449-.987-1.452-1.976v-.015c0-.038 0-.074.006-.112.433-.315.451-1.084 1.173-1.081v.006c.127.23.413.16.578.307a18.235 18.235 0 0 1 3.454 1.969z"/>
            <path id="Path_3819" d="M891.909 3747.486l-.006.006a1.755 1.755 0 0 0-.288.451.893.893 0 0 1-.893.734h-.012a.264.264 0 0 1-.262.073.969.969 0 0 1-.247-.159l-.074-.073c-.012-.009-.021-.021-.032-.03a1.066 1.066 0 0 1-.171-.241c-.012-.048-.021-.095-.03-.145a2.279 2.279 0 0 0-.91-.919c.454-.692 1.114-.586 1.744-.392a2.359 2.359 0 0 1 1.181.695z" class="cls-15"/>
            <path id="Path_3820" d="M892.481 3747.8c-.254.012-.477-.03-.578-.307v-.006h.008a.629.629 0 0 1 .57.313z" class="cls-15"/>
            <path id="Path_3821" d="M897.22 3768.073c-.086.013-.172.025-.259.034a3.084 3.084 0 0 1-.981-2.114c-1.082-4.568-2.6-9.015-3.722-13.571-.137-.558-.791-1.292.189-1.779.086.1.189.186.282.281a1.538 1.538 0 0 1 .283.281c.091.1.185.191.283.28a3.846 3.846 0 0 0 .284.283 3.192 3.192 0 0 0 .286.283 3.364 3.364 0 0 0 .288.284 5.087 5.087 0 0 1 1.415 1.405c1.029 3.793 1.821 7.649 3 11.4.179.569.3 1.089-.2 1.553l-.048.049a.409.409 0 0 1-.229.228l-.054.054a.41.41 0 0 1-.225.229z" class="cls-16"/>
            <path id="Path_3822" d="M898.372 3766.693a1.657 1.657 0 0 0-.03-1.214 4.96 4.96 0 0 1-.547-1.869 4.253 4.253 0 0 0-.395-1.337 12.348 12.348 0 0 1-.887-3.49 22.53 22.53 0 0 0-.652-2.553c-.17-.63-.357-1.255-.53-1.884a.534.534 0 0 1 .237-.607h-.005a1.186 1.186 0 0 0 .29.288l-.007-.006a1.56 1.56 0 0 0 .291.288l-.007-.007a1.4 1.4 0 0 0 .291.289l-.008-.008a1.375 1.375 0 0 0 .3.29 13.23 13.23 0 0 1 2.27 2.249c.762 1.9.581 4.038 1.566 5.889a1.4 1.4 0 0 1-.2 1.7 10.493 10.493 0 0 1-1.977 1.982z" class="cls-17"/>
            <path id="Path_3823" fill="#fec201" d="M907.746 3765.571a3.153 3.153 0 0 1-1.044-.9 35.857 35.857 0 0 1-2.984-3.1 44.18 44.18 0 0 1 4.087-4.125 2.582 2.582 0 0 1 .374 2.408 6.991 6.991 0 0 0 .005 3.338 2.426 2.426 0 0 1-.438 2.379z"/>
            <path id="Path_3824" fill="#01b7fd" d="M900.352 3764.708a4.4 4.4 0 0 0-.661-2.811 3.116 3.116 0 0 1-.459-1.885 3.258 3.258 0 0 0-.413-2.033.565.565 0 0 1 .164-.856 52.9 52.9 0 0 1 4.494 4.456c-.468.5-.939.995-1.4 1.5-.306.334-.6.681-.9 1.022a.4.4 0 0 1-.318.343l.022-.026c-.023.179-.15.255-.3.3h-.01a1.735 1.735 0 0 0-.219-.01z"/>
            <path id="Path_3825" d="M896.713 3754.874l-.3-.29z" class="cls-16"/>
            <path id="Path_3826" d="M896.421 3754.592l-.291-.289z" class="cls-16"/>
            <path id="Path_3827" d="M896.137 3754.31l-.291-.288z" class="cls-16"/>
            <path id="Path_3828" d="M895.853 3754.028l-.29-.288z" class="cls-16"/>
            <path id="Path_3829" d="M894.153 3752.334l-.288-.284z" class="cls-20"/>
            <path id="Path_3830" d="M893.867 3752.052l-.286-.283z" class="cls-20"/>
            <path id="Path_3831" d="M893.582 3751.77l-.284-.283z" class="cls-20"/>
            <path id="Path_3832" d="M893.3 3751.487l-.283-.28z" class="cls-20"/>
            <path id="Path_3833" d="M893.014 3751.206l-.283-.281a2.66 2.66 0 0 1 .271.031z" class="cls-20"/>
            <path id="Path_3834" d="M892.447 3750.643c-.068.115-.207.243-.19.344a11.039 11.039 0 0 0 .286 1.228c.576 2.021 1.244 4.02 1.709 6.066a20.512 20.512 0 0 0 .919 3.214c.682 1.667.811 3.447 1.334 5.137l.456 1.475a5.6 5.6 0 0 1-1.416 1.429 8.343 8.343 0 0 1-1.021-3.039 42.361 42.361 0 0 0-1.552-5.376c-.458-1.423-.753-2.881-1.111-4.326a17.245 17.245 0 0 0-.854-2.656 17.618 17.618 0 0 1-.755-3.263 14.608 14.608 0 0 0-.533-2.023.569.569 0 0 1 .174-.747h.008c.095.088.187.179.275.273l.008.009a3.511 3.511 0 0 1 .273.273c.085.007.17.012.254.016z" class="cls-20"/>
            <path id="Path_3835" d="M898.095 3766.97l.229-.228a.22.22 0 0 1-.229.228z" class="cls-17"/>
            <path id="Path_3836" d="M897.816 3767.253l.226-.229a.219.219 0 0 1-.226.229z" class="cls-17"/>
            <path id="Path_3837" d="M901.787 3770.146c-.041-.021-.112-.047-.112-.062.025-.094.065-.073.112.062z" class="cls-11"/>
            <path id="Path_3838" d="M901.793 3770.149v-.006z" class="cls-11"/>
            <path id="Path_3839" d="M900.579 3764.723a.344.344 0 0 1 .3-.3.321.321 0 0 1-.3.3z" class="cls-9"/>
            <path id="Path_3840" d="M900.86 3764.444a.423.423 0 0 1 .318-.343.374.374 0 0 1-.318.343z" class="cls-9"/>
            <path id="Path_3841" d="M892.73 3750.924l-.282-.281z" class="cls-20"/>
            <path id="Path_3842" d="M890.457 3748.664l-.273-.273z" class="cls-5"/>
            <path id="Path_3843" d="M890.176 3748.382l-.275-.273z" class="cls-5"/>
        </g>
    </g>
</svg>
