<svg xmlns="http://www.w3.org/2000/svg" width="91.015" height="83.457" viewBox="0 0 91.015 83.457">
    <defs>
        <style>
            .cls-3{fill:#081f3b}
        </style>
    </defs>
    <g id="Group_1690" transform="translate(-870.493 -6495.548)">
        <g id="Group_1687">
            <g id="Group_1686">
                <path id="Path_4142" fill="#f6fbfe" d="M871.423 6517.937c4.089 18.181-2.523 32.783-.554 41.544s11.145 26.028 51.448 16.967 40.652-35.144 38.483-44.782c-10.143-45.124-96.619-45.928-89.377-13.729zm0 0"/>
            </g>
            <path id="Path_4143" fill="#a4aec0" d="M902.082 6503.5a4.041 4.041 0 1 1-4.787 3.122 4.045 4.045 0 0 1 4.787-3.122zm-1.11 5.272a1.347 1.347 0 1 0-1.042-1.6 1.348 1.348 0 0 0 1.042 1.6zm0 0"/>
        </g>
        <g id="Group_1689">
            <g id="Group_1688">
                <path id="Path_4144" d="M888.945 6531.883l-6.436 6.117a2.331 2.331 0 1 0 3.206 3.384l1.773-1.68a.686.686 0 1 0-.944-1l-1.773 1.679a.958.958 0 0 1-1.318-1.39l5.837-5.526a3.861 3.861 0 0 0 1.207 1.494l-1.624 1.538a.687.687 0 0 0 .944 1l2.006-1.9a3.834 3.834 0 0 0 4.076-1.478h5.193c-.007.174-.012.347-.012.522a13.341 13.341 0 0 0 7.44 11.953h-5.681a1.627 1.627 0 0 0-1.626 1.625v1.31a1.518 1.518 0 0 0 .022.253h-4.707a1.628 1.628 0 0 0-1.626 1.626v1.308a1.628 1.628 0 0 0 1.626 1.626h.634a1.629 1.629 0 0 0-.022.253v1.309a1.628 1.628 0 0 0 1.626 1.626h1.134a1.629 1.629 0 0 0-.022.253v1.309a1.628 1.628 0 0 0 1.626 1.626h23.135a1.627 1.627 0 0 0 1.626-1.626v-1.309a1.628 1.628 0 0 0-1.626-1.626h-1.132a1.619 1.619 0 0 0 .022-.253v-1.306a1.629 1.629 0 0 0-1.627-1.626h-.633a1.619 1.619 0 0 0 .022-.253v-1.308a1.609 1.609 0 0 0-.022-.253h4.707a1.628 1.628 0 0 0 1.625-1.627v-1.309a1.627 1.627 0 0 0-1.625-1.625h-5.682a13.318 13.318 0 0 0 2.154-22.572l1.73-1.729a2.33 2.33 0 0 0 4.46-.945v-4.467a2.333 2.333 0 0 0-2.331-2.33h-4.466a2.33 2.33 0 0 0-.964 4.451l-2.821 2.821a13.33 13.33 0 0 0-15.925 7.635h-6.368a3.837 3.837 0 0 0-6.816 2.422zm3.839 2.466a2.467 2.467 0 1 1 2.466-2.466 2.469 2.469 0 0 1-2.466 2.466zm3.739-1.6a3.814 3.814 0 0 0 .1-.867 3.863 3.863 0 0 0-.146-1.049h5.159a13.231 13.231 0 0 0-.42 1.916zm28.367 25.036v1.309a.253.253 0 0 1-.253.253H901.5a.254.254 0 0 1-.253-.253v-1.309a.254.254 0 0 1 .253-.253h23.135a.253.253 0 0 1 .253.253zm-9.1-4.814a.687.687 0 1 0 0 1.373h6.11a.253.253 0 0 1 .254.253v1.309a.254.254 0 0 1-.254.253h-23.134a.253.253 0 0 1-.253-.253v-1.306a.252.252 0 0 1 .253-.253h13.818a.687.687 0 0 0 0-1.373h-16.056a.253.253 0 0 1-.253-.253v-1.308a.253.253 0 0 1 .253-.253h23.135a.253.253 0 0 1 .253.253v1.308a.253.253 0 0 1-.253.253zm10.183-5a.254.254 0 0 1 .253.253v1.309a.254.254 0 0 1-.253.254h-23.134a.255.255 0 0 1-.254-.254v-1.309a.254.254 0 0 1 .254-.253zm.385-13.325a11.953 11.953 0 1 1-11.953-11.953 11.967 11.967 0 0 1 11.953 11.953zm-6.867-12.316l3.114-3.113h1.369v1.34l-2.684 2.684a13.318 13.318 0 0 0-1.8-.911zm7.771-.977a.957.957 0 0 1-1.915 0v-2.823a.687.687 0 0 0-.687-.686h-2.822a.958.958 0 0 1 0-1.916h4.462a.96.96 0 0 1 .958.958zm0 0" class="cls-3"/>
            </g>
            <path id="Path_4145" d="M915.819 6525.525a9.229 9.229 0 1 1-2.986.027.686.686 0 0 0-.232-1.353 10.591 10.591 0 1 0 3.426-.031.686.686 0 0 0-.208 1.357zm0 0" class="cls-3"/>
            <path id="Path_4146" fill="#e34" d="M907.068 6534.644a7.338 7.338 0 1 0 7.338-7.338 7.347 7.347 0 0 0-7.338 7.338zm7.338-5.965a5.965 5.965 0 1 1-5.965 5.965 5.972 5.972 0 0 1 5.965-5.965zm0 0"/>
        </g>
    </g>
</svg>
