<svg xmlns="http://www.w3.org/2000/svg" width="41.649" height="48.838" viewBox="0 0 41.649 48.838">
    <defs>
        <style>
            .cls-1{fill:white}
        </style>
    </defs>
    <g id="Group_927" transform="translate(-632.899 -928.626)">
        <path id="Path_2324" d="M673.792 937.059a81.262 81.262 0 0 1-19.546-8.29 1.027 1.027 0 0 0-1.044 0 79.026 79.026 0 0 1-19.547 8.29 1.027 1.027 0 0 0-.756.991v10.5a30.2 30.2 0 0 0 9.17 22.064c4.5 4.413 9.75 6.853 11.655 6.853s7.151-2.44 11.654-6.853a30.2 30.2 0 0 0 9.17-22.064v-10.5a1.027 1.027 0 0 0-.756-.991zm-1.3 11.488a28.18 28.18 0 0 1-8.554 20.6c-4.428 4.34-9.164 6.266-10.216 6.266s-5.788-1.926-10.217-6.266a28.184 28.184 0 0 1-8.554-20.6v-9.717a80.9 80.9 0 0 0 18.771-7.986 83.482 83.482 0 0 0 18.77 7.986z" class="cls-1"/>
        <path id="Path_2325" d="M644.618 938.715a1.028 1.028 0 0 0-1.333-.579c-1.835.723-3.719 1.389-5.6 1.978a1.028 1.028 0 0 0-.72.98v3.968a1.027 1.027 0 0 0 2.054 0v-3.217c1.687-.545 3.371-1.149 5.017-1.8a1.027 1.027 0 0 0 .582-1.33z" class="cls-1"/>
        <path id="Path_2326" d="M646.569 938.91a1.035 1.035 0 0 0 .412-.086l.019-.009a1.027 1.027 0 1 0-.829-1.879l-.017.007a1.027 1.027 0 0 0 .415 1.967z" class="cls-1"/>
        <path id="Path_2327" d="M665.964 961.752a1.028 1.028 0 0 0-1.422.3 25.042 25.042 0 0 1-2.953 3.687 26.2 26.2 0 0 1-2.946 2.622 1.027 1.027 0 0 0 1.245 1.634 28.286 28.286 0 0 0 3.179-2.828 27.1 27.1 0 0 0 3.2-3.992 1.028 1.028 0 0 0-.303-1.423z" class="cls-1"/>
        <path id="Path_2328" d="M656.257 969.971l-.059.035a1.027 1.027 0 0 0 1.029 1.778l.068-.04a1.027 1.027 0 0 0-1.038-1.773z" class="cls-1"/>
        <path id="Path_2329" fill="white" d="M646.721 950.948a3.341 3.341 0 1 0-4.721 4.725l6.066 6.066a3.341 3.341 0 0 0 4.724 0l12.664-12.664a3.341 3.341 0 0 0-4.725-4.724l-10.3 10.3zm15.458-5.144a1.286 1.286 0 0 1 1.821 1.819l-12.664 12.663a1.284 1.284 0 0 1-1.818 0l-6.066-6.066a1.286 1.286 0 0 1 1.818-1.819l4.43 4.431a1.027 1.027 0 0 0 1.453 0z"/>
    </g>
</svg>
