<svg xmlns="http://www.w3.org/2000/svg" width="83.406" height="87.846">
    <defs>
        <style>
            .cls-3{fill:#e34}.cls-5{fill:#ec3341}
        </style>
    </defs>
    <g id="Group_1724" data-name="Group 1724" transform="translate(-1716.168 -3618.333)">
        <g id="Group_1721" data-name="Group 1721">
            <g id="Group_1720" data-name="Group 1720">
                <g id="Group_1719" data-name="Group 1719">
                    <g id="Group_1718" data-name="Group 1718">
                        <path id="Path_4206" data-name="Path 4206" d="M1726.511 3686.566c16.654 4.686 25.661 16.533 33.686 18.792s26.178 2.387 36.569-34.529-10.757-48.716-19.586-51.2c-41.332-11.636-80.164 58.636-50.669 66.936zm0 0" style="fill:#eff4fa"/>
                    </g>
                </g>
                <path id="Path_4207" data-name="Path 4207" d="M1779.222 3631.008a3.752 3.752 0 1 1 .437 5.288 3.757 3.757 0 0 1-.437-5.288zm3.816 3.234a1.25 1.25 0 1 0-1.762.147 1.252 1.252 0 0 0 1.762-.147zm0 0" style="fill:#a4aec0"/>
            </g>
        </g>
        <g id="Group_1722" data-name="Group 1722">
            <path id="Path_4208" data-name="Path 4208" class="cls-3" d="M1753.875 3643.966a.84.84 0 0 0 .84-.84v-3.36a.84.84 0 1 0-1.68 0v3.36a.84.84 0 0 0 .84.84z"/>
            <path id="Path_4209" data-name="Path 4209" class="cls-3" d="M1749.123 3646.364a.84.84 0 0 0 .594-1.434l-2.376-2.376a.84.84 0 0 0-1.188 1.188l2.376 2.376a.837.837 0 0 0 .594.246z"/>
            <path id="Path_4210" data-name="Path 4210" class="cls-3" d="M1758.627 3646.364a.835.835 0 0 0 .593-.246l2.376-2.375a.84.84 0 0 0-1.188-1.188l-2.375 2.375a.84.84 0 0 0 .594 1.434z"/>
            <path id="Path_4211" data-name="Path 4211" d="M1774.035 3660.822a4.2 4.2 0 0 1-6.72-1.68 4.2 4.2 0 0 1-6.72-1.68 4.173 4.173 0 0 0-2.52.842v-8.458a4.2 4.2 0 0 0-8.4 0v16.1a4.207 4.207 0 0 0-3.36 4.116v5.04a15.931 15.931 0 0 0 14.187 15.861c.032 0 .063.005.094.005a.84.84 0 0 0 .091-1.675 14.253 14.253 0 0 1-12.692-14.191v-5.04a2.524 2.524 0 0 1 1.68-2.376v5.736a.84.84 0 0 0 1.68 0v-23.576a2.52 2.52 0 0 1 5.04 0v16.854a.84.84 0 1 0 1.68 0v-5.04a2.52 2.52 0 0 1 5.04 0v5.04a.84.84 0 1 0 1.68 0v-3.36a2.52 2.52 0 1 1 5.04 0v3.36a.84.84 0 1 0 1.68 0v-1.68a2.52 2.52 0 0 1 5.04 0v10.08a14.254 14.254 0 0 1-12.693 14.191.84.84 0 0 0 .092 1.675.913.913 0 0 0 .093-.005 15.931 15.931 0 0 0 14.188-15.861v-10.08a4.2 4.2 0 0 0-4.2-4.198z" style="fill:#081f3b"/>
        </g>
        <g id="Group_1723" data-name="Group 1723">
            <path id="Path_4212" data-name="Path 4212" class="cls-5" d="M1755.8 3686.822a.751.751 0 0 1-.589-1.279 15.086 15.086 0 0 0 2.982-4.335.75.75 0 1 1 1.4.526 16.317 16.317 0 0 1-3.325 4.87.747.747 0 0 1-.468.218z"/>
            <path id="Path_4213" data-name="Path 4213" class="cls-5" d="M1759.876 3680.065a.75.75 0 0 1-.734-1.068 2.9 2.9 0 0 0 .141-.391.75.75 0 0 1 1.442.413 4.3 4.3 0 0 1-.229.623.754.754 0 0 1-.62.423z"/>
        </g>
    </g>
</svg>
