<svg xmlns="http://www.w3.org/2000/svg" width="92.216" height="83.495" viewBox="0 0 92.216 83.495">
    <defs>
        <style>
            .cls-4{fill:#081f3b}
        </style>
    </defs>
    <g id="Group_73" transform="translate(-1303.169 -1109.505)">
        <g id="Group_71">
            <path id="Path_391" fill="#eff4fa" d="M1307 1129.62c2.71 18.437-4.982 32.5-3.678 41.385s9.156 26.792 50.026 20.789 43.181-31.986 41.744-41.759c-6.721-45.76-92.891-53.068-88.092-20.415zm0 0"/>
        </g>
        <path id="Path_392" fill="#a4aec0" d="M1377.836 1151.252a4.041 4.041 0 1 1 4.041 4.041 4.046 4.046 0 0 1-4.041-4.041zm5.387 0a1.347 1.347 0 1 0-1.346 1.348 1.348 1.348 0 0 0 1.346-1.348zm0 0"/>
        <g id="Group_72">
            <path id="Path_393" fill="#e34" d="M1351.534 1136.421a19.021 19.021 0 1 0 19.018 19.025 19.045 19.045 0 0 0-19.018-19.025zm0 35.586a16.564 16.564 0 1 1 16.567-16.561 16.576 16.576 0 0 1-16.567 16.561z"/>
            <path id="Path_394" d="M1363.192 1154.216h-9.532a2.439 2.439 0 0 0-2.759-1.142l-2.254-2.254a1.228 1.228 0 0 0-1.736 1.736l2.254 2.254a2.453 2.453 0 0 0 4.495 1.862h9.532a1.228 1.228 0 0 0 0-2.456zm0 0" class="cls-4"/>
            <path id="Path_395" d="M1351.535 1131.135a24.289 24.289 0 0 0-19.508 9.822h-11.184a1.227 1.227 0 1 0 0 2.455h9.576a24.134 24.134 0 0 0-1.89 4.178h-14.315a1.227 1.227 0 1 0 0 2.455h13.618a24.3 24.3 0 0 0-.575 4.174h-4.695a1.228 1.228 0 0 0 0 2.456h4.695a24.146 24.146 0 0 0 3.162 10.8h-16.2a1.228 1.228 0 0 0 0 2.456h17.813a24.3 24.3 0 1 0 19.508-38.8zm0 46.163a21.854 21.854 0 1 1 21.854-21.854 21.878 21.878 0 0 1-21.854 21.854zm0 0" class="cls-4"/>
            <path id="Path_396" d="M1351.536 1165.873a1.229 1.229 0 1 0 .867.36 1.243 1.243 0 0 0-.867-.36zm0 0" class="cls-4"/>
            <path id="Path_397" d="M1351.536 1145.015a1.229 1.229 0 1 0-.868-.36 1.235 1.235 0 0 0 .868.36zm0 0" class="cls-4"/>
            <path id="Path_398" d="M1339.879 1154.216a1.229 1.229 0 1 0 .868.36 1.238 1.238 0 0 0-.868-.36zm0 0" class="cls-4"/>
            <path id="Path_399" d="M1314.214 1163.3h6.629a1.228 1.228 0 1 0 0-2.455h-6.629a1.228 1.228 0 1 0 0 2.455zm0 0" class="cls-4"/>
        </g>
    </g>
</svg>
