<svg xmlns="http://www.w3.org/2000/svg" width="92.335" height="24.215" viewBox="0 0 92.335 24.215">
    <defs>
        <style>
            .cls-1{fill:#5b86ba}
        </style>
    </defs>
    <g id="Group_20" transform="translate(-824.088 -2911.654)">
        <g id="Group_19">
            <path id="Path_305" d="M824.14 2926.182l-.014-.164c.011-.121.031-.243.031-.365v-3.675a5.882 5.882 0 0 1 .094-.649 7.027 7.027 0 0 0 .193-1.146l.022-.108c.151-.014.181-.117.221-.247a10.1 10.1 0 0 1 .428-1.08c.147-.334.44-.632.39-1.043l.008-.01a2.938 2.938 0 0 0 .8-.954 10.47 10.47 0 0 1 .881-1.135 3.455 3.455 0 0 0 .751-.848h-.005a.7.7 0 0 0 .6-.519c.111.015.246.055.318-.04a2.923 2.923 0 0 1 .674-.487 11.559 11.559 0 0 1 2.211-1.163 14.931 14.931 0 0 1 2.85-.669 12.564 12.564 0 0 1 2.522-.081 1.124 1.124 0 0 1 .8.227.559.559 0 0 0 .52.1c.351-.084.536.074.538.345 0 .141-.106.15-.163.22-.225.279-.6.429-.7.815a1.047 1.047 0 0 0-.563.188c-.053.371-.381.482-.62.59-.265.12-.259.243-.19.449l-.01.008c-.138-.093-.312.124-.444-.06a14.488 14.488 0 0 0-1.284-1.337c-.217-.234-1.025-.074-1.082.232-.108.59-.672.756-1.029 1.062a3.783 3.783 0 0 0-.87.981c-.441.018-.7.381-.973.622-.432.378-.779.858-1.247 1.211a.316.316 0 0 0-.117.3c-.141.036-.318.05-.337.229-.013.124.114.14.219.134a.037.037 0 0 1 .044.032c-.007.423.295.572.621.7l-.023.012.024-.01c-.039.114.033.184.1.259.656.729 1.306 1.465 1.97 2.186.358.388.351.37-.034.693-.194.162-.514.257-.494.606-.325.078-.41.306-.19.531.077.079.133.178.2.249a2.481 2.481 0 0 0 .81.708.886.886 0 0 0 .383.739 12.066 12.066 0 0 1 1.469 1.524c.061.065.117.149.045.23a2.71 2.71 0 0 1-.87.834c-.284.119-.166.192-.064.323a.116.116 0 0 1 .008.069c0 .117-.01.24.17.211l-.014.015.011-.018a.333.333 0 0 0 .08.3 6.811 6.811 0 0 0 .837.9c.511.5.955 1.061 1.432 1.593.086.1.167.224.334.19a.345.345 0 0 0 .136.36 6.08 6.08 0 0 1 .673.687c.269.369.613.669.882 1.035a.158.158 0 0 0 .151.084 1.651 1.651 0 0 0 .855-.916l.015-.011c.19.068.246-.025.237-.2l.017.019-.018-.018c.1.025.159-.029.232-.08a12.137 12.137 0 0 0 1.211-1.065c.245-.225.44-.2.566.1.249.582.825.847 1.228 1.279.012.013.048 0 .072.006-.047.217.06.34.235.453.1.068.279.27.239.286-.253.107-.09.457-.278.506a2.439 2.439 0 0 0-.68.425 10.284 10.284 0 0 1-1.819.929c-.708.265-1.46.409-2.188.621-.38.111-.789-.028-1.141.091a3.653 3.653 0 0 1-1.861.037 2.222 2.222 0 0 0-1.061.028.348.348 0 0 1-.255-.028 3.55 3.55 0 0 0-1.679-.423l-.107-.028c-.01-.137-.136-.122-.217-.166-.725-.388-1.5-.674-2.2-1.121a16.032 16.032 0 0 1-2.159-1.772c-.386-.357-.545-.926-1.079-1.124a.154.154 0 0 1-.065-.088 8.4 8.4 0 0 0-.585-.938c-.057-.111-.117-.226-.276-.2a1.861 1.861 0 0 0-.566-1.131.04.04 0 0 1-.025-.053 1.733 1.733 0 0 0-.448-1.219v-.029c-.024-.146.116-.347-.139-.415l-.017-.015.009-.022c-.053-.222.146-.515-.167-.693z" class="cls-1"/>
            <path id="Path_306" d="M877.312 2919.809c-.1-.146.029-.229.1-.321a2.661 2.661 0 0 1 3.591-.549.381.381 0 0 0 .534 0 2.725 2.725 0 0 1 3.464.345 2.4 2.4 0 0 1 .611 1.637c.009 2.642 0 5.284.009 7.926 0 .26-.1.327-.326.315-.112-.006-.224-.006-.334-.018-.278-.029-.657.134-.808-.08-.136-.193-.044-.549-.045-.833q-.006-3.46-.007-6.921a1.482 1.482 0 0 0-.2-.852c-.3-.449-.7-.533-1.384-.3a.592.592 0 0 0-.465.743v7.625c0 .136-.009.272-.013.408a1.767 1.767 0 0 1-.841.074c-.48.009-.508-.027-.508-.5v-7.018c0-.163.065-.359-.153-.453l-.043-.23c.031-.41-.09-.6-.412-.658a.058.058 0 0 1-.06-.026.646.646 0 0 0-1.046.012l-.01.02h-.022c-.163-.017-.26.043-.258.219-.044.017-.123.029-.126.052-.07.486-.4.9-.4 1.4-.006 2.121 0 4.241 0 6.362 0 .1-.026.228.025.29.179.217.09.435.048.657l-.161-.011a4.5 4.5 0 0 0-.751-.136c-.216 0-.19-.11-.21-.25-.03-.206.156-.33.156-.525-.005-2.285.007-4.57-.017-6.854 0-.295-.191-.588-.122-.9a1.783 1.783 0 0 0 .135-.611z" class="cls-1"/>
            <path id="Path_307" d="M851.526 2927v-.222c.13-.123.073-.282.073-.423 0-2.334 0-4.668.005-7 0-.7-.115-.62.639-.622.6 0 .7.1.7.718v4.469c0 .857.028 1.715-.014 2.569a1.342 1.342 0 0 0 .232.962 1.039 1.039 0 0 0 1.172.417 1.459 1.459 0 0 0 .913-1.1c0-.126-.09-.13-.18-.135v-.147c.191-.089.106-.262.106-.4.006-2.01.013-4.019 0-6.029a3.12 3.12 0 0 0 .02-1.1.146.146 0 0 1 .192-.19c.134.04.242-.032.363-.039.609-.035.7.044.7.646v5.917a6.552 6.552 0 0 1 .021 1.435.66.66 0 0 0 .057.57 1.553 1.553 0 0 0 1.139.592 1.167 1.167 0 0 0 1.169-1.219v-7.554c0-.413.043-.452.417-.317a.746.746 0 0 0 .36.032c.538-.079.537-.088.585.4v.193q0 3.726-.011 7.451l-.006.126c-.069-.019-.158-.058-.147.069.015.169-.117.306-.125.442-.021.4-.455.635-.4 1.054-.017.074-.078.073-.135.08-.168-.041-.274.081-.4.15a2.428 2.428 0 0 1-1.245.368 2.735 2.735 0 0 1-1.375-.343c-.1-.06-.2-.2-.355-.092-.192-.1-.3.083-.451.132a1.237 1.237 0 0 0-.795.168 1.5 1.5 0 0 1-.9.133c-.126 0-.18-.155-.333-.107-.429.135-.71-.139-.936-.424a.64.64 0 0 0-.532-.286 5.672 5.672 0 0 0-.523-1.344z" class="cls-1"/>
            <path id="Path_308" d="M869.176 2923.463c0-1.564.005-3.127-.005-4.691 0-.233.033-.348.3-.323.357.033.814-.141 1.047.064s.063.676.075 1.03c.017.483 0 .968.005 1.452 0 .467.018.47.46.345a3.98 3.98 0 0 1 2.379-.023 2.857 2.857 0 0 1 2.021 2.083 6.62 6.62 0 0 1-.115 3.847 3.078 3.078 0 0 1-2.945 2.051 5.888 5.888 0 0 1-3.006-.686.386.386 0 0 1-.215-.421q.002-2.364-.001-4.728zm4.932 1.613a5.848 5.848 0 0 0-.149-1.743 1.81 1.81 0 0 0-2.019-1.142c-.323.079-.629.227-.953.3a.428.428 0 0 0-.394.507c.017 1.314.007 2.629.007 3.944 0 .979 0 1 .953 1.248a1.834 1.834 0 0 0 2.469-1.493 13.021 13.021 0 0 0 .086-1.621z" class="cls-1"/>
            <path id="Path_309" d="M913.171 2927.507c.44-1.379.863-2.7 1.281-4.018.194-.612.385-1.225.565-1.842.079-.271.2-.427.521-.38a7.083 7.083 0 0 1 .885.042c-.083.269-.16.539-.25.806q-1.483 4.44-2.974 8.876a4.882 4.882 0 0 1-.554 1.089 1.532 1.532 0 0 1-1.873.553 6.813 6.813 0 0 1-1.3-.536c-.237-.116-.331-.29-.1-.514a.231.231 0 0 0 .023-.029c.14-.189.244-.459.432-.545.212-.1.331.226.518.332a1.144 1.144 0 0 0 1.7-.606 2.6 2.6 0 0 0-.054-2.354c-.954-2.23-1.822-4.5-2.733-6.745-.126-.311-.032-.4.272-.363h.037c1.2 0 1.183.005 1.591 1.138.6 1.664 1.346 3.271 1.92 4.946a1.093 1.093 0 0 0 .093.15z" class="cls-1"/>
            <path id="Path_310" d="M906.19 2925.55c-.7 0-1.391.007-2.087 0-.238 0-.325.076-.328.321a2.221 2.221 0 0 0 2.7 2.3 4.561 4.561 0 0 0 1.524-.444c.222-.105.3-.024.4.154.368.652.374.652-.3.953a4.7 4.7 0 0 1-3.824.147 3.325 3.325 0 0 1-2.014-2.862 6.045 6.045 0 0 1 .234-2.928 3.118 3.118 0 0 1 3.188-2.058 2.938 2.938 0 0 1 2.933 3.1c.016.334-.007.67.013 1 .015.244-.064.327-.312.322-.71-.014-1.417-.005-2.127-.005zm-.757-1.032h1.339c.248 0 .372-.1.361-.353 0-.112 0-.224-.005-.335a1.615 1.615 0 0 0-2.226-1.575 1.987 1.987 0 0 0-1.092 2.117c.014.168.137.145.246.145z" class="cls-1"/>
            <path id="Path_311" d="M886.654 2925.24a4.99 4.99 0 0 1 .339-2.111 3.461 3.461 0 0 1 6.589 1.17 7.393 7.393 0 0 1-.113 2.433 3.066 3.066 0 0 1-2.644 2.5 3.362 3.362 0 0 1-3.423-1.215 4.165 4.165 0 0 1-.746-2.3c-.014-.154-.002-.317-.002-.477zm1.616-.044c0 .433-.025.868.005 1.3a1.829 1.829 0 0 0 1.637 1.768 1.762 1.762 0 0 0 2.051-1.5 8.917 8.917 0 0 0 .024-3.066 1.867 1.867 0 0 0-3.619-.229 5.982 5.982 0 0 0-.098 1.731z" class="cls-1"/>
            <path id="Path_312" d="M865.448 2925.55c-.684 0-1.367.008-2.05 0-.284-.005-.407.086-.39.387a2.134 2.134 0 0 0 .928 1.886 2.742 2.742 0 0 0 2.193.266 4.69 4.69 0 0 0 1.008-.348c.206-.116.338-.1.46.155.335.7.336.7-.393.982a5.029 5.029 0 0 1-2.986.328 3.189 3.189 0 0 1-2.631-2.641 6.55 6.55 0 0 1 .071-3.16 3.129 3.129 0 0 1 3.928-2.146 2.834 2.834 0 0 1 2.225 2.993c.016.335 0 .671.019 1 .013.227-.064.305-.294.3-.696-.01-1.392-.002-2.088-.002zm-.77-1.032c.446 0 .892-.008 1.338 0 .236.006.353-.074.329-.32a4.942 4.942 0 0 0-.092-.884 1.449 1.449 0 0 0-1.052-1.1 1.792 1.792 0 0 0-2.166 2.113c.035.169.136.182.267.182z" class="cls-1"/>
            <path id="Path_313" d="M894.923 2925.18c0-1.191.013-2.383-.008-3.574-.005-.322.113-.391.388-.336a1.271 1.271 0 0 0 .405.012c.271-.03.557-.079.515.373-.019.2.114.23.294.114a3.834 3.834 0 0 1 2.4-.636 2.317 2.317 0 0 1 2.259 2.27c.093 1.747.057 3.495.041 5.243 0 .45-.134.53-.513.479-.3-.04-.711.136-.888-.076-.148-.177-.045-.568-.045-.864 0-1.465.006-2.929 0-4.393a1.454 1.454 0 0 0-1.095-1.6 2.666 2.666 0 0 0-1.848.4.946.946 0 0 0-.5.942c.027 1.762.005 3.524.018 5.286 0 .253-.069.327-.31.311a5.686 5.686 0 0 0-.782 0c-.261.019-.336-.074-.333-.336.013-1.2.006-2.407.006-3.611z" class="cls-1"/>
            <path id="Path_314" d="M837.09 2918.322a.541.541 0 0 1-.2.289l-2.395 2.167c-.135.122-.251.165-.4 0q-1.111-1.267-2.242-2.518c-.139-.153-.109-.239.024-.357.843-.747 1.688-1.491 2.518-2.252.164-.15.235-.1.349.031.736.82 1.477 1.636 2.214 2.455a2.1 2.1 0 0 1 .132.185z" class="cls-1"/>
            <path id="Path_315" d="M839.146 2923.246c0 .1-.082.149-.144.2-.833.76-1.671 1.515-2.5 2.275-.12.111-.2.1-.3-.018q-1.129-1.263-2.272-2.512c-.152-.166-.109-.266.033-.4q1.257-1.133 2.506-2.274c.117-.108.191-.1.3.022.75.842 1.509 1.677 2.265 2.514.044.065.11.108.112.193z" class="cls-1"/>
            <path id="Path_316" d="M838.382 2930.81c-.066-.062-.123-.107-.171-.161-.748-.825-1.493-1.653-2.243-2.477-.128-.141-.167-.228.013-.387.834-.736 1.653-1.491 2.471-2.246.159-.146.27-.118.4.027q1.14 1.271 2.287 2.536c.1.109.095.182-.011.276q-1.3 1.158-2.6 2.32c-.038.039-.089.07-.146.112z" class="cls-1"/>
            <path id="Path_317" d="M842.962 2923.688a1.333 1.333 0 0 1 .152.129c.54.6 1.072 1.2 1.619 1.791.14.15.116.245-.018.364-.6.532-1.205 1.062-1.8 1.6-.171.156-.263.1-.39-.047-.5-.563-1.013-1.119-1.524-1.675-.161-.175-.19-.33.009-.5.584-.513 1.162-1.035 1.743-1.553.056-.048.099-.116.209-.109z" class="cls-1"/>
            <path id="Path_318" d="M846.743 2930.111a.269.269 0 0 1-.123.207c-.608.544-1.222 1.082-1.823 1.635-.154.141-.24.107-.36-.03-.514-.586-1.03-1.17-1.555-1.746-.16-.175-.154-.289.027-.446q.854-.744 1.683-1.514c.2-.182.317-.185.5.031.5.593 1.036 1.161 1.556 1.74.04.044.073.094.095.123z" class="cls-1"/>
            <path id="Path_319" d="M840.918 2923.129a.268.268 0 0 1-.184-.122c-.547-.607-1.091-1.216-1.643-1.818-.122-.133-.111-.2.027-.323q.917-.812 1.808-1.652c.143-.135.232-.1.336.016.549.622 1.094 1.246 1.645 1.865.073.082.135.14.026.238q-.965.87-1.926 1.744a.445.445 0 0 1-.089.052z" class="cls-1"/>
            <path id="Path_320" d="M838.938 2918.8c-.107-.013-.152-.094-.209-.156-.535-.583-1.067-1.169-1.6-1.75-.136-.146-.14-.251.019-.39q.921-.807 1.824-1.634c.129-.119.206-.083.3.027q.827.93 1.659 1.853c.075.084.13.169.025.252-.68.543-1.283 1.17-1.928 1.751a.393.393 0 0 1-.09.047z" class="cls-1"/>
            <path id="Path_321" d="M860.193 2919.233c-.048-.489-.047-.48-.585-.4a.746.746 0 0 1-.36-.032c-.374-.135-.417-.1-.417.317v7.554a1.167 1.167 0 0 1-1.169 1.219 1.553 1.553 0 0 1-1.139-.592.66.66 0 0 1-.057-.57 6.552 6.552 0 0 0-.021-1.435v-5.917c0-.6-.091-.681-.7-.646-.121.007-.229.079-.363.039a.146.146 0 0 0-.192.19 3.12 3.12 0 0 1-.02 1.1c.017 2.01.01 4.019 0 6.029 0 .133.085.306-.106.4-.007-.719-.019-1.438-.021-2.158 0-1.762.008-3.525-.008-5.287 0-.337.108-.449.425-.415a4.174 4.174 0 0 0 .446.008c.735 0 .737 0 .735.742q-.01 3.593-.023 7.185c0 .9.733 1.441 1.471 1.079a1.083 1.083 0 0 0 .554-1.095v-7.448c0-.5-.062-.487.485-.459.185.01.371 0 .557 0 .58-.003.58-.002.508.592z" class="cls-1"/>
            <path id="Path_322" d="M844.947 2918.705a.176.176 0 0 1 .169.084c.338.376.676.753 1.019 1.125.113.123.132.225 0 .344-.352.309-.706.617-1.047.939-.162.152-.285.158-.432-.014-.306-.355-.622-.7-.933-1.054-.083-.094-.176-.173-.028-.3.388-.343.765-.7 1.148-1.049a.714.714 0 0 1 .104-.075z" class="cls-1"/>
            <path id="Path_323" d="M844.415 2915.825c-.065.069-.119.135-.181.193-.335.312-.68.615-1.007.936-.157.153-.259.134-.393-.024-.3-.359-.612-.715-.936-1.056-.156-.163-.121-.258.03-.389.355-.309.7-.632 1.048-.945.086-.077.171-.2.3-.047.343.391.693.776 1.038 1.165a.978.978 0 0 1 .101.167z" class="cls-1"/>
            <path id="Path_324" d="M848.1 2924.345a2.028 2.028 0 0 1-.179.217c-.325.3-.657.6-.98.9a.3.3 0 0 1-.5-.031c-.3-.348-.594-.7-.9-1.035-.113-.126-.128-.216.009-.334.337-.289.663-.591 1-.883a.315.315 0 0 1 .478 0c.374.312.634.725.991 1.049a.879.879 0 0 1 .081.117z" class="cls-1"/>
            <path id="Path_325" d="M838.1 2913.517c.1-.386.478-.536.7-.815.057-.07.164-.079.163-.22 0-.271-.187-.429-.538-.345a.559.559 0 0 1-.52-.1 1.124 1.124 0 0 0-.8-.227 12.564 12.564 0 0 0-2.522.081 14.931 14.931 0 0 0-2.85.669 11.559 11.559 0 0 0-2.211 1.163 2.923 2.923 0 0 0-.674.487c-.072.095-.207.055-.318.04a6.541 6.541 0 0 1 1.613-1.1 12.025 12.025 0 0 1 9.314-.967 11.031 11.031 0 0 1 2.289.961c.212.117.211.2.038.347-.237.2-.471.4-.687.622-.157.159-.271.156-.422-.006-.4-.435-.826-.854-1.227-1.292-.164-.179-.282-.226-.48-.035-.268.257-.568.49-.868.737zm1.157-1.152c.443.368.738.846 1.169 1.2.53.441.506.493.963 0 .215-.234.17-.328-.084-.5s-.614-.086-.852-.317c-.33-.324-.794-.248-1.193-.383z" class="cls-1"/>
            <path id="Path_326" d="M855.063 2926.629c.09.005.178.009.18.135a1.459 1.459 0 0 1-.913 1.1 1.039 1.039 0 0 1-1.172-.417 1.342 1.342 0 0 1-.232-.962c.042-.854.014-1.712.014-2.569v-4.469c0-.614-.1-.719-.7-.718-.754 0-.638-.08-.639.622-.005 2.334 0 4.668-.005 7 0 .141.057.3-.073.423-.009-.136-.026-.271-.026-.406v-5.88c0-.543.013-1.087-.012-1.629-.008-.2.061-.242.224-.241.372 0 .744.007 1.116 0 .307 0 .244.215.244.39v7.555a1.243 1.243 0 0 0 .076.583.943.943 0 0 0 1.136.54.906.906 0 0 0 .748-.81c.017-.076.024-.162.034-.247z" class="cls-1"/>
            <path id="Path_327" d="M878.217 2929.139c.042-.222.131-.44-.048-.657-.051-.062-.025-.191-.025-.29v-6.362c0-.5.332-.913.4-1.4 0-.023.082-.035.126-.052a3.324 3.324 0 0 0-.2 1.381q.009 3.289 0 6.58c0 .2-.026.4-.015.591s-.073.238-.238.209z" class="cls-1"/>
            <path id="Path_328" d="M877.247 2919.848a1.783 1.783 0 0 1-.135.611c-.069.316.119.609.122.9.024 2.284.012 4.569.017 6.854 0 .2-.186.319-.156.525.02.14-.006.246.21.25a4.5 4.5 0 0 1 .751.136c-.357.017-.809.154-1.044-.038s-.062-.651-.063-.992c-.008-2.356 0-4.711-.005-7.067a2 2 0 0 1 .303-1.179z" class="cls-1"/>
            <path id="Path_329" d="M834.1 2935.659a2.222 2.222 0 0 1 1.061-.028 3.653 3.653 0 0 0 1.861-.037c.352-.119.761.02 1.141-.091.728-.212 1.48-.356 2.188-.621a10.284 10.284 0 0 0 1.819-.929 2.439 2.439 0 0 1 .68-.425c.188-.049.025-.4.278-.506.04-.016-.134-.218-.239-.286-.175-.113-.282-.236-.235-.453l.7.759c.178.191.019.274-.113.373a12.266 12.266 0 0 1-7.656 2.452 4.9 4.9 0 0 1-1.485-.208z" class="cls-1"/>
            <path id="Path_330" d="M880.524 2921.041c.218.094.153.29.153.453v7.018c0 .472.028.508.508.5a1.767 1.767 0 0 0 .841-.074c.056.163-.006.228-.174.226-.385-.005-.769 0-1.153 0-.233 0-.205-.164-.205-.312v-2.417-4.984c.006-.139.021-.275.03-.41z" class="cls-1"/>
            <path id="Path_331" d="M825.483 2929.772c.159-.027.219.088.276.2a8.4 8.4 0 0 1 .585.938.154.154 0 0 0 .065.088c.534.2.693.767 1.079 1.124a16.032 16.032 0 0 0 2.159 1.772c.693.447 1.473.733 2.2 1.121.081.044.207.029.217.166a9.456 9.456 0 0 1-2.358-1.067 11.486 11.486 0 0 1-3.283-2.922 7.1 7.1 0 0 1-.94-1.42z" class="cls-1"/>
            <path id="Path_332" d="M832.01 2915.631a3.783 3.783 0 0 1 .87-.981c.357-.306.921-.472 1.029-1.062.057-.306.865-.466 1.082-.232a14.488 14.488 0 0 1 1.284 1.337c.132.184.306-.033.444.06-.182.25-.331.364-.588.034-.341-.436-.763-.809-1.123-1.232-.214-.252-.376-.24-.6-.029-.663.614-1.34 1.213-2.011 1.818a1.081 1.081 0 0 1-.387.287z" class="cls-1"/>
            <path id="Path_333" d="M833.548 2927.746c-.1-.131-.22-.2.064-.323a2.71 2.71 0 0 0 .87-.834c.072-.081.016-.165-.045-.23a12.066 12.066 0 0 0-1.469-1.524.886.886 0 0 1-.383-.739l2.068 2.274c.131.144.128.262-.036.4-.366.315-.717.65-1.069.976z" class="cls-1"/>
            <path id="Path_334" d="M831.764 2922.6c-.02-.349.3-.444.494-.606.385-.323.392-.3.034-.693-.664-.721-1.314-1.457-1.97-2.186-.068-.075-.14-.145-.1-.259.879.85 1.653 1.8 2.487 2.689.132.141.062.21-.039.295q-.453.385-.906.76z" class="cls-1"/>
            <path id="Path_335" d="M842.659 2932.287c-.024 0-.06.007-.072-.006-.4-.432-.979-.7-1.228-1.279-.126-.3-.321-.321-.566-.1a12.137 12.137 0 0 1-1.211 1.065c-.073.051-.136.1-.232.08.456-.54 1.038-.95 1.526-1.457.13-.135.252-.119.374.028.467.561.939 1.114 1.409 1.669z" class="cls-1"/>
            <path id="Path_336" d="M836.406 2931.01c-.167.034-.248-.094-.334-.19-.477-.532-.921-1.1-1.432-1.593a6.811 6.811 0 0 1-.837-.9.333.333 0 0 1-.08-.3c.668.638 1.254 1.352 1.871 2.037.279.305.541.629.812.946z" class="cls-1"/>
            <path id="Path_337" d="M852.046 2928.347a.64.64 0 0 1 .532.286c.226.285.507.559.936.424.153-.048.207.108.333.107a1.5 1.5 0 0 0 .9-.133 1.237 1.237 0 0 1 .795-.168 2.575 2.575 0 0 1-3.496-.516z" class="cls-1"/>
            <path id="Path_338" d="M839.1 2932.258a1.651 1.651 0 0 1-.855.916.158.158 0 0 1-.151-.084c-.269-.366-.613-.666-.882-1.035a6.08 6.08 0 0 0-.673-.687.345.345 0 0 1-.136-.36c.594.537 1.08 1.173 1.625 1.756.19.2.3.226.49 0a4.343 4.343 0 0 1 .582-.506z" class="cls-1"/>
            <path id="Path_339" d="M855.99 2928.731c.152-.108.258.032.355.092a2.735 2.735 0 0 0 1.375.343 2.428 2.428 0 0 0 1.245-.368c.128-.069.234-.191.4-.15a1.835 1.835 0 0 1-1.315.646 2.438 2.438 0 0 1-2.06-.563z" class="cls-1"/>
            <path id="Path_340" d="M827.942 2914.758a3.455 3.455 0 0 1-.751.848 10.47 10.47 0 0 0-.881 1.135 2.938 2.938 0 0 1-.8.954 9.174 9.174 0 0 1 2.432-2.937z" class="cls-1"/>
            <path id="Path_341" d="M829.675 2917.762a.316.316 0 0 1 .117-.3c.468-.353.815-.833 1.247-1.211.276-.241.532-.6.973-.622-.73.771-1.541 1.442-2.337 2.133z" class="cls-1"/>
            <path id="Path_342" d="M860.18 2926.877l.011-7.451a.107.107 0 0 1 .013.035q0 3.675.007 7.349c0 .022-.02.045-.031.067z" class="cls-1"/>
            <path id="Path_343" d="M824.445 2920.183a7.027 7.027 0 0 1-.193 1.146 5.882 5.882 0 0 0-.094.649v3.675c0 .122-.02.244-.031.365-.07-.641-.02-1.285-.028-1.927-.01-.805-.013-1.61 0-2.414a3.25 3.25 0 0 1 .346-1.494z" class="cls-1"/>
            <path id="Path_344" d="M825.506 2917.705c.05.411-.243.709-.39 1.043a10.1 10.1 0 0 0-.428 1.08c-.04.13-.07.233-.221.247a7.916 7.916 0 0 1 1.039-2.37z" class="cls-1"/>
            <path id="Path_345" d="M836.729 2914.745c-.069-.206-.075-.329.19-.449.239-.108.567-.219.62-.59a1.047 1.047 0 0 1 .563-.188 17.766 17.766 0 0 1-1.373 1.227z" class="cls-1"/>
            <path id="Path_346" d="M859.5 2928.568c-.055-.419.379-.651.4-1.054.008-.136.14-.273.125-.442-.011-.127.078-.088.147-.069a2.371 2.371 0 0 1-.672 1.565z" class="cls-1"/>
            <path id="Path_347" d="M832.584 2924.095a2.481 2.481 0 0 1-.81-.708c-.071-.071-.127-.17-.2-.249-.22-.225-.135-.453.19-.531-.211.189-.144.345.012.551a7.845 7.845 0 0 1 .808.937z" class="cls-1"/>
            <path id="Path_348" d="M832.169 2935.208a3.55 3.55 0 0 1 1.679.423 4.09 4.09 0 0 1-1.679-.423z" class="cls-1"/>
            <path id="Path_349" d="M851.526 2927a5.672 5.672 0 0 1 .516 1.341 2.127 2.127 0 0 1-.516-1.341z" class="cls-1"/>
            <path id="Path_350" d="M824.447 2927.372a1.733 1.733 0 0 1 .448 1.219 3.436 3.436 0 0 1-.448-1.219z" class="cls-1"/>
            <path id="Path_351" d="M824.92 2928.644a1.861 1.861 0 0 1 .566 1.131 4.192 4.192 0 0 1-.566-1.131z" class="cls-1"/>
            <path id="Path_352" d="M878.963 2920.139a.646.646 0 0 1 1.046-.012 1.584 1.584 0 0 0-1.046.012z" class="cls-1"/>
            <path id="Path_353" d="M830.22 2918.858c-.326-.128-.628-.277-.621-.7a2.631 2.631 0 0 1 .621.7z" class="cls-1"/>
            <path id="Path_354" d="M828.541 2914.241a.7.7 0 0 1-.6.519 1.421 1.421 0 0 1 .6-.519z" class="cls-1"/>
            <path id="Path_355" d="M882.044 2920.9a.592.592 0 0 1 .465-.743 2.166 2.166 0 0 0-.465.743z" class="cls-1"/>
            <path id="Path_356" d="M880.069 2920.153c.322.055.443.248.412.658a3.213 3.213 0 0 0-.412-.658z" class="cls-1"/>
            <path id="Path_357" d="M824.14 2926.182c.313.178.114.471.158.709a2.084 2.084 0 0 1-.158-.709z" class="cls-1"/>
            <path id="Path_358" d="M829.555 2918.126c-.1.006-.232-.01-.219-.134.019-.179.2-.193.337-.229-.057.115-.222.195-.118.363z" class="cls-1"/>
            <path id="Path_359" d="M824.306 2926.928c.255.068.115.269.139.415a.582.582 0 0 1-.139-.415z" class="cls-1"/>
            <path id="Path_360" d="M839.351 2932.05c.009.172-.047.265-.237.2z" class="cls-1"/>
            <path id="Path_361" d="M878.673 2920.38c0-.176.1-.236.258-.219a.353.353 0 0 1-.258.219z" class="cls-1"/>
            <path id="Path_362" d="M833.726 2928.026c-.18.029-.172-.094-.17-.211a.257.257 0 0 1 .17.211z" class="cls-1"/>
            <path id="Path_363" d="M877.312 2919.809l-.066.039z" class="cls-1"/>
            <path id="Path_364" d="M839.26 2912.365c.4.133.863.059 1.2.382.238.231.584.133.852.317s.3.268.084.5c-.457.5-.433.444-.963 0-.433-.353-.733-.831-1.173-1.199zm1.074.547c-.01-.046-.011-.114-.077-.1-.083.016-.106.1-.113.169s.049.081.1.073c.076-.014.087-.077.09-.142z" class="cls-1"/>
            <path id="Path_365" d="M840.334 2912.913c0 .064-.014.127-.09.14-.051.008-.106-.009-.1-.073s.03-.153.113-.169c.066-.011.067.055.077.102z" class="cls-1"/>
        </g>
    </g>
</svg>
