<svg xmlns="http://www.w3.org/2000/svg" width="51.273" height="45.922" viewBox="0 0 51.273 45.922">
    <defs>
        <style>
            .cls-1{fill:white}.cls-2{fill:white}
        </style>
    </defs>
    <g id="Group_933" transform="translate(-422.309 -931.584)">
        <g id="Group_931">
            <path id="Path_2340" d="M430.783 963.044a8.156 8.156 0 0 1-8.474-8.516V940.1a8.474 8.474 0 1 1 16.947 0v14.427a8.155 8.155 0 0 1-8.473 8.517zm5.345-22.769c0-3.389-1.912-5.91-5.345-5.91s-5.345 2.521-5.345 5.91v14.079c0 3.39 1.912 5.909 5.345 5.909s5.345-2.519 5.345-5.909z" class="cls-1"/>
            <path id="Path_2341" d="M445.9 962.784V958.7h4.085v4.085z" class="cls-1"/>
            <path id="Path_2342" d="M465.109 963.044a8.156 8.156 0 0 1-8.474-8.516V940.1a8.474 8.474 0 1 1 16.947 0v14.427a8.155 8.155 0 0 1-8.473 8.517zm5.345-22.769c0-3.389-1.912-5.91-5.345-5.91s-5.345 2.521-5.345 5.91v14.079c0 3.39 1.912 5.909 5.345 5.909s5.345-2.519 5.345-5.909z" class="cls-1"/>
        </g>
        <g id="Group_932">
            <path id="Path_2343" d="M443.028 974.325a2.254 2.254 0 0 1-1.6.587 2.059 2.059 0 0 1-1.734-.755v3.349h-1.33v-9.281h1.3v.7a2.034 2.034 0 0 1 1.746-.782 2.287 2.287 0 0 1 1.617.587 5.631 5.631 0 0 1 0 5.591zm-1.955-4.991c-1.2 0-1.382 1.016-1.382 2.189s.183 2.2 1.382 2.2 1.369-1.03 1.369-2.2-.17-2.189-1.369-2.189z" class="cls-2"/>
            <path id="Path_2344" d="M445.531 966.922v-1.408h1.408v1.408zm.039 7.912v-6.609h1.33v6.609z" class="cls-2"/>
            <path id="Path_2345" d="M453.678 974.325a2.254 2.254 0 0 1-1.6.587 2.058 2.058 0 0 1-1.734-.755v3.349h-1.33v-9.281h1.3v.7a2.034 2.034 0 0 1 1.746-.782 2.288 2.288 0 0 1 1.617.587 5.631 5.631 0 0 1 0 5.591zm-1.956-4.991c-1.2 0-1.381 1.016-1.381 2.189s.182 2.2 1.381 2.2 1.369-1.03 1.369-2.2-.169-2.189-1.369-2.189z" class="cls-2"/>
            <path id="Path_2346" d="M458.357 974.912a3.638 3.638 0 0 1-2.776-.951l.873-.874a2.564 2.564 0 0 0 1.9.691c.809 0 1.447-.287 1.447-.912 0-.443-.248-.73-.886-.783l-1.056-.09c-1.238-.1-1.955-.665-1.955-1.825 0-1.291 1.108-2.021 2.489-2.021a3.627 3.627 0 0 1 2.451.743l-.834.848a2.494 2.494 0 0 0-1.63-.483c-.795 0-1.2.352-1.2.848 0 .391.209.69.913.756l1.043.091c1.238.1 1.968.69 1.968 1.864.004 1.386-1.169 2.098-2.747 2.098z" class="cls-2"/>
        </g>
    </g>
</svg>
