<?xml version="1.0" encoding="utf-8"?>
<!-- Generator: Adobe Illustrator 16.0.0, SVG Export Plug-In . SVG Version: 6.00 Build 0)  -->
<!DOCTYPE svg PUBLIC "-//W3C//DTD SVG 1.1//EN" "http://www.w3.org/Graphics/SVG/1.1/DTD/svg11.dtd">
<svg version="1.1" id="Layer_1" xmlns="http://www.w3.org/2000/svg" xmlns:xlink="http://www.w3.org/1999/xlink" x="0px" y="0px"
	 width="145.01px" height="44.504px" viewBox="0 0 145.01 44.504" enable-background="new 0 0 145.01 44.504" xml:space="preserve">
<g id="Group_80" transform="translate(-3188.402 -5239.02)">
	<g id="Group_78">
		<path id="Path_101" d="M3188.4,5281.885v-30.767h10.632l5.43,22.44l5.429-22.44h10.632v30.767h-6.244v-23.8h-0.678l-6.018,22.441
			h-6.244l-6.018-22.441h-0.678v23.8H3188.4z"/>
		<path id="Path_102" d="M3224.461,5256.639v-5.52h22.622v5.52h-8.144v25.246h-6.239v-25.246H3224.461z"/>
	</g>
	<path id="Rectangle_84" d="M3288.295,5251.119h1.251v30.763h-1.251V5251.119z"/>
	<g id="Group_79">
		<path id="Path_104" d="M3303.937,5258.805c-0.12,0-0.239,0.012-0.356,0.035c-0.113,0.022-0.225,0.056-0.332,0.1
			c-0.209,0.089-0.4,0.216-0.562,0.376c-0.081,0.079-0.152,0.166-0.216,0.26c-0.064,0.094-0.119,0.194-0.162,0.3
			c-0.045,0.106-0.079,0.217-0.101,0.331c-0.024,0.117-0.036,0.236-0.036,0.356v8.539c0,0.119,0.012,0.238,0.036,0.354
			c0.047,0.226,0.138,0.439,0.267,0.631c0.063,0.094,0.135,0.182,0.215,0.263c0.08,0.08,0.168,0.152,0.262,0.216
			c0.095,0.064,0.195,0.119,0.3,0.164c0.107,0.044,0.219,0.078,0.332,0.1c0.235,0.049,0.478,0.049,0.713,0
			c0.113-0.021,0.225-0.056,0.331-0.1c0.105-0.045,0.206-0.1,0.301-0.164c0.093-0.063,0.181-0.136,0.261-0.216
			c0.08-0.081,0.151-0.169,0.215-0.263c0.063-0.095,0.118-0.195,0.162-0.301s0.077-0.217,0.101-0.33
			c0.023-0.116,0.035-0.234,0.035-0.354v-8.539c0-0.12-0.012-0.239-0.035-0.356c-0.022-0.113-0.057-0.224-0.101-0.331
			c-0.089-0.209-0.216-0.399-0.377-0.559c-0.161-0.16-0.352-0.287-0.56-0.376c-0.107-0.044-0.219-0.078-0.332-0.1
			C3304.179,5258.817,3304.058,5258.805,3303.937,5258.805L3303.937,5258.805z"/>
		<path id="Path_105" d="M3331.639,5258.805c-0.119,0-0.237,0.012-0.354,0.035c-0.226,0.045-0.439,0.135-0.63,0.264
			c-0.094,0.063-0.182,0.134-0.261,0.214c-0.081,0.079-0.153,0.167-0.216,0.26c-0.064,0.094-0.119,0.195-0.164,0.3
			c-0.09,0.218-0.137,0.451-0.138,0.687v8.539c0,0.119,0.012,0.238,0.036,0.354c0.022,0.113,0.056,0.225,0.1,0.33
			c0.09,0.211,0.219,0.401,0.379,0.563c0.08,0.08,0.168,0.152,0.262,0.216c0.189,0.13,0.404,0.221,0.63,0.268
			c0.116,0.024,0.235,0.037,0.354,0.037c0.12,0,0.24-0.013,0.357-0.037c0.113-0.021,0.225-0.056,0.332-0.1
			c0.105-0.045,0.205-0.1,0.3-0.164c0.094-0.063,0.182-0.136,0.262-0.216c0.081-0.081,0.153-0.169,0.218-0.263
			c0.063-0.095,0.118-0.195,0.162-0.301c0.045-0.105,0.078-0.217,0.101-0.33c0.023-0.116,0.036-0.234,0.036-0.354v-8.539
			c0-0.12-0.013-0.239-0.036-0.356c-0.022-0.113-0.056-0.224-0.101-0.331c-0.043-0.105-0.098-0.206-0.162-0.3
			c-0.064-0.093-0.137-0.18-0.218-0.26c-0.162-0.16-0.353-0.288-0.563-0.376c-0.107-0.044-0.219-0.078-0.332-0.1
			C3331.878,5258.821,3331.759,5258.807,3331.639,5258.805L3331.639,5258.805z"/>
		<path id="Path_106" d="M3307.286,5258.805v15.818c0,0.527,0.158,1.042,0.453,1.479c0.287,0.426,0.691,0.759,1.165,0.959
			c0.326,0.138,0.676,0.208,1.03,0.208h2.832v4.486c0,0.119,0.012,0.238,0.036,0.354c0.022,0.113,0.056,0.225,0.101,0.331
			c0.044,0.105,0.099,0.205,0.163,0.3c0.063,0.095,0.135,0.183,0.215,0.263s0.168,0.152,0.262,0.217
			c0.095,0.064,0.195,0.119,0.3,0.164c0.107,0.045,0.219,0.078,0.332,0.1c0.235,0.049,0.478,0.049,0.713,0
			c0.113-0.021,0.225-0.055,0.332-0.1c0.104-0.045,0.205-0.1,0.3-0.164c0.093-0.064,0.181-0.137,0.261-0.217
			c0.161-0.162,0.29-0.353,0.379-0.563c0.044-0.107,0.078-0.218,0.1-0.331c0.024-0.116,0.037-0.235,0.036-0.354v-4.486h3.015v4.486
			c-0.001,0.119,0.012,0.238,0.035,0.354c0.047,0.226,0.138,0.44,0.267,0.631c0.063,0.095,0.135,0.183,0.215,0.263
			s0.167,0.152,0.261,0.217c0.095,0.064,0.195,0.119,0.301,0.164s0.217,0.078,0.33,0.1c0.234,0.049,0.477,0.049,0.711,0
			c0.114-0.021,0.226-0.055,0.332-0.1c0.105-0.045,0.206-0.1,0.301-0.164c0.094-0.064,0.181-0.137,0.261-0.217
			s0.152-0.168,0.216-0.263c0.129-0.19,0.22-0.405,0.267-0.631c0.023-0.116,0.035-0.235,0.036-0.354v-4.486h2.832
			c0.18,0,0.359-0.018,0.535-0.055c0.172-0.033,0.339-0.086,0.5-0.153c0.315-0.133,0.602-0.325,0.844-0.567
			c0.242-0.241,0.435-0.527,0.567-0.842c0.138-0.326,0.208-0.676,0.208-1.029v-15.818h-21.037H3307.286z"/>
		<path id="Path_107" d="M3322.944,5248.078l0.236-0.44l0.236-0.44l0.235-0.439l0.236-0.44l0.236-0.44l0.235-0.44l0.236-0.44
			l0.236-0.44l-0.048-0.026l-0.048-0.026l-0.05-0.026l-0.048-0.027l-0.049-0.026l-0.049-0.026l-0.048-0.026l-0.049-0.026
			l-0.236,0.439l-0.237,0.44l-0.236,0.44l-0.236,0.44l-0.237,0.44l-0.235,0.44l-0.237,0.44l-0.237,0.44
			c-0.178-0.091-0.359-0.177-0.542-0.258c-0.185-0.081-0.371-0.156-0.56-0.227c-0.189-0.071-0.382-0.135-0.575-0.195
			c-0.194-0.06-0.392-0.113-0.591-0.162c-0.198-0.049-0.399-0.091-0.6-0.128s-0.409-0.068-0.616-0.093s-0.416-0.044-0.626-0.056
			s-0.424-0.02-0.637-0.02s-0.4,0.006-0.6,0.018c-0.201,0.012-0.4,0.028-0.596,0.051s-0.392,0.05-0.585,0.084
			c-0.192,0.034-0.384,0.072-0.573,0.116c-0.188,0.044-0.377,0.093-0.562,0.147s-0.368,0.113-0.549,0.177
			c-0.182,0.064-0.359,0.132-0.535,0.206s-0.351,0.152-0.521,0.234l-0.229-0.426l-0.229-0.427l-0.229-0.427l-0.229-0.427
			l-0.229-0.426l-0.229-0.427l-0.229-0.427l-0.229-0.426l-0.05,0.026l-0.049,0.026l-0.049,0.026l-0.05,0.026l-0.049,0.027
			l-0.049,0.026l-0.049,0.026l-0.049,0.026l0.229,0.425l0.229,0.425l0.229,0.424l0.229,0.425l0.229,0.425l0.229,0.425l0.229,0.424
			l0.229,0.425c-0.813,0.438-1.564,0.981-2.235,1.615c-0.334,0.316-0.647,0.653-0.938,1.009c-0.291,0.357-0.558,0.733-0.8,1.126
			c-0.243,0.395-0.46,0.805-0.647,1.229c-0.386,0.865-0.65,1.778-0.787,2.715c-0.071,0.483-0.108,0.97-0.112,1.458h20.899
			c-0.006-1.407-0.299-2.798-0.861-4.089c-0.365-0.831-0.838-1.611-1.404-2.32c-0.84-1.063-1.879-1.953-3.057-2.62
			L3322.944,5248.078z M3312.425,5253.078c-0.067,0-0.135-0.007-0.2-0.02c-0.063-0.014-0.126-0.034-0.187-0.059
			c-0.059-0.025-0.115-0.056-0.169-0.092c-0.053-0.036-0.103-0.077-0.147-0.122c-0.045-0.045-0.086-0.095-0.122-0.148
			c-0.036-0.053-0.067-0.109-0.093-0.168c-0.025-0.06-0.045-0.122-0.059-0.186c-0.014-0.066-0.021-0.133-0.021-0.2
			c0.001-0.133,0.027-0.265,0.08-0.388c0.025-0.06,0.057-0.116,0.093-0.17c0.036-0.053,0.077-0.103,0.122-0.149
			c0.045-0.045,0.095-0.086,0.147-0.123c0.054-0.036,0.11-0.066,0.169-0.092c0.061-0.026,0.122-0.046,0.187-0.059
			c0.132-0.028,0.268-0.028,0.399,0c0.064,0.013,0.127,0.033,0.188,0.059c0.059,0.025,0.115,0.056,0.169,0.092
			c0.053,0.037,0.103,0.078,0.147,0.123c0.045,0.046,0.086,0.096,0.122,0.149c0.073,0.108,0.124,0.229,0.15,0.357
			c0.013,0.066,0.02,0.133,0.02,0.2c0.001,0.067-0.006,0.134-0.02,0.2c-0.026,0.127-0.077,0.247-0.15,0.354
			c-0.036,0.053-0.077,0.103-0.122,0.148s-0.095,0.086-0.147,0.122c-0.054,0.036-0.11,0.067-0.169,0.092
			c-0.061,0.025-0.123,0.045-0.188,0.059c-0.065,0.015-0.133,0.023-0.199,0.025V5253.078z M3323.017,5253.078
			c-0.067,0-0.134-0.007-0.2-0.02c-0.063-0.014-0.126-0.034-0.186-0.059c-0.06-0.025-0.115-0.056-0.168-0.092
			s-0.103-0.077-0.147-0.122c-0.044-0.045-0.085-0.095-0.12-0.148c-0.035-0.053-0.066-0.109-0.091-0.168
			c-0.025-0.06-0.044-0.123-0.058-0.186c-0.014-0.066-0.02-0.133-0.02-0.2s0.007-0.134,0.02-0.2
			c0.014-0.064,0.032-0.127,0.058-0.187c0.024-0.06,0.055-0.116,0.091-0.17c0.035-0.053,0.075-0.103,0.12-0.149
			c0.046-0.045,0.095-0.086,0.147-0.123c0.053-0.036,0.108-0.067,0.168-0.092c0.06-0.026,0.121-0.046,0.186-0.059
			c0.066-0.014,0.133-0.021,0.2-0.021c0.067,0,0.134,0.008,0.2,0.021c0.063,0.013,0.127,0.033,0.187,0.059
			c0.06,0.025,0.116,0.056,0.169,0.092c0.053,0.037,0.102,0.078,0.146,0.123s0.085,0.096,0.121,0.149
			c0.035,0.053,0.066,0.11,0.091,0.17c0.025,0.06,0.044,0.123,0.057,0.187c0.013,0.066,0.021,0.133,0.021,0.2
			c-0.001,0.131-0.027,0.262-0.077,0.383c-0.025,0.059-0.056,0.115-0.091,0.168c-0.036,0.053-0.076,0.103-0.121,0.148
			s-0.094,0.086-0.146,0.122s-0.109,0.067-0.169,0.092c-0.061,0.025-0.123,0.045-0.187,0.059c-0.066,0.016-0.133,0.024-0.2,0.027
			V5253.078z"/>
	</g>
</g>
<g>
	<path fill="#F4BB2A" d="M67.736,35.12l6.347-0.658c0.182,1.437,0.719,2.573,1.609,3.412c0.893,0.839,1.92,1.258,3.084,1.258
		c1.33,0,2.455-0.54,3.377-1.62c0.922-1.081,1.383-2.709,1.383-4.886c0-2.04-0.457-3.57-1.371-4.59
		c-0.914-1.021-2.104-1.53-3.57-1.53c-1.828,0-3.469,0.809-4.92,2.425l-5.168-0.748l3.265-17.296h16.843v5.962H76.6l-0.997,5.645
		c1.42-0.71,2.871-1.065,4.353-1.065c2.825,0,5.222,1.028,7.187,3.083c1.964,2.056,2.946,4.723,2.946,8.002
		c0,2.735-0.794,5.177-2.38,7.322c-2.162,2.932-5.162,4.397-9,4.397c-3.068,0-5.569-0.823-7.503-2.471
		C69.27,40.115,68.114,37.9,67.736,35.12z"/>
</g>
</svg>
