<svg xmlns="http://www.w3.org/2000/svg" width="61.46" height="38.434" viewBox="0 0 61.46 38.434">
    <defs>
        <style>
            .cls-1{fill:#79b2e2}.cls-2{fill:#6a9cce}.cls-4{fill:#fcfcfc}.cls-5{fill:#fdfcfc}.cls-6{fill:#007b84}
        </style>
    </defs>
    <g id="W38Bus.tif" transform="translate(-1125.599 -2908.945)">
        <g id="Group_176">
            <path id="Path_513" d="M1168.3 2908.945h16.069c.021.043.062.026.1.031a2.925 2.925 0 0 1 2.529 3.6c-.2 1.05-.469 2.086-.712 3.128l-3.337 14.34q-1.5 6.46-3.007 12.92a5.63 5.63 0 0 1-.866 2.148 5.123 5.123 0 0 1-4.322 2.269c-4.812-.009-9.623 0-14.435 0-.4 0-.789-.007-1.184-.01.006-.076-.053-.045-.086-.051a2.872 2.872 0 0 1-1.836-1.084 2.978 2.978 0 0 1-.551-2.43c.154-.815.361-1.619.546-2.428q.22-.965.445-1.93l.753-.005c.291 0 .3 0 .382-.266.111-.355.21-.714.32-1.091-.392.029-.768.09-1.148.094.139-.607.28-1.213.417-1.82.09-.4.2-.79.264-1.194.056 0 .112-.006.169-.006 1.036-.01 2.073.031 3.108-.027a1.49 1.49 0 0 0 1.216-.68 6.117 6.117 0 0 0 .612-1.581c.173-.542.329-1.089.493-1.634.079-.265.162-.53.238-.8.013-.048.052-.15-.056-.127a2.461 2.461 0 0 1-.453 0 20.411 20.411 0 0 0-2.618.082 3.019 3.019 0 0 0-1.111.335c-.207.125-.4.268-.611.418a.449.449 0 0 1 0-.093c.064-.221.128-.443.2-.662.014-.043.012-.066-.024-.088a1.047 1.047 0 0 1 .015-.137l.512-2.2c.241 0 .482-.007.722 0a.184.184 0 0 0 .216-.179c.078-.448.162-.9.249-1.343.161-.834.394-1.653.522-2.493a1.149 1.149 0 0 0-.481-1.3.7.7 0 0 0 .034-.084l1.479-6.354c.232-1 .489-1.989.7-2.991a5.329 5.329 0 0 1 3.877-4.146c.207-.064.431-.076.651-.131zm-.16 21.981c.051-.175.09-.333.145-.485.039-.112.013-.139-.1-.138-.508.005-1.016.006-1.524 0-.121 0-.164.042-.2.151l-2.155 7.175c-.051.172-.114.26-.3.223-.1-.02-.152.02-.182.127q-.125.459-.277.91c-.044.128-.018.153.112.153 1.062-.005 2.124 0 3.186 0 .267 0 .273 0 .188.258-.042.127 0 .141.112.139.447-.005.893 0 1.34 0 .285 0 .284 0 .373-.279.017-.054.016-.123.11-.118.142.008.284 0 .436 0l-.114.4c.42 0 .825-.011 1.229 0a1.718 1.718 0 0 0 1.559-.785c.268-.382.549-.755.825-1.13.026-.035.038-.086.1-.1l.184 1.168a.934.934 0 0 0 .873.781c.312.011.626.009.938.022a.153.153 0 0 0 .183-.13q.148-.525.319-1.043c.042-.126 0-.144-.112-.137a2.289 2.289 0 0 1-.322-.008c-.242-.018-.265-.043-.3-.279-.063-.421-.131-.841-.192-1.261-.014-.1-.053-.136-.157-.132-.229.008-.457 0-.723 0 .111-.132.2-.232.284-.342a.251.251 0 0 1 .232-.11c.615.005 1.231 0 1.847.005a.135.135 0 0 0 .158-.118c.076-.271.156-.541.247-.807.039-.117.009-.136-.1-.135-.559.005-1.118 0-1.678.005-.111 0-.129-.03-.1-.129.08-.238.159-.476.226-.718a.152.152 0 0 1 .179-.133c.559.006 1.118 0 1.678.005.1 0 .142-.024.169-.124.084-.306.174-.61.275-.911.045-.134.029-.168-.122-.168q-2.709.009-5.418 0c-.167 0-.238.045-.278.211-.08.329-.188.652-.287.991h1.927c.136 0 .152.033.109.154-.08.226-.152.456-.212.689-.03.113-.085.137-.192.136h-1.832c-.054 0-.123-.03-.15.062-.095.327-.195.653-.3 1h1.847c-.495.693-.971 1.367-1.455 2.034a.714.714 0 0 1-.493.258 4.437 4.437 0 0 1-.553.013c-.079 0-.064-.046-.051-.091a2.9 2.9 0 0 1 .092-.292c.052-.125.005-.149-.111-.14s-.224 0-.349 0c.017-.063.028-.111.043-.159q.838-2.778 1.679-5.554c.046-.152.056-.348.157-.44s.314-.029.476-.03c.1 0 .147-.022.171-.124.033-.14.085-.277.129-.415l.048.006v.659a.619.619 0 0 0 .315.547.994.994 0 0 0 .463.149c.472.034.944 0 1.415.009a.086.086 0 0 0 .1-.068c.109-.367.221-.733.335-1.109-.188-.023-.363.007-.535-.024a.184.184 0 0 1-.179-.206c0-.185-.01-.369-.006-.554 0-.1-.032-.13-.131-.13-1.334-.007-2.668.017-4 .083a2.859 2.859 0 0 0-1.558.5c-.011.007-.03.015-.067.033zm-1.192-12.194c-.759.008-1.477.022-2.2-.008-.146-.007-.183.038-.211.171-.244 1.157-.477 2.316-.756 3.465l-1.332 5.473c-.031.125-.016.16.125.156.656-.014 1.313-.039 1.968 0 .14.008.189-.022.217-.164.2-.969.383-1.938.638-2.893a.319.319 0 0 1 .369-.285 10.667 10.667 0 0 0 2.25-.163 3.94 3.94 0 0 0 3.107-4.058 1.537 1.537 0 0 0-.922-1.4 3.318 3.318 0 0 0-1.177-.267c-.704-.053-1.412-.023-2.078-.027zm12.1 6.5l-.035-.639q-.049-.953-.1-1.905c-.006-.115-.044-.192-.178-.164-.587.12-1.174.241-1.769.315-.154.018-.187.08-.16.233.036.2.078.393.1.591.173 1.429.382 2.854.516 4.288a.263.263 0 0 1-.035.174c-.526.9-1.034 1.8-1.587 2.685-.179.285-.37.469-.722.411-.075-.012-.108.025-.128.094-.092.314-.187.628-.282.941-.023.074-.031.12.077.12.4 0 .79.027 1.184.013a1.436 1.436 0 0 0 1.271-.76c.391-.69.8-1.369 1.179-2.066 1.257-2.307 2.588-4.571 3.9-6.846.027-.047.094-.091.04-.162s-.11-.032-.168-.021c-.543.112-1.086.22-1.636.279a.414.414 0 0 0-.391.294c-.282.74-.724 1.404-1.077 2.124zm-6.348 2.474c-.012.053-.021.1-.034.151-.05.2-.044.21.165.2.589-.016 1.179-.041 1.769-.02.159.006.229-.046.255-.207.162-1.022.37-2.035.609-3.042q.242-1.016.481-2.032c.034-.145.013-.165-.134-.138s-.292.056-.438.08c-.491.078-.982.156-1.474.229-.116.017-.2.052-.191.187 0 .023 0 .052-.037.059l-.029-.034-.038-.048a1.15 1.15 0 0 0-1.136-.46 3.164 3.164 0 0 0-1.893 1.088 4.042 4.042 0 0 0-.828 1.925 3.228 3.228 0 0 0-.065 1.069 1.418 1.418 0 0 0 .892 1.211 1.867 1.867 0 0 0 2.091-.214.092.092 0 0 1 .035-.005zm-10.49 10.465l-1.085.064c-.223.013-.337-.092-.337-.31 0-.241.011-.482 0-.723-.005-.129.048-.152.159-.155.318-.007.635-.023.953-.036a1.1 1.1 0 0 0 1.047-.819c.052-.245.1-.49.163-.734.021-.083-.02-.081-.077-.081h-1.123a.1.1 0 0 0-.117.089c-.038.143-.093.281-.132.424a.287.287 0 0 1-.313.235h-.369c-.093.005-.128-.02-.117-.12.014-.147.009-.3.019-.445.005-.082-.013-.118-.107-.117q-.723.006-1.446 0c-.093 0-.108.037-.11.118-.019 1.081-.043 2.163-.06 3.244a.459.459 0 0 0 .455.544 16.63 16.63 0 0 0 2.15.063.087.087 0 0 0 .1-.075c.11-.38.224-.762.346-1.167z" class="cls-1"/>
            <path id="Path_514" d="M1157.646 2939.446q-.224.965-.445 1.93c-.185.809-.392 1.613-.546 2.428a2.978 2.978 0 0 0 .551 2.43 2.872 2.872 0 0 0 1.836 1.084c.033.006.092-.025.086.051-.067 0-.133.005-.2.005h-14.559c-.014-.017-.028-.018-.042 0h-1.837c-.127-.017-.254-.029-.38-.054a2.806 2.806 0 0 1-2.335-2.09 3.8 3.8 0 0 1 .043-1.958q1.509-6.444 3.005-12.891l1.469-6.311c.2.065.26.163.251.4a5.891 5.891 0 0 1-.121.835c-.156.84-.363 1.668-.557 2.5-.042.182-.031.2.152.189.563-.038 1.126-.036 1.69-.028.127 0 .194-.037.218-.174.175-1.029.395-2.048.628-3.066a4.417 4.417 0 0 0 .166-1.243.955.955 0 0 0-.763-.92 1.873 1.873 0 0 0-.32-.04 3.31 3.31 0 0 0-1.012.151.235.235 0 0 1 .005-.046c.75-3.22 1.481-6.444 2.257-9.658a5.14 5.14 0 0 1 3.78-3.886c.2-.06.405-.09.608-.134h17.026c-.218.054-.442.067-.66.123a5.329 5.329 0 0 0-3.877 4.146c-.207 1-.464 1.994-.7 2.991q-.741 3.177-1.479 6.354a.7.7 0 0 1-.034.084 2.675 2.675 0 0 0-2.377.433l.107-.436c.033-.136-.011-.188-.152-.16-.6.121-1.209.219-1.817.306-.228.032-.225.034-.252.261-.059.5-.138.994-.233 1.487-.208 1.091-.475 2.168-.737 3.247-.049.2-.038.221.163.208.553-.037 1.106-.035 1.66-.029.219 0 .219 0 .262-.224l.058-.3c.2-1.03.413-2.057.651-3.078.012-.051.007-.117.071-.146a1.211 1.211 0 0 1 .617-.158.307.307 0 0 1 .3.277 1.355 1.355 0 0 1-.025.458c-.161 1.017-.408 2.015-.644 3.016-.043.182-.034.2.154.185.322-.016.644-.04.967-.025l-.512 2.2a1.047 1.047 0 0 0-.015.137c-.03 0-.06.01-.091.01h-1.446c-.074 0-.126-.009-.158.1-.217.759-.451 1.512-.679 2.267l-.887 2.948q-.454 1.516-.9 3.036c-.027.093-.084.2-.041.294a.684.684 0 0 0 .439.406 3 3 0 0 0 .769.071c.28.001.562.005.844.007zm-5.074-11.367a5.065 5.065 0 0 0 .679-.056 2.828 2.828 0 0 0 1.98-1.169 4.58 4.58 0 0 0 .771-2.582 1.533 1.533 0 0 0-1.243-1.61 3.786 3.786 0 0 0-1.465-.083 2.89 2.89 0 0 0-2.075 1.092 4.324 4.324 0 0 0-.852 2.8 1.483 1.483 0 0 0 1.265 1.5 4.622 4.622 0 0 0 .94.108zm2.494 10.042a.844.844 0 0 0-.1 0l-.761.107a1.684 1.684 0 0 1-.655-.042c-.122-.032-.165-.089-.122-.222q.223-.7.424-1.411c.031-.106.077-.13.18-.129h1.739a.135.135 0 0 0 .158-.117c.086-.3.182-.607.274-.911.053-.176.053-.176-.132-.176h-1.813c.088-.291.177-.568.254-.848a.171.171 0 0 1 .2-.15c.559.008 1.118 0 1.677 0 .059 0 .124.019.15-.067.109-.361.222-.721.334-1.084a.288.288 0 0 0-.055-.012h-4.74c-.078 0-.1.033-.124.1-.094.319-.188.638-.291.954-.032.1 0 .114.086.113h.862c.114 0 .127.03.094.132-.082.253-.157.509-.227.765-.022.081-.061.1-.14.1h-.892c-.073 0-.119.006-.144.094q-.145.518-.31 1.028c-.034.1.006.107.088.106.282 0 .564.006.846 0 .132-.005.14.034.1.146-.194.625-.372 1.256-.575 1.878a.67.67 0 0 0 .121.684.7.7 0 0 0 .523.252c.834.074 1.671.016 2.506.034a.077.077 0 0 0 .087-.065c.125-.42.251-.834.378-1.259zm-7.14-10.129v-.032h.939a.164.164 0 0 0 .187-.157c.146-.973.4-1.923.617-2.88.088-.379.183-.756.273-1.134.036-.149.012-.173-.137-.144-.638.126-1.282.218-1.926.31a.178.178 0 0 0-.18.182c-.092.727-.226 1.446-.38 2.162-.113.522-.319 1.014-.459 1.527-.034.125 0 .167.129.165.311-.003.624.001.937.001zm3.836 4.843h.783a2.268 2.268 0 0 0 1.53-.565.346.346 0 0 1 .248-.09h2.445c.1 0 .163-.015.194-.133.083-.317.18-.629.28-.941.035-.11.026-.147-.1-.145-.574.007-1.148 0-1.722 0-.109 0-.14-.018-.079-.124.1-.172.185-.35.277-.526-.019-.009-.027-.016-.035-.016h-1.861c-.078 0-.106.037-.137.094-.17.309-.346.615-.514.926a.575.575 0 0 1-.582.342c-.1-.006-.2 0-.292 0a.085.085 0 0 0-.1.072l-.335 1.106zm-2.41-10.853a1.9 1.9 0 0 0-1.322.491.569.569 0 0 0 .252 1.02 1.54 1.54 0 0 0 .745.037 1.68 1.68 0 0 0 1.006-.516.549.549 0 0 0-.247-.957 1.292 1.292 0 0 0-.434-.075z" class="cls-2"/>
            <path id="Path_515" fill="#5b86ba" d="M1144.292 2924.067l-1.469 6.311q-1.5 6.446-3.005 12.891a3.8 3.8 0 0 0-.043 1.958 2.806 2.806 0 0 0 2.335 2.09c.126.025.253.037.38.054H1128.857q-.3 0-.6-.026a2.867 2.867 0 0 1-2.541-2.109c-.048-.176-.079-.357-.118-.535v-.677c.036-.185.067-.37.109-.553q.837-3.6 1.676-7.193l2.636-11.3c.928-3.982 1.846-7.967 2.788-11.947a5.156 5.156 0 0 1 3.909-3.979c.171-.048.352-.04.519-.1h14.038c-.2.044-.41.074-.608.134a5.14 5.14 0 0 0-3.78 3.886c-.776 3.214-1.507 6.438-2.257 9.658a.235.235 0 0 0-.005.046 5.273 5.273 0 0 0-.79.413l.114-.423c.042-.16 0-.209-.161-.177-.629.124-1.26.231-1.9.311-.114.015-.15.078-.161.185-.074.668-.19 1.328-.325 1.986-.2.953-.431 1.9-.66 2.842-.025.1-.051.2.115.186.6-.042 1.2-.04 1.8-.031a.139.139 0 0 0 .16-.127l.079-.407c.2-1.024.413-2.048.648-3.066.012-.053.01-.119.07-.146a1.032 1.032 0 0 1 .68-.155zm-9-5.3v-.007c-.385 0-.77.007-1.154-.005-.11 0-.146.014-.169.124-.142.661-.3 1.318-.441 1.979-.333 1.6-.787 3.17-.991 4.8a1.771 1.771 0 0 0 .922 1.949 2.315 2.315 0 0 0 .441.179 6.405 6.405 0 0 0 3.727-.085 3.35 3.35 0 0 0 2.172-2.047 12.919 12.919 0 0 0 .486-1.6c.429-1.7.841-3.409 1.3-5.1.05-.183.052-.182-.14-.181-.62 0-1.241.019-1.861-.018-.113-.006-.146.013-.169.122q-.547 2.546-1.1 5.088a5.905 5.905 0 0 1-.46 1.493 1.741 1.741 0 0 1-1.752 1.01 1.012 1.012 0 0 1-1.045-1.074 6.5 6.5 0 0 1 .232-1.592c.4-1.646.81-3.29 1.274-4.92.025-.091.006-.112-.086-.111-.398-.003-.793-.006-1.188-.006z"/>
            <path id="Path_516" d="M1168.138 2930.926c.037-.018.056-.024.071-.034a2.859 2.859 0 0 1 1.558-.5c1.332-.066 2.666-.09 4-.083.1 0 .134.029.131.13 0 .185.009.369.006.554a.184.184 0 0 0 .179.206c.172.031.347 0 .535.024-.114.376-.226.742-.335 1.109a.086.086 0 0 1-.1.068c-.471-.013-.943.025-1.415-.009a.994.994 0 0 1-.463-.149.619.619 0 0 1-.315-.547v-.659l-.048-.006c-.044.138-.1.275-.129.415-.024.1-.074.124-.171.124-.162 0-.364-.069-.476.03s-.111.288-.157.44l-1.679 5.554c-.015.048-.026.1-.043.159.125 0 .238.006.349 0s.163.015.111.14a2.9 2.9 0 0 0-.092.292c-.013.045-.028.093.051.091a4.437 4.437 0 0 0 .553-.013.714.714 0 0 0 .493-.258c.484-.667.96-1.341 1.455-2.034h-1.847c.1-.347.2-.673.3-1 .027-.092.1-.061.15-.062h1.832c.107 0 .162-.023.192-.136.06-.233.132-.463.212-.689.043-.121.027-.156-.109-.154-.6.006-1.2 0-1.8 0h-.127c.1-.339.207-.662.287-.991.04-.166.111-.211.278-.211q2.709.011 5.418 0c.151 0 .167.034.122.168-.1.3-.191.6-.275.911-.027.1-.072.125-.169.124-.56-.005-1.119 0-1.678-.005a.152.152 0 0 0-.179.133c-.067.242-.146.48-.226.718-.034.1-.016.13.1.129.56-.006 1.119 0 1.678-.005.112 0 .142.018.1.135-.091.266-.171.536-.247.807a.135.135 0 0 1-.158.118c-.616-.005-1.232 0-1.847-.005a.251.251 0 0 0-.232.11c-.08.11-.173.21-.284.342.266 0 .494.006.723 0 .1 0 .143.031.157.132.061.42.129.84.192 1.261.035.236.058.261.3.279a2.289 2.289 0 0 0 .322.008c.113-.007.154.011.112.137q-.171.517-.319 1.043a.153.153 0 0 1-.183.13c-.312-.013-.626-.011-.938-.022a.934.934 0 0 1-.873-.781l-.184-1.168c-.061.011-.073.062-.1.1-.276.375-.557.748-.825 1.13a1.718 1.718 0 0 1-1.559.785c-.4-.013-.809 0-1.229 0l.114-.4c-.152 0-.294.006-.436 0-.094 0-.093.064-.11.118-.089.279-.088.279-.373.279h-1.34c-.113 0-.154-.012-.112-.139.085-.256.079-.258-.188-.258h-3.186c-.13 0-.156-.025-.112-.153q.153-.45.277-.91c.03-.107.08-.147.182-.127.184.037.247-.051.3-.223q1.071-3.589 2.155-7.175c.033-.109.076-.153.2-.151.508.007 1.016.006 1.524 0 .116 0 .142.026.1.138-.061.153-.1.311-.151.486zm-2.062 6.849h1.37c.069 0 .088-.036.1-.087.119-.4.236-.8.358-1.2.023-.073.018-.1-.066-.1h-1.259c-.056 0-.091.01-.11.075-.124.43-.255.859-.393 1.312zm.692-2.218a.18.18 0 0 0 .041-.011 3.538 3.538 0 0 1 1.441-.444c.072-.005.092-.048.109-.1.095-.319.188-.638.291-.954.033-.1 0-.11-.087-.11-.405 0-.81.006-1.215 0-.1 0-.13.042-.154.124-.138.466-.279.93-.419 1.4-.01.023-.03.055-.007.095zm.708-2.413c.054-.018.074-.023.092-.031a3.589 3.589 0 0 1 1.4-.38c.074 0 .091-.043.109-.1.092-.314.185-.628.286-.939.032-.1.006-.125-.093-.123h-.846c-.153 0-.336-.06-.449.024s-.109.277-.154.422c-.121.365-.221.732-.345 1.127z" class="cls-4"/>
            <path id="Path_517" d="M1166.946 2918.732c.666 0 1.374-.026 2.081.029a3.318 3.318 0 0 1 1.177.267 1.537 1.537 0 0 1 .922 1.4 3.94 3.94 0 0 1-3.107 4.058 10.667 10.667 0 0 1-2.25.163.319.319 0 0 0-.369.285c-.255.955-.443 1.924-.638 2.893-.028.142-.077.172-.217.164-.655-.039-1.312-.014-1.968 0-.141 0-.156-.031-.125-.156q.669-2.736 1.332-5.473c.279-1.149.512-2.308.756-3.465.028-.133.065-.178.211-.171.718.028 1.436.014 2.195.006zm-.571 4.487l.4-.024a1.969 1.969 0 0 0 1.909-1.67 1 1 0 0 0-.946-1.338c-.378-.038-.756-.065-1.134-.1-.082-.008-.113.009-.125.1-.023.178-.065.352-.1.527q-.272 1.2-.549 2.4c-.021.091 0 .117.089.113.148-.012.302-.008.456-.008z" class="cls-4"/>
            <path id="Path_518" d="M1157.646 2939.446c-.282 0-.564-.006-.846-.005a3 3 0 0 1-.769-.071.684.684 0 0 1-.439-.406c-.043-.1.014-.2.041-.294q.445-1.519.9-3.036.441-1.475.887-2.948c.228-.755.462-1.508.679-2.267.032-.113.084-.1.158-.1h1.446c.031 0 .061-.007.091-.01.036.022.038.045.024.088-.071.219-.135.441-.2.662a.449.449 0 0 0 0 .093c.211-.15.4-.293.611-.418a3.019 3.019 0 0 1 1.111-.335 20.411 20.411 0 0 1 2.618-.082 2.461 2.461 0 0 0 .453 0c.108-.023.069.079.056.127-.076.267-.159.532-.238.8-.164.545-.32 1.092-.493 1.634a6.117 6.117 0 0 1-.612 1.581 1.49 1.49 0 0 1-1.216.68c-1.035.058-2.072.017-3.108.027-.057 0-.113 0-.169.006-.108-.026-.157.008-.192.123-.263.861-.53 1.721-.769 2.589-.055.2.069.335.28.3.38 0 .756-.065 1.148-.094-.11.377-.209.736-.32 1.091-.084.268-.091.265-.382.266zm1.167-5.405h.095l2.564.016a.131.131 0 0 0 .141-.091c.052-.156.1-.315.146-.478a.57.57 0 0 0-.07-.008l-2.657.007c-.04-.014-.08 0-.087.036-.028.174-.12.331-.131.508l-.014.013zm.325-1.128c.049.01.074-.017.1-.038a3 3 0 0 1 1.594-.582c.384-.023.766.019 1.15.011a.179.179 0 0 0 .2-.154 2.531 2.531 0 0 1 .112-.375c.056-.138.011-.164-.122-.163-.835 0-1.67.006-2.5 0a.183.183 0 0 0-.21.159c-.104.378-.213.756-.324 1.142z" class="cls-4"/>
            <path id="Path_519" d="M1179.047 2925.231c.351-.72.8-1.384 1.085-2.125a.414.414 0 0 1 .391-.294c.55-.059 1.093-.167 1.636-.279.058-.011.118-.045.168.021s-.013.115-.04.162c-1.314 2.275-2.645 4.539-3.9 6.846-.379.7-.788 1.376-1.179 2.066a1.436 1.436 0 0 1-1.271.76c-.394.014-.789-.012-1.184-.013-.108 0-.1-.046-.077-.12.1-.313.19-.627.282-.941.02-.069.053-.106.128-.094.352.058.543-.126.722-.411.553-.882 1.061-1.788 1.587-2.685a.263.263 0 0 0 .035-.174c-.134-1.434-.343-2.859-.516-4.288-.025-.2-.067-.394-.1-.591-.027-.153.006-.215.16-.233.595-.074 1.182-.195 1.769-.315.134-.028.172.049.178.164q.047.953.1 1.905c.002.208.014.426.026.639z" class="cls-4"/>
            <path id="Path_520" d="M1172.7 2927.705a.092.092 0 0 0-.035.008 1.867 1.867 0 0 1-2.091.214 1.418 1.418 0 0 1-.892-1.211 3.228 3.228 0 0 1 .065-1.069 4.042 4.042 0 0 1 .828-1.925 3.164 3.164 0 0 1 1.893-1.088 1.15 1.15 0 0 1 1.136.46l.038.048.029.034c.035-.007.038-.036.037-.059-.006-.135.075-.17.191-.187.492-.073.983-.151 1.474-.229.146-.024.292-.053.438-.08s.168-.007.134.138l-.481 2.032c-.239 1.007-.447 2.02-.609 3.042-.026.161-.1.213-.255.207-.59-.021-1.18 0-1.769.02-.209.006-.215 0-.165-.2.012-.053.021-.102.034-.155zm.721-3.044c-.01-.087-.015-.18-.033-.27a.547.547 0 0 0-.4-.5.632.632 0 0 0-.656.238 1.38 1.38 0 0 0-.242.408 6.708 6.708 0 0 0-.35 1.27 1.746 1.746 0 0 0-.03.791.4.4 0 0 0 .435.334.971.971 0 0 0 .832-.521 2.823 2.823 0 0 0 .228-.7 6.217 6.217 0 0 0 .215-1.05z" class="cls-4"/>
            <path id="Path_521" d="M1160.324 2927.964c-.323-.015-.645.009-.967.025-.188.01-.2 0-.154-.185.236-1 .483-2 .644-3.016a1.355 1.355 0 0 0 .025-.458.307.307 0 0 0-.3-.277 1.211 1.211 0 0 0-.617.158c-.064.029-.059.095-.071.146-.238 1.021-.449 2.048-.651 3.078l-.058.3c-.043.226-.043.226-.262.224-.554-.006-1.107-.008-1.66.029-.2.013-.212-.007-.163-.208.262-1.079.529-2.156.737-3.247.095-.493.174-.988.233-1.487.027-.227.024-.229.252-.261.608-.087 1.215-.185 1.817-.306.141-.028.185.021.152.16s-.068.276-.107.436a2.675 2.675 0 0 1 2.377-.433 1.149 1.149 0 0 1 .481 1.3c-.128.84-.361 1.659-.522 2.493-.087.447-.171.9-.249 1.343a.184.184 0 0 1-.216.179c-.239 0-.48.005-.721.007z" class="cls-4"/>
            <path id="Path_522" d="M1162.209 2938.17l-.35 1.168a.087.087 0 0 1-.1.075 16.63 16.63 0 0 1-2.15-.063.459.459 0 0 1-.455-.544c.017-1.081.041-2.163.06-3.244 0-.081.017-.119.11-.118q.723.006 1.446 0c.094 0 .112.035.107.117-.01.148-.005.3-.019.445-.011.1.024.125.117.12.122-.007.246 0 .369 0a.287.287 0 0 0 .313-.235c.039-.143.094-.281.132-.424a.1.1 0 0 1 .117-.089h1.123c.057 0 .1 0 .077.081-.059.244-.111.489-.163.734a1.1 1.1 0 0 1-1.047.819c-.318.013-.635.029-.953.036-.111 0-.164.026-.159.155.011.241 0 .482 0 .723 0 .218.114.323.337.31z" class="cls-4"/>
            <path id="Path_523" d="M1157.953 2938.178c-.211.033-.335-.1-.28-.3.239-.868.506-1.728.769-2.589.035-.115.084-.149.192-.123-.061.4-.174.8-.264 1.194-.137.605-.278 1.211-.417 1.818z" class="cls-2"/>
            <path id="Path_524" d="M1144.292 2924.067a1.032 1.032 0 0 0-.675.148c-.06.027-.058.093-.07.146-.235 1.018-.444 2.042-.648 3.066l-.079.407a.139.139 0 0 1-.16.127c-.6-.009-1.2-.011-1.8.031-.166.012-.14-.084-.115-.186.229-.945.463-1.889.66-2.842.135-.658.251-1.318.325-1.986.011-.107.047-.17.161-.185.636-.08 1.267-.187 1.9-.311.16-.032.2.017.161.177l-.114.423a5.273 5.273 0 0 1 .79-.413 3.31 3.31 0 0 1 1.012-.151 1.873 1.873 0 0 1 .32.04.955.955 0 0 1 .763.92 4.417 4.417 0 0 1-.166 1.243c-.233 1.018-.453 2.037-.628 3.066-.024.137-.091.176-.218.174-.564-.008-1.127-.01-1.69.028-.183.012-.194-.007-.152-.189.194-.832.4-1.66.557-2.5a5.891 5.891 0 0 0 .121-.835c.005-.235-.059-.333-.255-.398z" class="cls-5"/>
            <path id="Path_525" d="M1152.572 2928.079a4.622 4.622 0 0 1-.94-.108 1.483 1.483 0 0 1-1.265-1.5 4.324 4.324 0 0 1 .852-2.8 2.89 2.89 0 0 1 2.075-1.092 3.786 3.786 0 0 1 1.465.083 1.533 1.533 0 0 1 1.243 1.61 4.58 4.58 0 0 1-.771 2.582 2.828 2.828 0 0 1-1.98 1.169 5.065 5.065 0 0 1-.679.056zm1.408-3.686v-.154a.462.462 0 0 0-.774-.377.81.81 0 0 0-.209.2 1.643 1.643 0 0 0-.214.389 7.18 7.18 0 0 0-.34 1.257 2.363 2.363 0 0 0-.057.671.472.472 0 0 0 .263.437.5.5 0 0 0 .52-.085 1.08 1.08 0 0 0 .329-.4 5.777 5.777 0 0 0 .482-1.938z" class="cls-4"/>
            <path id="Path_526" d="M1155.066 2938.121c-.127.425-.253.839-.376 1.255a.077.077 0 0 1-.087.065c-.835-.018-1.672.04-2.506-.034a.7.7 0 0 1-.523-.252.67.67 0 0 1-.121-.684c.2-.622.381-1.253.575-1.878.035-.112.027-.151-.1-.146-.282.01-.564 0-.846 0-.082 0-.122 0-.088-.106q.165-.51.31-1.028c.025-.088.071-.095.144-.094h.892c.079 0 .118-.019.14-.1.07-.256.145-.512.227-.765.033-.1.02-.135-.094-.132-.287.006-.574 0-.862 0-.089 0-.118-.015-.086-.113.1-.316.2-.635.291-.954.02-.068.046-.1.124-.1h4.74a.288.288 0 0 1 .055.012c-.112.363-.225.723-.334 1.084-.026.086-.091.067-.15.067h-1.677a.171.171 0 0 0-.2.15c-.077.28-.166.557-.254.848h1.813c.185 0 .185 0 .132.176-.092.3-.188.606-.274.911a.135.135 0 0 1-.158.117h-1.739c-.1 0-.149.023-.18.129q-.2.709-.424 1.411c-.043.133 0 .19.122.222a1.684 1.684 0 0 0 .655.042l.761-.107a.844.844 0 0 1 .098.004z" class="cls-4"/>
            <path id="Path_527" d="M1147.926 2927.992h-.938c-.128 0-.163-.04-.129-.165.14-.513.346-1 .459-1.527.154-.716.288-1.435.38-2.162a.178.178 0 0 1 .18-.182c.644-.092 1.288-.184 1.926-.31.149-.029.173 0 .137.144-.09.378-.185.755-.273 1.134-.22.957-.471 1.907-.617 2.88a.164.164 0 0 1-.187.157h-.939z" class="cls-4"/>
            <path id="Path_528" d="M1151.762 2932.835c.115-.379.225-.74.332-1.1a.085.085 0 0 1 .1-.072c.1 0 .195-.007.292 0a.575.575 0 0 0 .582-.342c.168-.311.344-.617.514-.926.031-.057.059-.095.137-.094h1.861c.008 0 .016.007.035.016-.092.176-.179.354-.277.526-.061.106-.03.125.079.124h1.722c.131 0 .14.035.1.145-.1.312-.2.624-.28.941-.031.118-.09.133-.194.133h-2.445a.346.346 0 0 0-.248.09 2.268 2.268 0 0 1-1.53.565z" class="cls-4"/>
            <path id="Path_529" d="M1149.352 2921.982a1.292 1.292 0 0 1 .434.075.549.549 0 0 1 .247.957 1.68 1.68 0 0 1-1.006.516 1.54 1.54 0 0 1-.745-.037.569.569 0 0 1-.252-1.02 1.9 1.9 0 0 1 1.322-.491z" class="cls-4"/>
            <path id="Path_530" d="M1144.369 2947.37h-.042c.014-.018.028-.017.042 0z" class="cls-6"/>
            <path id="Path_531" d="M1135.29 2918.765h1.185c.092 0 .111.02.086.111-.464 1.63-.872 3.274-1.274 4.92a6.5 6.5 0 0 0-.232 1.592 1.012 1.012 0 0 0 1.045 1.074 1.741 1.741 0 0 0 1.752-1.01 5.905 5.905 0 0 0 .46-1.493q.56-2.543 1.1-5.088c.023-.109.056-.128.169-.122.62.037 1.241.022 1.861.018.192 0 .19 0 .14.181-.463 1.693-.875 3.4-1.3 5.1a12.919 12.919 0 0 1-.486 1.6 3.35 3.35 0 0 1-2.172 2.047 6.405 6.405 0 0 1-3.727.085 2.315 2.315 0 0 1-.441-.179 1.771 1.771 0 0 1-.922-1.949c.2-1.626.658-3.2.991-4.8.139-.661.3-1.318.441-1.979.023-.11.059-.127.169-.124.384.012.769.005 1.154.005z" class="cls-5"/>
            <path id="Path_532" d="M1166.076 2937.775l.4-1.312c.019-.065.054-.075.11-.075h1.259c.084 0 .089.027.066.1-.122.4-.239.8-.358 1.2-.015.051-.034.087-.1.087-.453-.002-.907 0-1.377 0z" class="cls-1"/>
            <path id="Path_533" d="M1166.768 2935.557c-.023-.04 0-.072.007-.1.14-.466.281-.93.419-1.4.024-.082.053-.126.154-.124.405.007.81 0 1.215 0 .085 0 .12.009.087.11-.1.316-.2.635-.291.954-.017.057-.037.1-.109.1a3.538 3.538 0 0 0-1.441.444.18.18 0 0 1-.041.016z" class="cls-1"/>
            <path id="Path_534" d="M1167.476 2933.144c.12-.4.227-.762.342-1.126.045-.145.041-.339.154-.422s.3-.022.449-.024h.846c.1 0 .125.022.093.123-.1.311-.194.625-.286.939-.018.059-.035.1-.109.1a3.589 3.589 0 0 0-1.4.38c-.015.007-.035.012-.089.03z" class="cls-1"/>
            <path id="Path_535" d="M1166.375 2923.219h-.462c-.093 0-.11-.022-.089-.113q.279-1.2.549-2.4c.04-.175.082-.349.1-.527.012-.091.043-.108.125-.1.378.036.756.063 1.134.1a1 1 0 0 1 .946 1.338 1.969 1.969 0 0 1-1.909 1.67z" class="cls-1"/>
            <path id="Path_536" d="M1159.138 2932.913c.111-.386.22-.764.327-1.144a.183.183 0 0 1 .21-.159c.834.008 1.669.006 2.5 0 .133 0 .178.025.122.163a2.531 2.531 0 0 0-.112.375.179.179 0 0 1-.2.154c-.384.008-.766-.034-1.15-.011a3 3 0 0 0-1.594.582c-.029.027-.054.05-.103.04z" class="cls-1"/>
            <path id="Path_537" d="M1159.032 2933.486l2.657-.007a.57.57 0 0 1 .07.008c-.049.163-.094.322-.146.478a.131.131 0 0 1-.141.091q-1.283-.01-2.564-.016a3.88 3.88 0 0 0 .124-.554z" class="cls-1"/>
            <path id="Path_538" d="M1159.032 2933.486a3.88 3.88 0 0 1-.124.554h-.095v-.011c.011-.177.1-.334.131-.508.008-.038.048-.049.088-.035z" class="cls-2"/>
            <path id="Path_539" d="M1158.814 2934.03v.011h-.013z" class="cls-6"/>
            <path id="Path_540" d="M1173.42 2924.661a6.217 6.217 0 0 1-.211 1.056 2.823 2.823 0 0 1-.228.7.971.971 0 0 1-.832.521.4.4 0 0 1-.435-.334 1.746 1.746 0 0 1 .03-.791 6.708 6.708 0 0 1 .35-1.27 1.38 1.38 0 0 1 .242-.408.632.632 0 0 1 .656-.238.547.547 0 0 1 .4.5c.013.084.018.177.028.264z" class="cls-1"/>
            <path id="Path_541" d="M1153.98 2924.393a5.777 5.777 0 0 1-.483 1.938 1.08 1.08 0 0 1-.329.4.5.5 0 0 1-.52.085.472.472 0 0 1-.263-.437 2.363 2.363 0 0 1 .057-.671 7.18 7.18 0 0 1 .34-1.257 1.643 1.643 0 0 1 .214-.389.81.81 0 0 1 .209-.2.462.462 0 0 1 .774.377c.004.051.001.103.001.154z" class="cls-2"/>
        </g>
    </g>
</svg>
